<mxfile host="app.diagrams.net" agent="Mozilla/5.0 (Windows NT 10.0; Win64; x64) AppleWebKit/537.36 (KHTML, like Gecko) Chrome/134.0.0.0 Safari/537.36" version="26.2.1">
  <diagram name="Page-1" id="C4RyEnPjVhdpz7Vin0za">
    <mxGraphModel dx="3670" dy="1245" grid="1" gridSize="10" guides="1" tooltips="1" connect="1" arrows="1" fold="1" page="1" pageScale="1" pageWidth="850" pageHeight="1100" math="1" shadow="0">
      <root>
        <mxCell id="0" />
        <mxCell id="1" parent="0" />
        <mxCell id="CFb-FSN92-86_s7JcS4c-368" value="" style="rounded=0;whiteSpace=wrap;html=1;" parent="1" vertex="1">
          <mxGeometry x="-1170" y="220" width="2000" height="880" as="geometry" />
        </mxCell>
        <mxCell id="CFb-FSN92-86_s7JcS4c-295" value="" style="rounded=1;whiteSpace=wrap;html=1;fillColor=#6D8764;fontColor=#000000;strokeColor=light-dark(#000000,#636363);" parent="1" vertex="1">
          <mxGeometry x="490" y="485" width="170" height="205" as="geometry" />
        </mxCell>
        <mxCell id="CFb-FSN92-86_s7JcS4c-4" value="" style="rounded=0;whiteSpace=wrap;html=1;fillColor=light-dark(#6D8764,#071E22);fontColor=#ffffff;strokeColor=light-dark(#000000,#636363);" parent="1" vertex="1">
          <mxGeometry x="-790" y="460" width="200" height="200" as="geometry" />
        </mxCell>
        <mxCell id="CFb-FSN92-86_s7JcS4c-15" value="" style="rounded=0;whiteSpace=wrap;html=1;fillColor=light-dark(#6D8764,#071E22);fontColor=#ffffff;strokeColor=light-dark(#000000,#636363);" parent="1" vertex="1">
          <mxGeometry x="-780" y="470" width="200" height="200" as="geometry" />
        </mxCell>
        <mxCell id="CFb-FSN92-86_s7JcS4c-16" value="" style="rounded=0;whiteSpace=wrap;html=1;fillColor=light-dark(#6D8764,#071E22);fontColor=#ffffff;strokeColor=light-dark(#000000,#636363);" parent="1" vertex="1">
          <mxGeometry x="-770" y="480" width="200" height="200" as="geometry" />
        </mxCell>
        <mxCell id="CFb-FSN92-86_s7JcS4c-23" value="" style="group" parent="1" vertex="1" connectable="0">
          <mxGeometry x="-500" y="490" width="180" height="180" as="geometry" />
        </mxCell>
        <mxCell id="CFb-FSN92-86_s7JcS4c-17" value="" style="rounded=0;whiteSpace=wrap;html=1;fillColor=light-dark(#6D8764,#071E22);fontColor=#ffffff;strokeColor=light-dark(#000000,#636363);" parent="CFb-FSN92-86_s7JcS4c-23" vertex="1">
          <mxGeometry width="144" height="144" as="geometry" />
        </mxCell>
        <mxCell id="CFb-FSN92-86_s7JcS4c-18" value="" style="rounded=0;whiteSpace=wrap;html=1;fillColor=light-dark(#6D8764,#071E22);fontColor=#ffffff;strokeColor=light-dark(#000000,#636363);" parent="CFb-FSN92-86_s7JcS4c-23" vertex="1">
          <mxGeometry x="7.199999999999999" y="7.199999999999999" width="144" height="144" as="geometry" />
        </mxCell>
        <mxCell id="CFb-FSN92-86_s7JcS4c-19" value="" style="rounded=0;whiteSpace=wrap;html=1;fillColor=light-dark(#6D8764,#071E22);fontColor=#ffffff;strokeColor=light-dark(#000000,#636363);" parent="CFb-FSN92-86_s7JcS4c-23" vertex="1">
          <mxGeometry x="14.399999999999999" y="14.399999999999999" width="144" height="144" as="geometry" />
        </mxCell>
        <mxCell id="CFb-FSN92-86_s7JcS4c-20" value="" style="rounded=0;whiteSpace=wrap;html=1;fillColor=light-dark(#6D8764,#071E22);fontColor=#ffffff;strokeColor=light-dark(#000000,#636363);" parent="CFb-FSN92-86_s7JcS4c-23" vertex="1">
          <mxGeometry x="21.599999999999998" y="21.599999999999998" width="144" height="144" as="geometry" />
        </mxCell>
        <mxCell id="CFb-FSN92-86_s7JcS4c-21" value="" style="rounded=0;whiteSpace=wrap;html=1;fillColor=light-dark(#6D8764,#071E22);fontColor=#ffffff;strokeColor=light-dark(#000000,#636363);" parent="CFb-FSN92-86_s7JcS4c-23" vertex="1">
          <mxGeometry x="28.799999999999997" y="28.799999999999997" width="144" height="144" as="geometry" />
        </mxCell>
        <mxCell id="CFb-FSN92-86_s7JcS4c-22" value="" style="rounded=0;whiteSpace=wrap;html=1;fillColor=light-dark(#6D8764,#071E22);fontColor=#ffffff;strokeColor=light-dark(#000000,#636363);" parent="CFb-FSN92-86_s7JcS4c-23" vertex="1">
          <mxGeometry x="36" y="36" width="144" height="144" as="geometry" />
        </mxCell>
        <mxCell id="CFb-FSN92-86_s7JcS4c-303" value="" style="whiteSpace=wrap;html=1;aspect=fixed;fillColor=light-dark(#FFFFFF,#44AF69);strokeColor=light-dark(#82B366,#FFFFFF);fillStyle=auto;glass=0;gradientColor=none;dashed=1;" parent="CFb-FSN92-86_s7JcS4c-23" vertex="1">
          <mxGeometry x="-150" y="28" width="60" height="60" as="geometry" />
        </mxCell>
        <mxCell id="CFb-FSN92-86_s7JcS4c-304" value="" style="whiteSpace=wrap;html=1;aspect=fixed;fillColor=light-dark(#FFFFFF,#44AF69);strokeColor=light-dark(#82B366,#FFFFFF);fillStyle=auto;glass=0;gradientColor=none;dashed=1;" parent="CFb-FSN92-86_s7JcS4c-23" vertex="1">
          <mxGeometry x="50" y="60" width="33" height="33" as="geometry" />
        </mxCell>
        <mxCell id="CFb-FSN92-86_s7JcS4c-310" value="" style="endArrow=none;dashed=1;html=1;rounded=0;exitX=1;exitY=0;exitDx=0;exitDy=0;entryX=0;entryY=0;entryDx=0;entryDy=0;" parent="CFb-FSN92-86_s7JcS4c-23" source="CFb-FSN92-86_s7JcS4c-303" target="CFb-FSN92-86_s7JcS4c-304" edge="1">
          <mxGeometry width="50" height="50" relative="1" as="geometry">
            <mxPoint x="-370" y="170" as="sourcePoint" />
            <mxPoint x="-230" y="175" as="targetPoint" />
          </mxGeometry>
        </mxCell>
        <mxCell id="CFb-FSN92-86_s7JcS4c-311" value="" style="endArrow=none;dashed=1;html=1;rounded=0;exitX=1;exitY=1;exitDx=0;exitDy=0;entryX=0;entryY=1;entryDx=0;entryDy=0;" parent="CFb-FSN92-86_s7JcS4c-23" source="CFb-FSN92-86_s7JcS4c-303" target="CFb-FSN92-86_s7JcS4c-304" edge="1">
          <mxGeometry width="50" height="50" relative="1" as="geometry">
            <mxPoint x="-80" y="38" as="sourcePoint" />
            <mxPoint x="60" y="70" as="targetPoint" />
          </mxGeometry>
        </mxCell>
        <mxCell id="CFb-FSN92-86_s7JcS4c-38" value="" style="group" parent="1" vertex="1" connectable="0">
          <mxGeometry x="-250" y="520" width="120" height="143.55" as="geometry" />
        </mxCell>
        <mxCell id="CFb-FSN92-86_s7JcS4c-25" value="" style="rounded=0;whiteSpace=wrap;html=1;fillColor=light-dark(#6D8764,#071E22);fontColor=#ffffff;strokeColor=light-dark(#000000,#636363);container=0;" parent="CFb-FSN92-86_s7JcS4c-38" vertex="1">
          <mxGeometry width="78.54545454545453" height="78.54545454545453" as="geometry" />
        </mxCell>
        <mxCell id="CFb-FSN92-86_s7JcS4c-26" value="" style="rounded=0;whiteSpace=wrap;html=1;fillColor=light-dark(#6D8764,#071E22);fontColor=#ffffff;strokeColor=light-dark(#000000,#636363);container=0;" parent="CFb-FSN92-86_s7JcS4c-38" vertex="1">
          <mxGeometry x="3.9272727272727206" y="3.9272727272727206" width="78.54545454545453" height="78.54545454545453" as="geometry" />
        </mxCell>
        <mxCell id="CFb-FSN92-86_s7JcS4c-27" value="" style="rounded=0;whiteSpace=wrap;html=1;fillColor=light-dark(#6D8764,#071E22);fontColor=#ffffff;strokeColor=light-dark(#000000,#636363);container=0;" parent="CFb-FSN92-86_s7JcS4c-38" vertex="1">
          <mxGeometry x="7.854545454545441" y="7.854545454545457" width="78.54545454545453" height="78.54545454545453" as="geometry" />
        </mxCell>
        <mxCell id="CFb-FSN92-86_s7JcS4c-28" value="" style="rounded=0;whiteSpace=wrap;html=1;fillColor=light-dark(#6D8764,#071E22);fontColor=#ffffff;strokeColor=light-dark(#000000,#636363);container=0;" parent="CFb-FSN92-86_s7JcS4c-38" vertex="1">
          <mxGeometry x="11.781818181818194" y="11.781818181818178" width="78.54545454545453" height="78.54545454545453" as="geometry" />
        </mxCell>
        <mxCell id="CFb-FSN92-86_s7JcS4c-29" value="" style="rounded=0;whiteSpace=wrap;html=1;fillColor=light-dark(#6D8764,#071E22);fontColor=#ffffff;strokeColor=light-dark(#000000,#636363);container=0;" parent="CFb-FSN92-86_s7JcS4c-38" vertex="1">
          <mxGeometry x="15.709090909090914" y="15.709090909090914" width="78.54545454545453" height="78.54545454545453" as="geometry" />
        </mxCell>
        <mxCell id="CFb-FSN92-86_s7JcS4c-30" value="" style="rounded=0;whiteSpace=wrap;html=1;fillColor=light-dark(#6D8764,#071E22);fontColor=#ffffff;strokeColor=light-dark(#000000,#636363);container=0;" parent="CFb-FSN92-86_s7JcS4c-38" vertex="1">
          <mxGeometry x="19.636363636363633" y="19.636363636363633" width="78.54545454545453" height="78.54545454545453" as="geometry" />
        </mxCell>
        <mxCell id="CFb-FSN92-86_s7JcS4c-32" value="" style="rounded=0;whiteSpace=wrap;html=1;fillColor=light-dark(#6D8764,#071E22);fontColor=#ffffff;strokeColor=light-dark(#000000,#636363);container=0;" parent="CFb-FSN92-86_s7JcS4c-38" vertex="1">
          <mxGeometry x="21.818181818181817" y="21.818181818181817" width="78.54545454545453" height="78.54545454545453" as="geometry" />
        </mxCell>
        <mxCell id="CFb-FSN92-86_s7JcS4c-33" value="" style="rounded=0;whiteSpace=wrap;html=1;fillColor=light-dark(#6D8764,#071E22);fontColor=#ffffff;strokeColor=light-dark(#000000,#636363);container=0;" parent="CFb-FSN92-86_s7JcS4c-38" vertex="1">
          <mxGeometry x="25.74545454545454" y="25.74545454545454" width="78.54545454545453" height="78.54545454545453" as="geometry" />
        </mxCell>
        <mxCell id="CFb-FSN92-86_s7JcS4c-34" value="" style="rounded=0;whiteSpace=wrap;html=1;fillColor=light-dark(#6D8764,#071E22);fontColor=#ffffff;strokeColor=light-dark(#000000,#636363);container=0;" parent="CFb-FSN92-86_s7JcS4c-38" vertex="1">
          <mxGeometry x="29.672727272727258" y="29.672727272727272" width="78.54545454545453" height="78.54545454545453" as="geometry" />
        </mxCell>
        <mxCell id="CFb-FSN92-86_s7JcS4c-35" value="" style="rounded=0;whiteSpace=wrap;html=1;fillColor=light-dark(#6D8764,#071E22);fontColor=#ffffff;strokeColor=light-dark(#000000,#636363);container=0;" parent="CFb-FSN92-86_s7JcS4c-38" vertex="1">
          <mxGeometry x="33.60000000000001" y="33.599999999999994" width="78.54545454545453" height="78.54545454545453" as="geometry" />
        </mxCell>
        <mxCell id="CFb-FSN92-86_s7JcS4c-36" value="" style="rounded=0;whiteSpace=wrap;html=1;fillColor=light-dark(#6D8764,#071E22);fontColor=#ffffff;strokeColor=light-dark(#000000,#636363);container=0;" parent="CFb-FSN92-86_s7JcS4c-38" vertex="1">
          <mxGeometry x="37.52727272727273" y="37.52727272727273" width="78.54545454545453" height="78.54545454545453" as="geometry" />
        </mxCell>
        <mxCell id="CFb-FSN92-86_s7JcS4c-37" value="" style="rounded=0;whiteSpace=wrap;html=1;fillColor=light-dark(#6D8764,#071E22);fontColor=#ffffff;strokeColor=light-dark(#000000,#636363);container=0;" parent="CFb-FSN92-86_s7JcS4c-38" vertex="1">
          <mxGeometry x="41.45454545454545" y="41.45454545454545" width="78.54545454545453" height="78.54545454545453" as="geometry" />
        </mxCell>
        <mxCell id="CFb-FSN92-86_s7JcS4c-305" value="" style="whiteSpace=wrap;html=1;aspect=fixed;fillColor=light-dark(#FFFFFF,#44AF69);strokeColor=light-dark(#82B366,#FFFFFF);fillStyle=auto;glass=0;gradientColor=none;dashed=1;" parent="CFb-FSN92-86_s7JcS4c-38" vertex="1">
          <mxGeometry x="-140.71" y="90" width="48.55" height="48.55" as="geometry" />
        </mxCell>
        <mxCell id="CFb-FSN92-86_s7JcS4c-306" value="" style="whiteSpace=wrap;html=1;aspect=fixed;fillColor=light-dark(#FFFFFF,#44AF69);strokeColor=light-dark(#82B366,#FFFFFF);fillStyle=auto;glass=0;gradientColor=none;dashed=1;" parent="CFb-FSN92-86_s7JcS4c-38" vertex="1">
          <mxGeometry x="46.45" y="90" width="22.15" height="22.15" as="geometry" />
        </mxCell>
        <mxCell id="CFb-FSN92-86_s7JcS4c-312" value="" style="endArrow=none;dashed=1;html=1;rounded=0;exitX=1;exitY=0;exitDx=0;exitDy=0;entryX=0.25;entryY=0;entryDx=0;entryDy=0;" parent="CFb-FSN92-86_s7JcS4c-38" source="CFb-FSN92-86_s7JcS4c-305" target="CFb-FSN92-86_s7JcS4c-306" edge="1">
          <mxGeometry width="50" height="50" relative="1" as="geometry">
            <mxPoint x="-330" y="68" as="sourcePoint" />
            <mxPoint x="-190" y="73" as="targetPoint" />
          </mxGeometry>
        </mxCell>
        <mxCell id="CFb-FSN92-86_s7JcS4c-313" value="" style="endArrow=none;dashed=1;html=1;rounded=0;exitX=1;exitY=1;exitDx=0;exitDy=0;entryX=0;entryY=1;entryDx=0;entryDy=0;" parent="CFb-FSN92-86_s7JcS4c-38" source="CFb-FSN92-86_s7JcS4c-305" target="CFb-FSN92-86_s7JcS4c-306" edge="1">
          <mxGeometry width="50" height="50" relative="1" as="geometry">
            <mxPoint x="-82" y="100" as="sourcePoint" />
            <mxPoint x="62" y="100" as="targetPoint" />
          </mxGeometry>
        </mxCell>
        <mxCell id="CFb-FSN92-86_s7JcS4c-49" value="" style="group" parent="1" vertex="1" connectable="0">
          <mxGeometry x="-40" y="540" width="90" height="90" as="geometry" />
        </mxCell>
        <mxCell id="CFb-FSN92-86_s7JcS4c-39" value="" style="rounded=0;whiteSpace=wrap;html=1;fillColor=light-dark(#6D8764,#071E22);fontColor=#ffffff;strokeColor=light-dark(#000000,#636363);" parent="CFb-FSN92-86_s7JcS4c-49" vertex="1">
          <mxGeometry width="22.5" height="22.5" as="geometry" />
        </mxCell>
        <mxCell id="CFb-FSN92-86_s7JcS4c-40" value="" style="rounded=0;whiteSpace=wrap;html=1;fillColor=light-dark(#6D8764,#071E22);fontColor=#ffffff;strokeColor=light-dark(#000000,#636363);" parent="CFb-FSN92-86_s7JcS4c-49" vertex="1">
          <mxGeometry x="7.500000000000001" y="7.500000000000001" width="22.5" height="22.5" as="geometry" />
        </mxCell>
        <mxCell id="CFb-FSN92-86_s7JcS4c-41" value="" style="rounded=0;whiteSpace=wrap;html=1;fillColor=light-dark(#6D8764,#071E22);fontColor=#ffffff;strokeColor=light-dark(#000000,#636363);" parent="CFb-FSN92-86_s7JcS4c-49" vertex="1">
          <mxGeometry x="15.000000000000002" y="15.000000000000002" width="22.5" height="22.5" as="geometry" />
        </mxCell>
        <mxCell id="CFb-FSN92-86_s7JcS4c-42" value="" style="rounded=0;whiteSpace=wrap;html=1;fillColor=light-dark(#6D8764,#071E22);fontColor=#ffffff;strokeColor=light-dark(#000000,#636363);" parent="CFb-FSN92-86_s7JcS4c-49" vertex="1">
          <mxGeometry x="22.5" y="22.5" width="22.5" height="22.5" as="geometry" />
        </mxCell>
        <mxCell id="CFb-FSN92-86_s7JcS4c-43" value="" style="rounded=0;whiteSpace=wrap;html=1;fillColor=light-dark(#6D8764,#071E22);fontColor=#ffffff;strokeColor=light-dark(#000000,#636363);" parent="CFb-FSN92-86_s7JcS4c-49" vertex="1">
          <mxGeometry x="30.000000000000004" y="30.000000000000004" width="22.5" height="22.5" as="geometry" />
        </mxCell>
        <mxCell id="CFb-FSN92-86_s7JcS4c-44" value="" style="rounded=0;whiteSpace=wrap;html=1;fillColor=light-dark(#6D8764,#071E22);fontColor=#ffffff;strokeColor=light-dark(#000000,#636363);" parent="CFb-FSN92-86_s7JcS4c-49" vertex="1">
          <mxGeometry x="37.50000000000001" y="37.50000000000001" width="22.5" height="22.5" as="geometry" />
        </mxCell>
        <mxCell id="CFb-FSN92-86_s7JcS4c-45" value="" style="rounded=0;whiteSpace=wrap;html=1;fillColor=light-dark(#6D8764,#071E22);fontColor=#ffffff;strokeColor=light-dark(#000000,#636363);" parent="CFb-FSN92-86_s7JcS4c-49" vertex="1">
          <mxGeometry x="45" y="45" width="22.5" height="22.5" as="geometry" />
        </mxCell>
        <mxCell id="CFb-FSN92-86_s7JcS4c-46" value="" style="rounded=0;whiteSpace=wrap;html=1;fillColor=light-dark(#6D8764,#071E22);fontColor=#ffffff;strokeColor=light-dark(#000000,#636363);" parent="CFb-FSN92-86_s7JcS4c-49" vertex="1">
          <mxGeometry x="52.5" y="52.5" width="22.5" height="22.5" as="geometry" />
        </mxCell>
        <mxCell id="CFb-FSN92-86_s7JcS4c-47" value="" style="rounded=0;whiteSpace=wrap;html=1;fillColor=light-dark(#6D8764,#071E22);fontColor=#ffffff;strokeColor=light-dark(#000000,#636363);" parent="CFb-FSN92-86_s7JcS4c-49" vertex="1">
          <mxGeometry x="60.00000000000001" y="60.00000000000001" width="22.5" height="22.5" as="geometry" />
        </mxCell>
        <mxCell id="CFb-FSN92-86_s7JcS4c-48" value="" style="rounded=0;whiteSpace=wrap;html=1;fillColor=light-dark(#6D8764,#071E22);fontColor=#ffffff;strokeColor=light-dark(#000000,#636363);" parent="CFb-FSN92-86_s7JcS4c-49" vertex="1">
          <mxGeometry x="67.5" y="67.5" width="22.5" height="22.5" as="geometry" />
        </mxCell>
        <mxCell id="CFb-FSN92-86_s7JcS4c-307" value="" style="whiteSpace=wrap;html=1;aspect=fixed;fillColor=light-dark(#FFFFFF,#44AF69);strokeColor=light-dark(#82B366,#FFFFFF);fillStyle=auto;glass=0;gradientColor=none;dashed=1;" parent="CFb-FSN92-86_s7JcS4c-49" vertex="1">
          <mxGeometry x="72.5" y="75" width="10" height="10" as="geometry" />
        </mxCell>
        <mxCell id="CFb-FSN92-86_s7JcS4c-50" value="" style="rounded=0;whiteSpace=wrap;html=1;fillColor=light-dark(#6D8764,#071E22);fontColor=#ffffff;strokeColor=light-dark(#000000,#636363);" parent="1" vertex="1">
          <mxGeometry x="110" y="480" width="20" height="20" as="geometry" />
        </mxCell>
        <mxCell id="CFb-FSN92-86_s7JcS4c-58" value="" style="rounded=0;whiteSpace=wrap;html=1;fillColor=light-dark(#6D8764,#071E22);fontColor=#ffffff;strokeColor=light-dark(#000000,#636363);" parent="1" vertex="1">
          <mxGeometry x="110" y="500" width="20" height="20" as="geometry" />
        </mxCell>
        <mxCell id="CFb-FSN92-86_s7JcS4c-59" value="" style="rounded=0;whiteSpace=wrap;html=1;fillColor=light-dark(#6D8764,#071E22);fontColor=#ffffff;strokeColor=light-dark(#000000,#636363);" parent="1" vertex="1">
          <mxGeometry x="110" y="520" width="20" height="20" as="geometry" />
        </mxCell>
        <mxCell id="CFb-FSN92-86_s7JcS4c-60" value="" style="rounded=0;whiteSpace=wrap;html=1;fillColor=light-dark(#6D8764,#071E22);fontColor=#ffffff;strokeColor=light-dark(#000000,#636363);" parent="1" vertex="1">
          <mxGeometry x="110" y="540" width="20" height="20" as="geometry" />
        </mxCell>
        <mxCell id="CFb-FSN92-86_s7JcS4c-61" value="" style="rounded=0;whiteSpace=wrap;html=1;fillColor=light-dark(#6D8764,#071E22);fontColor=#ffffff;strokeColor=light-dark(#000000,#636363);" parent="1" vertex="1">
          <mxGeometry x="110" y="560" width="20" height="20" as="geometry" />
        </mxCell>
        <mxCell id="CFb-FSN92-86_s7JcS4c-62" value="" style="rounded=0;whiteSpace=wrap;html=1;fillColor=light-dark(#6D8764,#071E22);fontColor=#ffffff;strokeColor=light-dark(#000000,#636363);" parent="1" vertex="1">
          <mxGeometry x="110" y="580" width="20" height="20" as="geometry" />
        </mxCell>
        <mxCell id="CFb-FSN92-86_s7JcS4c-63" value="" style="rounded=0;whiteSpace=wrap;html=1;fillColor=light-dark(#6D8764,#071E22);fontColor=#ffffff;strokeColor=light-dark(#000000,#636363);" parent="1" vertex="1">
          <mxGeometry x="110" y="600" width="20" height="20" as="geometry" />
        </mxCell>
        <mxCell id="CFb-FSN92-86_s7JcS4c-64" value="" style="rounded=0;whiteSpace=wrap;html=1;fillColor=light-dark(#6D8764,#071E22);fontColor=#ffffff;strokeColor=light-dark(#000000,#636363);" parent="1" vertex="1">
          <mxGeometry x="110" y="620" width="20" height="20" as="geometry" />
        </mxCell>
        <mxCell id="CFb-FSN92-86_s7JcS4c-65" value="" style="rounded=0;whiteSpace=wrap;html=1;fillColor=light-dark(#6D8764,#071E22);fontColor=#ffffff;strokeColor=light-dark(#000000,#636363);" parent="1" vertex="1">
          <mxGeometry x="110" y="640" width="20" height="20" as="geometry" />
        </mxCell>
        <mxCell id="CFb-FSN92-86_s7JcS4c-66" value="" style="rounded=0;whiteSpace=wrap;html=1;fillColor=light-dark(#6D8764,#071E22);fontColor=#ffffff;strokeColor=light-dark(#000000,#636363);" parent="1" vertex="1">
          <mxGeometry x="110" y="660" width="20" height="20" as="geometry" />
        </mxCell>
        <mxCell id="CFb-FSN92-86_s7JcS4c-69" value="" style="ellipse;whiteSpace=wrap;html=1;aspect=fixed;fillColor=#44AF69;fontColor=#ffffff;strokeColor=light-dark(#000000,#636363);" parent="1" vertex="1">
          <mxGeometry x="210" y="380" width="30" height="30" as="geometry" />
        </mxCell>
        <mxCell id="CFb-FSN92-86_s7JcS4c-70" value="" style="ellipse;whiteSpace=wrap;html=1;aspect=fixed;fillColor=#44AF69;fontColor=#ffffff;strokeColor=light-dark(#000000,#636363);" parent="1" vertex="1">
          <mxGeometry x="210" y="430" width="30" height="30" as="geometry" />
        </mxCell>
        <mxCell id="CFb-FSN92-86_s7JcS4c-71" value="" style="ellipse;whiteSpace=wrap;html=1;aspect=fixed;fillColor=#44AF69;fontColor=#ffffff;strokeColor=light-dark(#000000,#636363);" parent="1" vertex="1">
          <mxGeometry x="210" y="480" width="30" height="30" as="geometry" />
        </mxCell>
        <mxCell id="CFb-FSN92-86_s7JcS4c-72" value="" style="ellipse;whiteSpace=wrap;html=1;aspect=fixed;fillColor=#44AF69;fontColor=#ffffff;strokeColor=light-dark(#000000,#636363);" parent="1" vertex="1">
          <mxGeometry x="210" y="530" width="30" height="30" as="geometry" />
        </mxCell>
        <mxCell id="CFb-FSN92-86_s7JcS4c-73" value="" style="ellipse;whiteSpace=wrap;html=1;aspect=fixed;fillColor=#44AF69;fontColor=#ffffff;strokeColor=light-dark(#000000,#636363);" parent="1" vertex="1">
          <mxGeometry x="210" y="580" width="30" height="30" as="geometry" />
        </mxCell>
        <mxCell id="CFb-FSN92-86_s7JcS4c-74" value="" style="ellipse;whiteSpace=wrap;html=1;aspect=fixed;fillColor=#44AF69;fontColor=#ffffff;strokeColor=light-dark(#000000,#636363);" parent="1" vertex="1">
          <mxGeometry x="210" y="630" width="30" height="30" as="geometry" />
        </mxCell>
        <mxCell id="CFb-FSN92-86_s7JcS4c-75" value="" style="ellipse;whiteSpace=wrap;html=1;aspect=fixed;fillColor=#44AF69;fontColor=#ffffff;strokeColor=light-dark(#000000,#636363);" parent="1" vertex="1">
          <mxGeometry x="210" y="680" width="30" height="30" as="geometry" />
        </mxCell>
        <mxCell id="CFb-FSN92-86_s7JcS4c-76" value="" style="ellipse;whiteSpace=wrap;html=1;aspect=fixed;fillColor=#44AF69;fontColor=#ffffff;strokeColor=light-dark(#000000,#636363);" parent="1" vertex="1">
          <mxGeometry x="210" y="330" width="30" height="30" as="geometry" />
        </mxCell>
        <mxCell id="CFb-FSN92-86_s7JcS4c-77" value="" style="ellipse;whiteSpace=wrap;html=1;aspect=fixed;fillColor=#44AF69;fontColor=#ffffff;strokeColor=light-dark(#000000,#636363);" parent="1" vertex="1">
          <mxGeometry x="210" y="730" width="30" height="30" as="geometry" />
        </mxCell>
        <mxCell id="CFb-FSN92-86_s7JcS4c-78" value="" style="ellipse;whiteSpace=wrap;html=1;aspect=fixed;fillColor=#44AF69;fontColor=#ffffff;strokeColor=light-dark(#000000,#636363);" parent="1" vertex="1">
          <mxGeometry x="210" y="780" width="30" height="30" as="geometry" />
        </mxCell>
        <mxCell id="CFb-FSN92-86_s7JcS4c-89" value="" style="ellipse;whiteSpace=wrap;html=1;aspect=fixed;fillColor=#fa6800;fontColor=#000000;strokeColor=#C73500;" parent="1" vertex="1">
          <mxGeometry x="320" y="440" width="30" height="30" as="geometry" />
        </mxCell>
        <mxCell id="CFb-FSN92-86_s7JcS4c-90" value="" style="ellipse;whiteSpace=wrap;html=1;aspect=fixed;fillColor=#fa6800;fontColor=#000000;strokeColor=#C73500;" parent="1" vertex="1">
          <mxGeometry x="320" y="490" width="30" height="30" as="geometry" />
        </mxCell>
        <mxCell id="CFb-FSN92-86_s7JcS4c-91" value="" style="ellipse;whiteSpace=wrap;html=1;aspect=fixed;fillColor=#fa6800;fontColor=#000000;strokeColor=#C73500;" parent="1" vertex="1">
          <mxGeometry x="320" y="540" width="30" height="30" as="geometry" />
        </mxCell>
        <mxCell id="CFb-FSN92-86_s7JcS4c-92" value="" style="ellipse;whiteSpace=wrap;html=1;aspect=fixed;fillColor=#fa6800;fontColor=#000000;strokeColor=#C73500;" parent="1" vertex="1">
          <mxGeometry x="320" y="590" width="30" height="30" as="geometry" />
        </mxCell>
        <mxCell id="CFb-FSN92-86_s7JcS4c-93" value="" style="ellipse;whiteSpace=wrap;html=1;aspect=fixed;fillColor=#fa6800;fontColor=#000000;strokeColor=#C73500;" parent="1" vertex="1">
          <mxGeometry x="320" y="640" width="30" height="30" as="geometry" />
        </mxCell>
        <mxCell id="CFb-FSN92-86_s7JcS4c-94" value="" style="ellipse;whiteSpace=wrap;html=1;aspect=fixed;fillColor=#fa6800;fontColor=#000000;strokeColor=#C73500;" parent="1" vertex="1">
          <mxGeometry x="320" y="690" width="30" height="30" as="geometry" />
        </mxCell>
        <mxCell id="y4Hc1ZKNLRc7zfj0BYFc-9" style="edgeStyle=orthogonalEdgeStyle;rounded=0;orthogonalLoop=1;jettySize=auto;html=1;exitX=1;exitY=0.5;exitDx=0;exitDy=0;entryX=0;entryY=0.5;entryDx=0;entryDy=0;" edge="1" parent="1" source="CFb-FSN92-86_s7JcS4c-95" target="CFb-FSN92-86_s7JcS4c-366">
          <mxGeometry relative="1" as="geometry" />
        </mxCell>
        <mxCell id="CFb-FSN92-86_s7JcS4c-95" value="" style="ellipse;whiteSpace=wrap;html=1;aspect=fixed;fillColor=#f0a30a;fontColor=#000000;strokeColor=#BD7000;" parent="1" vertex="1">
          <mxGeometry x="425" y="495" width="30" height="30" as="geometry" />
        </mxCell>
        <mxCell id="y4Hc1ZKNLRc7zfj0BYFc-10" style="edgeStyle=orthogonalEdgeStyle;rounded=0;orthogonalLoop=1;jettySize=auto;html=1;exitX=1;exitY=0.5;exitDx=0;exitDy=0;entryX=0;entryY=0.5;entryDx=0;entryDy=0;" edge="1" parent="1" source="CFb-FSN92-86_s7JcS4c-96" target="CFb-FSN92-86_s7JcS4c-365">
          <mxGeometry relative="1" as="geometry" />
        </mxCell>
        <mxCell id="CFb-FSN92-86_s7JcS4c-96" value="" style="ellipse;whiteSpace=wrap;html=1;aspect=fixed;fillColor=#f0a30a;fontColor=#000000;strokeColor=#BD7000;" parent="1" vertex="1">
          <mxGeometry x="425" y="545" width="30" height="30" as="geometry" />
        </mxCell>
        <mxCell id="y4Hc1ZKNLRc7zfj0BYFc-11" style="edgeStyle=orthogonalEdgeStyle;rounded=0;orthogonalLoop=1;jettySize=auto;html=1;exitX=1;exitY=0.5;exitDx=0;exitDy=0;entryX=0;entryY=0.5;entryDx=0;entryDy=0;" edge="1" parent="1" source="CFb-FSN92-86_s7JcS4c-97" target="y4Hc1ZKNLRc7zfj0BYFc-6">
          <mxGeometry relative="1" as="geometry" />
        </mxCell>
        <mxCell id="CFb-FSN92-86_s7JcS4c-97" value="" style="ellipse;whiteSpace=wrap;html=1;aspect=fixed;fillColor=#f0a30a;fontColor=#000000;strokeColor=#BD7000;" parent="1" vertex="1">
          <mxGeometry x="425" y="595" width="30" height="30" as="geometry" />
        </mxCell>
        <mxCell id="y4Hc1ZKNLRc7zfj0BYFc-12" style="edgeStyle=orthogonalEdgeStyle;rounded=0;orthogonalLoop=1;jettySize=auto;html=1;exitX=1;exitY=0.5;exitDx=0;exitDy=0;entryX=0;entryY=0.5;entryDx=0;entryDy=0;" edge="1" parent="1" source="CFb-FSN92-86_s7JcS4c-98" target="y4Hc1ZKNLRc7zfj0BYFc-7">
          <mxGeometry relative="1" as="geometry" />
        </mxCell>
        <mxCell id="CFb-FSN92-86_s7JcS4c-98" value="" style="ellipse;whiteSpace=wrap;html=1;aspect=fixed;fillColor=#f0a30a;fontColor=#000000;strokeColor=#BD7000;" parent="1" vertex="1">
          <mxGeometry x="425" y="645" width="30" height="30" as="geometry" />
        </mxCell>
        <mxCell id="CFb-FSN92-86_s7JcS4c-104" value="" style="endArrow=classic;html=1;rounded=0;exitX=1;exitY=0.5;exitDx=0;exitDy=0;entryX=0;entryY=0.5;entryDx=0;entryDy=0;" parent="1" source="CFb-FSN92-86_s7JcS4c-76" target="CFb-FSN92-86_s7JcS4c-89" edge="1">
          <mxGeometry width="50" height="50" relative="1" as="geometry">
            <mxPoint x="280" y="410" as="sourcePoint" />
            <mxPoint x="330" y="360" as="targetPoint" />
          </mxGeometry>
        </mxCell>
        <mxCell id="CFb-FSN92-86_s7JcS4c-105" value="" style="endArrow=classic;html=1;rounded=0;exitX=1;exitY=0.5;exitDx=0;exitDy=0;entryX=0;entryY=0.5;entryDx=0;entryDy=0;" parent="1" source="CFb-FSN92-86_s7JcS4c-76" target="CFb-FSN92-86_s7JcS4c-93" edge="1">
          <mxGeometry width="50" height="50" relative="1" as="geometry">
            <mxPoint x="295" y="330" as="sourcePoint" />
            <mxPoint x="375" y="440" as="targetPoint" />
          </mxGeometry>
        </mxCell>
        <mxCell id="CFb-FSN92-86_s7JcS4c-106" value="" style="endArrow=classic;html=1;rounded=0;exitX=1;exitY=0.5;exitDx=0;exitDy=0;entryX=0;entryY=0.5;entryDx=0;entryDy=0;" parent="1" source="CFb-FSN92-86_s7JcS4c-76" target="CFb-FSN92-86_s7JcS4c-94" edge="1">
          <mxGeometry width="50" height="50" relative="1" as="geometry">
            <mxPoint x="330" y="330" as="sourcePoint" />
            <mxPoint x="410" y="440" as="targetPoint" />
          </mxGeometry>
        </mxCell>
        <mxCell id="CFb-FSN92-86_s7JcS4c-108" value="" style="endArrow=classic;html=1;rounded=0;exitX=1;exitY=0.5;exitDx=0;exitDy=0;entryX=0;entryY=0.5;entryDx=0;entryDy=0;" parent="1" source="CFb-FSN92-86_s7JcS4c-76" target="CFb-FSN92-86_s7JcS4c-90" edge="1">
          <mxGeometry width="50" height="50" relative="1" as="geometry">
            <mxPoint x="290" y="370" as="sourcePoint" />
            <mxPoint x="370" y="480" as="targetPoint" />
          </mxGeometry>
        </mxCell>
        <mxCell id="CFb-FSN92-86_s7JcS4c-109" value="" style="endArrow=classic;html=1;rounded=0;exitX=1;exitY=0.5;exitDx=0;exitDy=0;entryX=0;entryY=0.5;entryDx=0;entryDy=0;" parent="1" source="CFb-FSN92-86_s7JcS4c-76" target="CFb-FSN92-86_s7JcS4c-91" edge="1">
          <mxGeometry width="50" height="50" relative="1" as="geometry">
            <mxPoint x="300" y="360" as="sourcePoint" />
            <mxPoint x="380" y="470" as="targetPoint" />
          </mxGeometry>
        </mxCell>
        <mxCell id="CFb-FSN92-86_s7JcS4c-110" value="" style="endArrow=classic;html=1;rounded=0;exitX=1;exitY=0.5;exitDx=0;exitDy=0;entryX=0;entryY=0.5;entryDx=0;entryDy=0;" parent="1" source="CFb-FSN92-86_s7JcS4c-76" target="CFb-FSN92-86_s7JcS4c-92" edge="1">
          <mxGeometry width="50" height="50" relative="1" as="geometry">
            <mxPoint x="340" y="370" as="sourcePoint" />
            <mxPoint x="420" y="480" as="targetPoint" />
          </mxGeometry>
        </mxCell>
        <mxCell id="CFb-FSN92-86_s7JcS4c-133" value="" style="endArrow=classic;html=1;rounded=0;exitX=1;exitY=0.5;exitDx=0;exitDy=0;entryX=0;entryY=0.5;entryDx=0;entryDy=0;" parent="1" edge="1">
          <mxGeometry width="50" height="50" relative="1" as="geometry">
            <mxPoint x="240" y="495" as="sourcePoint" />
            <mxPoint x="320" y="605" as="targetPoint" />
          </mxGeometry>
        </mxCell>
        <mxCell id="CFb-FSN92-86_s7JcS4c-134" value="" style="endArrow=classic;html=1;rounded=0;exitX=1;exitY=0.5;exitDx=0;exitDy=0;entryX=0;entryY=0.5;entryDx=0;entryDy=0;" parent="1" target="CFb-FSN92-86_s7JcS4c-90" edge="1">
          <mxGeometry width="50" height="50" relative="1" as="geometry">
            <mxPoint x="240" y="495" as="sourcePoint" />
            <mxPoint x="320" y="805" as="targetPoint" />
          </mxGeometry>
        </mxCell>
        <mxCell id="CFb-FSN92-86_s7JcS4c-135" value="" style="endArrow=classic;html=1;rounded=0;exitX=1;exitY=0.5;exitDx=0;exitDy=0;entryX=0;entryY=0.5;entryDx=0;entryDy=0;" parent="1" target="CFb-FSN92-86_s7JcS4c-91" edge="1">
          <mxGeometry width="50" height="50" relative="1" as="geometry">
            <mxPoint x="240" y="495" as="sourcePoint" />
            <mxPoint x="320" y="855" as="targetPoint" />
          </mxGeometry>
        </mxCell>
        <mxCell id="CFb-FSN92-86_s7JcS4c-136" value="" style="endArrow=classic;html=1;rounded=0;exitX=1;exitY=0.5;exitDx=0;exitDy=0;entryX=0;entryY=0.5;entryDx=0;entryDy=0;" parent="1" edge="1">
          <mxGeometry width="50" height="50" relative="1" as="geometry">
            <mxPoint x="240" y="495" as="sourcePoint" />
            <mxPoint x="320" y="655" as="targetPoint" />
          </mxGeometry>
        </mxCell>
        <mxCell id="CFb-FSN92-86_s7JcS4c-137" value="" style="endArrow=classic;html=1;rounded=0;exitX=1;exitY=0.5;exitDx=0;exitDy=0;entryX=0;entryY=0.5;entryDx=0;entryDy=0;" parent="1" edge="1">
          <mxGeometry width="50" height="50" relative="1" as="geometry">
            <mxPoint x="240" y="495" as="sourcePoint" />
            <mxPoint x="320" y="705" as="targetPoint" />
          </mxGeometry>
        </mxCell>
        <mxCell id="CFb-FSN92-86_s7JcS4c-138" value="" style="endArrow=classic;html=1;rounded=0;exitX=1;exitY=0.5;exitDx=0;exitDy=0;entryX=0;entryY=0.5;entryDx=0;entryDy=0;" parent="1" target="CFb-FSN92-86_s7JcS4c-89" edge="1">
          <mxGeometry width="50" height="50" relative="1" as="geometry">
            <mxPoint x="240" y="495" as="sourcePoint" />
            <mxPoint x="320" y="755" as="targetPoint" />
          </mxGeometry>
        </mxCell>
        <mxCell id="CFb-FSN92-86_s7JcS4c-139" value="" style="endArrow=classic;html=1;rounded=0;exitX=1;exitY=0.5;exitDx=0;exitDy=0;entryX=0;entryY=0.5;entryDx=0;entryDy=0;" parent="1" edge="1">
          <mxGeometry width="50" height="50" relative="1" as="geometry">
            <mxPoint x="240" y="545" as="sourcePoint" />
            <mxPoint x="320" y="655" as="targetPoint" />
          </mxGeometry>
        </mxCell>
        <mxCell id="CFb-FSN92-86_s7JcS4c-140" value="" style="endArrow=classic;html=1;rounded=0;exitX=1;exitY=0.5;exitDx=0;exitDy=0;entryX=0;entryY=0.5;entryDx=0;entryDy=0;" parent="1" target="CFb-FSN92-86_s7JcS4c-94" edge="1">
          <mxGeometry width="50" height="50" relative="1" as="geometry">
            <mxPoint x="240" y="545" as="sourcePoint" />
            <mxPoint x="320" y="855" as="targetPoint" />
          </mxGeometry>
        </mxCell>
        <mxCell id="CFb-FSN92-86_s7JcS4c-141" value="" style="endArrow=classic;html=1;rounded=0;exitX=1;exitY=0.5;exitDx=0;exitDy=0;entryX=0;entryY=0.5;entryDx=0;entryDy=0;" parent="1" target="CFb-FSN92-86_s7JcS4c-91" edge="1">
          <mxGeometry width="50" height="50" relative="1" as="geometry">
            <mxPoint x="240" y="545" as="sourcePoint" />
            <mxPoint x="320" y="905" as="targetPoint" />
          </mxGeometry>
        </mxCell>
        <mxCell id="CFb-FSN92-86_s7JcS4c-142" value="" style="endArrow=classic;html=1;rounded=0;exitX=1;exitY=0.5;exitDx=0;exitDy=0;entryX=0;entryY=0.5;entryDx=0;entryDy=0;" parent="1" edge="1">
          <mxGeometry width="50" height="50" relative="1" as="geometry">
            <mxPoint x="240" y="545" as="sourcePoint" />
            <mxPoint x="320" y="705" as="targetPoint" />
          </mxGeometry>
        </mxCell>
        <mxCell id="CFb-FSN92-86_s7JcS4c-143" value="" style="endArrow=classic;html=1;rounded=0;exitX=1;exitY=0.5;exitDx=0;exitDy=0;entryX=0;entryY=0.5;entryDx=0;entryDy=0;" parent="1" target="CFb-FSN92-86_s7JcS4c-89" edge="1">
          <mxGeometry width="50" height="50" relative="1" as="geometry">
            <mxPoint x="240" y="545" as="sourcePoint" />
            <mxPoint x="320" y="755" as="targetPoint" />
          </mxGeometry>
        </mxCell>
        <mxCell id="CFb-FSN92-86_s7JcS4c-144" value="" style="endArrow=classic;html=1;rounded=0;exitX=1;exitY=0.5;exitDx=0;exitDy=0;entryX=0;entryY=0.5;entryDx=0;entryDy=0;" parent="1" target="CFb-FSN92-86_s7JcS4c-90" edge="1">
          <mxGeometry width="50" height="50" relative="1" as="geometry">
            <mxPoint x="240" y="545" as="sourcePoint" />
            <mxPoint x="320" y="805" as="targetPoint" />
          </mxGeometry>
        </mxCell>
        <mxCell id="CFb-FSN92-86_s7JcS4c-145" value="" style="endArrow=classic;html=1;rounded=0;exitX=1;exitY=0.5;exitDx=0;exitDy=0;entryX=0;entryY=0.5;entryDx=0;entryDy=0;" parent="1" edge="1">
          <mxGeometry width="50" height="50" relative="1" as="geometry">
            <mxPoint x="240" y="595" as="sourcePoint" />
            <mxPoint x="320" y="705" as="targetPoint" />
          </mxGeometry>
        </mxCell>
        <mxCell id="CFb-FSN92-86_s7JcS4c-146" value="" style="endArrow=classic;html=1;rounded=0;exitX=1;exitY=0.5;exitDx=0;exitDy=0;entryX=0;entryY=0.5;entryDx=0;entryDy=0;" parent="1" target="CFb-FSN92-86_s7JcS4c-93" edge="1">
          <mxGeometry width="50" height="50" relative="1" as="geometry">
            <mxPoint x="240" y="595" as="sourcePoint" />
            <mxPoint x="320" y="905" as="targetPoint" />
          </mxGeometry>
        </mxCell>
        <mxCell id="CFb-FSN92-86_s7JcS4c-147" value="" style="endArrow=classic;html=1;rounded=0;exitX=1;exitY=0.5;exitDx=0;exitDy=0;entryX=0;entryY=0.5;entryDx=0;entryDy=0;" parent="1" target="CFb-FSN92-86_s7JcS4c-94" edge="1">
          <mxGeometry width="50" height="50" relative="1" as="geometry">
            <mxPoint x="240" y="595" as="sourcePoint" />
            <mxPoint x="320" y="955" as="targetPoint" />
          </mxGeometry>
        </mxCell>
        <mxCell id="CFb-FSN92-86_s7JcS4c-148" value="" style="endArrow=classic;html=1;rounded=0;exitX=1;exitY=0.5;exitDx=0;exitDy=0;entryX=0;entryY=0.5;entryDx=0;entryDy=0;" parent="1" target="CFb-FSN92-86_s7JcS4c-89" edge="1">
          <mxGeometry width="50" height="50" relative="1" as="geometry">
            <mxPoint x="240" y="595" as="sourcePoint" />
            <mxPoint x="320" y="755" as="targetPoint" />
          </mxGeometry>
        </mxCell>
        <mxCell id="CFb-FSN92-86_s7JcS4c-149" value="" style="endArrow=classic;html=1;rounded=0;exitX=1;exitY=0.5;exitDx=0;exitDy=0;entryX=0;entryY=0.5;entryDx=0;entryDy=0;" parent="1" target="CFb-FSN92-86_s7JcS4c-90" edge="1">
          <mxGeometry width="50" height="50" relative="1" as="geometry">
            <mxPoint x="240" y="595" as="sourcePoint" />
            <mxPoint x="320" y="805" as="targetPoint" />
          </mxGeometry>
        </mxCell>
        <mxCell id="CFb-FSN92-86_s7JcS4c-150" value="" style="endArrow=classic;html=1;rounded=0;exitX=1;exitY=0.5;exitDx=0;exitDy=0;entryX=0;entryY=0.5;entryDx=0;entryDy=0;" parent="1" target="CFb-FSN92-86_s7JcS4c-92" edge="1">
          <mxGeometry width="50" height="50" relative="1" as="geometry">
            <mxPoint x="240" y="595" as="sourcePoint" />
            <mxPoint x="320" y="855" as="targetPoint" />
          </mxGeometry>
        </mxCell>
        <mxCell id="CFb-FSN92-86_s7JcS4c-151" value="" style="endArrow=classic;html=1;rounded=0;exitX=1;exitY=0.5;exitDx=0;exitDy=0;entryX=0;entryY=0.5;entryDx=0;entryDy=0;" parent="1" target="CFb-FSN92-86_s7JcS4c-89" edge="1">
          <mxGeometry width="50" height="50" relative="1" as="geometry">
            <mxPoint x="240" y="645" as="sourcePoint" />
            <mxPoint x="320" y="755" as="targetPoint" />
          </mxGeometry>
        </mxCell>
        <mxCell id="CFb-FSN92-86_s7JcS4c-152" value="" style="endArrow=classic;html=1;rounded=0;exitX=1;exitY=0.5;exitDx=0;exitDy=0;entryX=0;entryY=0.5;entryDx=0;entryDy=0;" parent="1" target="CFb-FSN92-86_s7JcS4c-94" edge="1">
          <mxGeometry width="50" height="50" relative="1" as="geometry">
            <mxPoint x="240" y="645" as="sourcePoint" />
            <mxPoint x="320" y="955" as="targetPoint" />
          </mxGeometry>
        </mxCell>
        <mxCell id="CFb-FSN92-86_s7JcS4c-153" value="" style="endArrow=classic;html=1;rounded=0;exitX=1;exitY=0.5;exitDx=0;exitDy=0;entryX=0;entryY=0.5;entryDx=0;entryDy=0;" parent="1" target="CFb-FSN92-86_s7JcS4c-93" edge="1">
          <mxGeometry width="50" height="50" relative="1" as="geometry">
            <mxPoint x="240" y="645" as="sourcePoint" />
            <mxPoint x="320" y="1005" as="targetPoint" />
          </mxGeometry>
        </mxCell>
        <mxCell id="CFb-FSN92-86_s7JcS4c-154" value="" style="endArrow=classic;html=1;rounded=0;exitX=1;exitY=0.5;exitDx=0;exitDy=0;entryX=0;entryY=0.5;entryDx=0;entryDy=0;" parent="1" target="CFb-FSN92-86_s7JcS4c-90" edge="1">
          <mxGeometry width="50" height="50" relative="1" as="geometry">
            <mxPoint x="240" y="645" as="sourcePoint" />
            <mxPoint x="320" y="805" as="targetPoint" />
          </mxGeometry>
        </mxCell>
        <mxCell id="CFb-FSN92-86_s7JcS4c-155" value="" style="endArrow=classic;html=1;rounded=0;exitX=1;exitY=0.5;exitDx=0;exitDy=0;entryX=0;entryY=0.5;entryDx=0;entryDy=0;" parent="1" target="CFb-FSN92-86_s7JcS4c-91" edge="1">
          <mxGeometry width="50" height="50" relative="1" as="geometry">
            <mxPoint x="240" y="645" as="sourcePoint" />
            <mxPoint x="320" y="855" as="targetPoint" />
          </mxGeometry>
        </mxCell>
        <mxCell id="CFb-FSN92-86_s7JcS4c-156" value="" style="endArrow=classic;html=1;rounded=0;exitX=1;exitY=0.5;exitDx=0;exitDy=0;entryX=0;entryY=0.5;entryDx=0;entryDy=0;" parent="1" target="CFb-FSN92-86_s7JcS4c-92" edge="1">
          <mxGeometry width="50" height="50" relative="1" as="geometry">
            <mxPoint x="240" y="645" as="sourcePoint" />
            <mxPoint x="320" y="905" as="targetPoint" />
          </mxGeometry>
        </mxCell>
        <mxCell id="CFb-FSN92-86_s7JcS4c-127" value="" style="endArrow=classic;html=1;rounded=0;exitX=1;exitY=0.5;exitDx=0;exitDy=0;entryX=0;entryY=0.5;entryDx=0;entryDy=0;" parent="1" edge="1">
          <mxGeometry width="50" height="50" relative="1" as="geometry">
            <mxPoint x="240" y="393" as="sourcePoint" />
            <mxPoint x="320" y="503" as="targetPoint" />
          </mxGeometry>
        </mxCell>
        <mxCell id="CFb-FSN92-86_s7JcS4c-128" value="" style="endArrow=classic;html=1;rounded=0;exitX=1;exitY=0.5;exitDx=0;exitDy=0;entryX=0;entryY=0.5;entryDx=0;entryDy=0;" parent="1" edge="1">
          <mxGeometry width="50" height="50" relative="1" as="geometry">
            <mxPoint x="240" y="393" as="sourcePoint" />
            <mxPoint x="320" y="703" as="targetPoint" />
          </mxGeometry>
        </mxCell>
        <mxCell id="CFb-FSN92-86_s7JcS4c-129" value="" style="endArrow=classic;html=1;rounded=0;exitX=1;exitY=0.5;exitDx=0;exitDy=0;entryX=0;entryY=0.5;entryDx=0;entryDy=0;" parent="1" target="CFb-FSN92-86_s7JcS4c-89" edge="1">
          <mxGeometry width="50" height="50" relative="1" as="geometry">
            <mxPoint x="240" y="393" as="sourcePoint" />
            <mxPoint x="320" y="753" as="targetPoint" />
          </mxGeometry>
        </mxCell>
        <mxCell id="CFb-FSN92-86_s7JcS4c-130" value="" style="endArrow=classic;html=1;rounded=0;exitX=1;exitY=0.5;exitDx=0;exitDy=0;entryX=0;entryY=0.5;entryDx=0;entryDy=0;" parent="1" edge="1">
          <mxGeometry width="50" height="50" relative="1" as="geometry">
            <mxPoint x="240" y="393" as="sourcePoint" />
            <mxPoint x="320" y="553" as="targetPoint" />
          </mxGeometry>
        </mxCell>
        <mxCell id="CFb-FSN92-86_s7JcS4c-131" value="" style="endArrow=classic;html=1;rounded=0;exitX=1;exitY=0.5;exitDx=0;exitDy=0;entryX=0;entryY=0.5;entryDx=0;entryDy=0;" parent="1" edge="1">
          <mxGeometry width="50" height="50" relative="1" as="geometry">
            <mxPoint x="240" y="393" as="sourcePoint" />
            <mxPoint x="320" y="603" as="targetPoint" />
          </mxGeometry>
        </mxCell>
        <mxCell id="CFb-FSN92-86_s7JcS4c-132" value="" style="endArrow=classic;html=1;rounded=0;exitX=1;exitY=0.5;exitDx=0;exitDy=0;entryX=0;entryY=0.5;entryDx=0;entryDy=0;" parent="1" edge="1">
          <mxGeometry width="50" height="50" relative="1" as="geometry">
            <mxPoint x="240" y="393" as="sourcePoint" />
            <mxPoint x="320" y="653" as="targetPoint" />
          </mxGeometry>
        </mxCell>
        <mxCell id="CFb-FSN92-86_s7JcS4c-121" value="" style="endArrow=classic;html=1;rounded=0;exitX=1;exitY=0.5;exitDx=0;exitDy=0;entryX=0;entryY=0.5;entryDx=0;entryDy=0;" parent="1" edge="1">
          <mxGeometry width="50" height="50" relative="1" as="geometry">
            <mxPoint x="240" y="444" as="sourcePoint" />
            <mxPoint x="320" y="554" as="targetPoint" />
          </mxGeometry>
        </mxCell>
        <mxCell id="CFb-FSN92-86_s7JcS4c-122" value="" style="endArrow=classic;html=1;rounded=0;exitX=1;exitY=0.5;exitDx=0;exitDy=0;entryX=0;entryY=0.5;entryDx=0;entryDy=0;" parent="1" target="CFb-FSN92-86_s7JcS4c-89" edge="1">
          <mxGeometry width="50" height="50" relative="1" as="geometry">
            <mxPoint x="240" y="444" as="sourcePoint" />
            <mxPoint x="320" y="754" as="targetPoint" />
          </mxGeometry>
        </mxCell>
        <mxCell id="CFb-FSN92-86_s7JcS4c-123" value="" style="endArrow=classic;html=1;rounded=0;exitX=1;exitY=0.5;exitDx=0;exitDy=0;entryX=0;entryY=0.5;entryDx=0;entryDy=0;" parent="1" target="CFb-FSN92-86_s7JcS4c-90" edge="1">
          <mxGeometry width="50" height="50" relative="1" as="geometry">
            <mxPoint x="240" y="444" as="sourcePoint" />
            <mxPoint x="320" y="804" as="targetPoint" />
          </mxGeometry>
        </mxCell>
        <mxCell id="CFb-FSN92-86_s7JcS4c-124" value="" style="endArrow=classic;html=1;rounded=0;exitX=1;exitY=0.5;exitDx=0;exitDy=0;entryX=0;entryY=0.5;entryDx=0;entryDy=0;" parent="1" edge="1">
          <mxGeometry width="50" height="50" relative="1" as="geometry">
            <mxPoint x="240" y="444" as="sourcePoint" />
            <mxPoint x="320" y="604" as="targetPoint" />
          </mxGeometry>
        </mxCell>
        <mxCell id="CFb-FSN92-86_s7JcS4c-125" value="" style="endArrow=classic;html=1;rounded=0;exitX=1;exitY=0.5;exitDx=0;exitDy=0;entryX=0;entryY=0.5;entryDx=0;entryDy=0;" parent="1" edge="1">
          <mxGeometry width="50" height="50" relative="1" as="geometry">
            <mxPoint x="240" y="444" as="sourcePoint" />
            <mxPoint x="320" y="654" as="targetPoint" />
          </mxGeometry>
        </mxCell>
        <mxCell id="CFb-FSN92-86_s7JcS4c-126" value="" style="endArrow=classic;html=1;rounded=0;exitX=1;exitY=0.5;exitDx=0;exitDy=0;entryX=0;entryY=0.5;entryDx=0;entryDy=0;" parent="1" edge="1">
          <mxGeometry width="50" height="50" relative="1" as="geometry">
            <mxPoint x="240" y="444" as="sourcePoint" />
            <mxPoint x="320" y="704" as="targetPoint" />
          </mxGeometry>
        </mxCell>
        <mxCell id="CFb-FSN92-86_s7JcS4c-157" value="" style="endArrow=classic;html=1;rounded=0;exitX=1;exitY=0.5;exitDx=0;exitDy=0;entryX=0;entryY=0.5;entryDx=0;entryDy=0;" parent="1" target="CFb-FSN92-86_s7JcS4c-89" edge="1">
          <mxGeometry width="50" height="50" relative="1" as="geometry">
            <mxPoint x="240" y="695" as="sourcePoint" />
            <mxPoint x="320" y="805" as="targetPoint" />
          </mxGeometry>
        </mxCell>
        <mxCell id="CFb-FSN92-86_s7JcS4c-158" value="" style="endArrow=classic;html=1;rounded=0;exitX=1;exitY=0.5;exitDx=0;exitDy=0;entryX=0;entryY=0.5;entryDx=0;entryDy=0;" parent="1" target="CFb-FSN92-86_s7JcS4c-93" edge="1">
          <mxGeometry width="50" height="50" relative="1" as="geometry">
            <mxPoint x="240" y="695" as="sourcePoint" />
            <mxPoint x="320" y="1005" as="targetPoint" />
          </mxGeometry>
        </mxCell>
        <mxCell id="CFb-FSN92-86_s7JcS4c-159" value="" style="endArrow=classic;html=1;rounded=0;exitX=1;exitY=0.5;exitDx=0;exitDy=0;entryX=0;entryY=0.5;entryDx=0;entryDy=0;" parent="1" target="CFb-FSN92-86_s7JcS4c-94" edge="1">
          <mxGeometry width="50" height="50" relative="1" as="geometry">
            <mxPoint x="240" y="695" as="sourcePoint" />
            <mxPoint x="320" y="1055" as="targetPoint" />
          </mxGeometry>
        </mxCell>
        <mxCell id="CFb-FSN92-86_s7JcS4c-160" value="" style="endArrow=classic;html=1;rounded=0;exitX=1;exitY=0.5;exitDx=0;exitDy=0;entryX=0;entryY=0.5;entryDx=0;entryDy=0;" parent="1" target="CFb-FSN92-86_s7JcS4c-91" edge="1">
          <mxGeometry width="50" height="50" relative="1" as="geometry">
            <mxPoint x="240" y="695" as="sourcePoint" />
            <mxPoint x="320" y="855" as="targetPoint" />
          </mxGeometry>
        </mxCell>
        <mxCell id="CFb-FSN92-86_s7JcS4c-161" value="" style="endArrow=classic;html=1;rounded=0;exitX=1;exitY=0.5;exitDx=0;exitDy=0;entryX=0;entryY=0.5;entryDx=0;entryDy=0;" parent="1" target="CFb-FSN92-86_s7JcS4c-90" edge="1">
          <mxGeometry width="50" height="50" relative="1" as="geometry">
            <mxPoint x="240" y="695" as="sourcePoint" />
            <mxPoint x="320" y="905" as="targetPoint" />
          </mxGeometry>
        </mxCell>
        <mxCell id="CFb-FSN92-86_s7JcS4c-162" value="" style="endArrow=classic;html=1;rounded=0;exitX=1;exitY=0.5;exitDx=0;exitDy=0;entryX=0;entryY=0.5;entryDx=0;entryDy=0;" parent="1" target="CFb-FSN92-86_s7JcS4c-92" edge="1">
          <mxGeometry width="50" height="50" relative="1" as="geometry">
            <mxPoint x="240" y="695" as="sourcePoint" />
            <mxPoint x="320" y="955" as="targetPoint" />
          </mxGeometry>
        </mxCell>
        <mxCell id="CFb-FSN92-86_s7JcS4c-163" value="" style="endArrow=classic;html=1;rounded=0;exitX=1;exitY=0.5;exitDx=0;exitDy=0;entryX=0;entryY=0.5;entryDx=0;entryDy=0;" parent="1" target="CFb-FSN92-86_s7JcS4c-89" edge="1">
          <mxGeometry width="50" height="50" relative="1" as="geometry">
            <mxPoint x="240" y="744" as="sourcePoint" />
            <mxPoint x="320" y="854" as="targetPoint" />
          </mxGeometry>
        </mxCell>
        <mxCell id="CFb-FSN92-86_s7JcS4c-164" value="" style="endArrow=classic;html=1;rounded=0;exitX=1;exitY=0.5;exitDx=0;exitDy=0;entryX=0;entryY=0.5;entryDx=0;entryDy=0;" parent="1" target="CFb-FSN92-86_s7JcS4c-94" edge="1">
          <mxGeometry width="50" height="50" relative="1" as="geometry">
            <mxPoint x="240" y="744" as="sourcePoint" />
            <mxPoint x="320" y="1054" as="targetPoint" />
          </mxGeometry>
        </mxCell>
        <mxCell id="CFb-FSN92-86_s7JcS4c-165" value="" style="endArrow=classic;html=1;rounded=0;exitX=1;exitY=0.5;exitDx=0;exitDy=0;entryX=0;entryY=0.5;entryDx=0;entryDy=0;" parent="1" target="CFb-FSN92-86_s7JcS4c-93" edge="1">
          <mxGeometry width="50" height="50" relative="1" as="geometry">
            <mxPoint x="240" y="744" as="sourcePoint" />
            <mxPoint x="320" y="1104" as="targetPoint" />
          </mxGeometry>
        </mxCell>
        <mxCell id="CFb-FSN92-86_s7JcS4c-166" value="" style="endArrow=classic;html=1;rounded=0;exitX=1;exitY=0.5;exitDx=0;exitDy=0;entryX=0;entryY=0.5;entryDx=0;entryDy=0;" parent="1" target="CFb-FSN92-86_s7JcS4c-90" edge="1">
          <mxGeometry width="50" height="50" relative="1" as="geometry">
            <mxPoint x="240" y="744" as="sourcePoint" />
            <mxPoint x="320" y="904" as="targetPoint" />
          </mxGeometry>
        </mxCell>
        <mxCell id="CFb-FSN92-86_s7JcS4c-167" value="" style="endArrow=classic;html=1;rounded=0;exitX=1;exitY=0.5;exitDx=0;exitDy=0;entryX=0;entryY=0.5;entryDx=0;entryDy=0;" parent="1" target="CFb-FSN92-86_s7JcS4c-91" edge="1">
          <mxGeometry width="50" height="50" relative="1" as="geometry">
            <mxPoint x="240" y="744" as="sourcePoint" />
            <mxPoint x="320" y="954" as="targetPoint" />
          </mxGeometry>
        </mxCell>
        <mxCell id="CFb-FSN92-86_s7JcS4c-168" value="" style="endArrow=classic;html=1;rounded=0;exitX=1;exitY=0.5;exitDx=0;exitDy=0;entryX=0;entryY=0.5;entryDx=0;entryDy=0;" parent="1" target="CFb-FSN92-86_s7JcS4c-92" edge="1">
          <mxGeometry width="50" height="50" relative="1" as="geometry">
            <mxPoint x="240" y="744" as="sourcePoint" />
            <mxPoint x="320" y="1004" as="targetPoint" />
          </mxGeometry>
        </mxCell>
        <mxCell id="CFb-FSN92-86_s7JcS4c-169" value="" style="endArrow=classic;html=1;rounded=0;exitX=1;exitY=0.5;exitDx=0;exitDy=0;entryX=0;entryY=0.5;entryDx=0;entryDy=0;" parent="1" target="CFb-FSN92-86_s7JcS4c-89" edge="1">
          <mxGeometry width="50" height="50" relative="1" as="geometry">
            <mxPoint x="240" y="790" as="sourcePoint" />
            <mxPoint x="320" y="900" as="targetPoint" />
          </mxGeometry>
        </mxCell>
        <mxCell id="CFb-FSN92-86_s7JcS4c-170" value="" style="endArrow=classic;html=1;rounded=0;exitX=1;exitY=0.5;exitDx=0;exitDy=0;entryX=0;entryY=0.5;entryDx=0;entryDy=0;" parent="1" target="CFb-FSN92-86_s7JcS4c-94" edge="1">
          <mxGeometry width="50" height="50" relative="1" as="geometry">
            <mxPoint x="240" y="790" as="sourcePoint" />
            <mxPoint x="320" y="1100" as="targetPoint" />
          </mxGeometry>
        </mxCell>
        <mxCell id="CFb-FSN92-86_s7JcS4c-171" value="" style="endArrow=classic;html=1;rounded=0;exitX=1;exitY=0.5;exitDx=0;exitDy=0;entryX=0;entryY=0.5;entryDx=0;entryDy=0;" parent="1" target="CFb-FSN92-86_s7JcS4c-93" edge="1">
          <mxGeometry width="50" height="50" relative="1" as="geometry">
            <mxPoint x="240" y="790" as="sourcePoint" />
            <mxPoint x="320" y="1150" as="targetPoint" />
          </mxGeometry>
        </mxCell>
        <mxCell id="CFb-FSN92-86_s7JcS4c-172" value="" style="endArrow=classic;html=1;rounded=0;exitX=1;exitY=0.5;exitDx=0;exitDy=0;entryX=0;entryY=0.5;entryDx=0;entryDy=0;" parent="1" target="CFb-FSN92-86_s7JcS4c-90" edge="1">
          <mxGeometry width="50" height="50" relative="1" as="geometry">
            <mxPoint x="240" y="790" as="sourcePoint" />
            <mxPoint x="320" y="950" as="targetPoint" />
          </mxGeometry>
        </mxCell>
        <mxCell id="CFb-FSN92-86_s7JcS4c-173" value="" style="endArrow=classic;html=1;rounded=0;exitX=1;exitY=0.5;exitDx=0;exitDy=0;entryX=0;entryY=0.5;entryDx=0;entryDy=0;" parent="1" target="CFb-FSN92-86_s7JcS4c-91" edge="1">
          <mxGeometry width="50" height="50" relative="1" as="geometry">
            <mxPoint x="240" y="790" as="sourcePoint" />
            <mxPoint x="320" y="1000" as="targetPoint" />
          </mxGeometry>
        </mxCell>
        <mxCell id="CFb-FSN92-86_s7JcS4c-174" value="" style="endArrow=classic;html=1;rounded=0;exitX=1;exitY=0.5;exitDx=0;exitDy=0;entryX=0;entryY=0.5;entryDx=0;entryDy=0;" parent="1" target="CFb-FSN92-86_s7JcS4c-92" edge="1">
          <mxGeometry width="50" height="50" relative="1" as="geometry">
            <mxPoint x="240" y="790" as="sourcePoint" />
            <mxPoint x="320" y="1050" as="targetPoint" />
          </mxGeometry>
        </mxCell>
        <mxCell id="CFb-FSN92-86_s7JcS4c-186" value="" style="endArrow=classic;html=1;rounded=0;exitX=1;exitY=0.5;exitDx=0;exitDy=0;entryX=0;entryY=0.5;entryDx=0;entryDy=0;" parent="1" edge="1">
          <mxGeometry width="50" height="50" relative="1" as="geometry">
            <mxPoint x="350" y="506" as="sourcePoint" />
            <mxPoint x="430" y="616" as="targetPoint" />
          </mxGeometry>
        </mxCell>
        <mxCell id="CFb-FSN92-86_s7JcS4c-187" value="" style="endArrow=classic;html=1;rounded=0;exitX=1;exitY=0.5;exitDx=0;exitDy=0;entryX=0;entryY=0.5;entryDx=0;entryDy=0;" parent="1" edge="1">
          <mxGeometry width="50" height="50" relative="1" as="geometry">
            <mxPoint x="350" y="506" as="sourcePoint" />
            <mxPoint x="430" y="516" as="targetPoint" />
          </mxGeometry>
        </mxCell>
        <mxCell id="CFb-FSN92-86_s7JcS4c-188" value="" style="endArrow=classic;html=1;rounded=0;exitX=1;exitY=0.5;exitDx=0;exitDy=0;entryX=0;entryY=0.5;entryDx=0;entryDy=0;" parent="1" edge="1">
          <mxGeometry width="50" height="50" relative="1" as="geometry">
            <mxPoint x="350" y="506" as="sourcePoint" />
            <mxPoint x="430" y="566" as="targetPoint" />
          </mxGeometry>
        </mxCell>
        <mxCell id="CFb-FSN92-86_s7JcS4c-189" value="" style="endArrow=classic;html=1;rounded=0;exitX=1;exitY=0.5;exitDx=0;exitDy=0;entryX=0;entryY=0.5;entryDx=0;entryDy=0;" parent="1" edge="1">
          <mxGeometry width="50" height="50" relative="1" as="geometry">
            <mxPoint x="350" y="506" as="sourcePoint" />
            <mxPoint x="430" y="666" as="targetPoint" />
          </mxGeometry>
        </mxCell>
        <mxCell id="CFb-FSN92-86_s7JcS4c-192" value="" style="endArrow=classic;html=1;rounded=0;exitX=1;exitY=0.5;exitDx=0;exitDy=0;entryX=0;entryY=0.5;entryDx=0;entryDy=0;" parent="1" edge="1">
          <mxGeometry width="50" height="50" relative="1" as="geometry">
            <mxPoint x="350" y="556" as="sourcePoint" />
            <mxPoint x="430" y="666" as="targetPoint" />
          </mxGeometry>
        </mxCell>
        <mxCell id="CFb-FSN92-86_s7JcS4c-194" value="" style="endArrow=classic;html=1;rounded=0;exitX=1;exitY=0.5;exitDx=0;exitDy=0;entryX=0;entryY=0.5;entryDx=0;entryDy=0;" parent="1" edge="1">
          <mxGeometry width="50" height="50" relative="1" as="geometry">
            <mxPoint x="350" y="556" as="sourcePoint" />
            <mxPoint x="430" y="566" as="targetPoint" />
          </mxGeometry>
        </mxCell>
        <mxCell id="CFb-FSN92-86_s7JcS4c-197" value="" style="endArrow=classic;html=1;rounded=0;exitX=1;exitY=0.5;exitDx=0;exitDy=0;entryX=0;entryY=0.5;entryDx=0;entryDy=0;" parent="1" edge="1">
          <mxGeometry width="50" height="50" relative="1" as="geometry">
            <mxPoint x="350" y="556" as="sourcePoint" />
            <mxPoint x="430" y="516" as="targetPoint" />
          </mxGeometry>
        </mxCell>
        <mxCell id="CFb-FSN92-86_s7JcS4c-199" value="" style="endArrow=classic;html=1;rounded=0;exitX=1;exitY=0.5;exitDx=0;exitDy=0;entryX=0;entryY=0.5;entryDx=0;entryDy=0;" parent="1" edge="1">
          <mxGeometry width="50" height="50" relative="1" as="geometry">
            <mxPoint x="350" y="606" as="sourcePoint" />
            <mxPoint x="430" y="666" as="targetPoint" />
          </mxGeometry>
        </mxCell>
        <mxCell id="CFb-FSN92-86_s7JcS4c-202" value="" style="endArrow=classic;html=1;rounded=0;exitX=1;exitY=0.5;exitDx=0;exitDy=0;entryX=0;entryY=0.5;entryDx=0;entryDy=0;" parent="1" edge="1">
          <mxGeometry width="50" height="50" relative="1" as="geometry">
            <mxPoint x="350" y="606" as="sourcePoint" />
            <mxPoint x="430" y="516" as="targetPoint" />
          </mxGeometry>
        </mxCell>
        <mxCell id="CFb-FSN92-86_s7JcS4c-203" value="" style="endArrow=classic;html=1;rounded=0;exitX=1;exitY=0.5;exitDx=0;exitDy=0;entryX=0;entryY=0.5;entryDx=0;entryDy=0;" parent="1" edge="1">
          <mxGeometry width="50" height="50" relative="1" as="geometry">
            <mxPoint x="350" y="606" as="sourcePoint" />
            <mxPoint x="430" y="616" as="targetPoint" />
          </mxGeometry>
        </mxCell>
        <mxCell id="CFb-FSN92-86_s7JcS4c-206" value="" style="endArrow=classic;html=1;rounded=0;exitX=1;exitY=0.5;exitDx=0;exitDy=0;entryX=0;entryY=0.5;entryDx=0;entryDy=0;" parent="1" edge="1">
          <mxGeometry width="50" height="50" relative="1" as="geometry">
            <mxPoint x="350" y="656" as="sourcePoint" />
            <mxPoint x="430" y="666" as="targetPoint" />
          </mxGeometry>
        </mxCell>
        <mxCell id="CFb-FSN92-86_s7JcS4c-207" value="" style="endArrow=classic;html=1;rounded=0;exitX=1;exitY=0.5;exitDx=0;exitDy=0;entryX=0;entryY=0.5;entryDx=0;entryDy=0;" parent="1" edge="1">
          <mxGeometry width="50" height="50" relative="1" as="geometry">
            <mxPoint x="350" y="656" as="sourcePoint" />
            <mxPoint x="430" y="516" as="targetPoint" />
          </mxGeometry>
        </mxCell>
        <mxCell id="CFb-FSN92-86_s7JcS4c-208" value="" style="endArrow=classic;html=1;rounded=0;exitX=1;exitY=0.5;exitDx=0;exitDy=0;entryX=0;entryY=0.5;entryDx=0;entryDy=0;" parent="1" edge="1">
          <mxGeometry width="50" height="50" relative="1" as="geometry">
            <mxPoint x="350" y="656" as="sourcePoint" />
            <mxPoint x="430" y="566" as="targetPoint" />
          </mxGeometry>
        </mxCell>
        <mxCell id="CFb-FSN92-86_s7JcS4c-209" value="" style="endArrow=classic;html=1;rounded=0;exitX=1;exitY=0.5;exitDx=0;exitDy=0;entryX=0;entryY=0.5;entryDx=0;entryDy=0;" parent="1" edge="1">
          <mxGeometry width="50" height="50" relative="1" as="geometry">
            <mxPoint x="350" y="656" as="sourcePoint" />
            <mxPoint x="430" y="616" as="targetPoint" />
          </mxGeometry>
        </mxCell>
        <mxCell id="CFb-FSN92-86_s7JcS4c-216" value="" style="endArrow=classic;html=1;rounded=0;exitX=1;exitY=0.5;exitDx=0;exitDy=0;entryX=0;entryY=0.5;entryDx=0;entryDy=0;" parent="1" edge="1">
          <mxGeometry width="50" height="50" relative="1" as="geometry">
            <mxPoint x="350" y="455" as="sourcePoint" />
            <mxPoint x="430" y="565" as="targetPoint" />
          </mxGeometry>
        </mxCell>
        <mxCell id="CFb-FSN92-86_s7JcS4c-218" value="" style="endArrow=classic;html=1;rounded=0;exitX=1;exitY=0.5;exitDx=0;exitDy=0;entryX=0;entryY=0.5;entryDx=0;entryDy=0;" parent="1" edge="1">
          <mxGeometry width="50" height="50" relative="1" as="geometry">
            <mxPoint x="350" y="455" as="sourcePoint" />
            <mxPoint x="430" y="516" as="targetPoint" />
          </mxGeometry>
        </mxCell>
        <mxCell id="CFb-FSN92-86_s7JcS4c-219" value="" style="endArrow=classic;html=1;rounded=0;exitX=1;exitY=0.5;exitDx=0;exitDy=0;entryX=0;entryY=0.5;entryDx=0;entryDy=0;" parent="1" edge="1">
          <mxGeometry width="50" height="50" relative="1" as="geometry">
            <mxPoint x="350" y="455" as="sourcePoint" />
            <mxPoint x="430" y="615" as="targetPoint" />
          </mxGeometry>
        </mxCell>
        <mxCell id="CFb-FSN92-86_s7JcS4c-220" value="" style="endArrow=classic;html=1;rounded=0;exitX=1;exitY=0.5;exitDx=0;exitDy=0;entryX=0;entryY=0.5;entryDx=0;entryDy=0;" parent="1" edge="1">
          <mxGeometry width="50" height="50" relative="1" as="geometry">
            <mxPoint x="350" y="455" as="sourcePoint" />
            <mxPoint x="430" y="665" as="targetPoint" />
          </mxGeometry>
        </mxCell>
        <mxCell id="CFb-FSN92-86_s7JcS4c-223" value="" style="endArrow=classic;html=1;rounded=0;exitX=1;exitY=0.5;exitDx=0;exitDy=0;entryX=0;entryY=0.5;entryDx=0;entryDy=0;" parent="1" edge="1">
          <mxGeometry width="50" height="50" relative="1" as="geometry">
            <mxPoint x="350" y="706" as="sourcePoint" />
            <mxPoint x="430" y="666" as="targetPoint" />
          </mxGeometry>
        </mxCell>
        <mxCell id="CFb-FSN92-86_s7JcS4c-225" value="" style="endArrow=classic;html=1;rounded=0;exitX=1;exitY=0.5;exitDx=0;exitDy=0;entryX=0;entryY=0.5;entryDx=0;entryDy=0;" parent="1" edge="1">
          <mxGeometry width="50" height="50" relative="1" as="geometry">
            <mxPoint x="350" y="706" as="sourcePoint" />
            <mxPoint x="430" y="566" as="targetPoint" />
          </mxGeometry>
        </mxCell>
        <mxCell id="CFb-FSN92-86_s7JcS4c-226" value="" style="endArrow=classic;html=1;rounded=0;exitX=1;exitY=0.5;exitDx=0;exitDy=0;entryX=0;entryY=0.5;entryDx=0;entryDy=0;" parent="1" edge="1">
          <mxGeometry width="50" height="50" relative="1" as="geometry">
            <mxPoint x="350" y="706" as="sourcePoint" />
            <mxPoint x="430" y="516" as="targetPoint" />
          </mxGeometry>
        </mxCell>
        <mxCell id="CFb-FSN92-86_s7JcS4c-227" value="" style="endArrow=classic;html=1;rounded=0;exitX=1;exitY=0.5;exitDx=0;exitDy=0;entryX=0;entryY=0.5;entryDx=0;entryDy=0;" parent="1" edge="1">
          <mxGeometry width="50" height="50" relative="1" as="geometry">
            <mxPoint x="350" y="706" as="sourcePoint" />
            <mxPoint x="430" y="616" as="targetPoint" />
          </mxGeometry>
        </mxCell>
        <mxCell id="CFb-FSN92-86_s7JcS4c-300" value="" style="shape=image;verticalLabelPosition=bottom;labelBackgroundColor=default;verticalAlign=top;aspect=fixed;imageAspect=0;image=data:image/jpeg,/9j/4AAQSkZJRgABAQAAAQABAAD/2wBDAAIBAQEBAQIBAQECAgICAgQDAgICAgUEBAMEBgUGBgYFBgYGBwkIBgcJBwYGCAsICQoKCgoKBggLDAsKDAkKCgr/2wBDAQICAgICAgUDAwUKBwYHCgoKCgoKCgoKCgoKCgoKCgoKCgoKCgoKCgoKCgoKCgoKCgoKCgoKCgoKCgoKCgoKCgr/wAARCAGQAxkDASIAAhEBAxEB/8QAHwAAAQUBAQEBAQEAAAAAAAAAAAECAwQFBgcICQoL/8QAtRAAAgEDAwIEAwUFBAQAAAF9AQIDAAQRBRIhMUEGE1FhByJxFDKBkaEII0KxwRVS0fAkM2JyggkKFhcYGRolJicoKSo0NTY3ODk6Q0RFRkdISUpTVFVWV1hZWmNkZWZnaGlqc3R1dnd4eXqDhIWGh4iJipKTlJWWl5iZmqKjpKWmp6ipqrKztLW2t7i5usLDxMXGx8jJytLT1NXW19jZ2uHi4+Tl5ufo6erx8vP09fb3+Pn6/8QAHwEAAwEBAQEBAQEBAQAAAAAAAAECAwQFBgcICQoL/8QAtREAAgECBAQDBAcFBAQAAQJ3AAECAxEEBSExBhJBUQdhcRMiMoEIFEKRobHBCSMzUvAVYnLRChYkNOEl8RcYGRomJygpKjU2Nzg5OkNERUZHSElKU1RVVldYWVpjZGVmZ2hpanN0dXZ3eHl6goOEhYaHiImKkpOUlZaXmJmaoqOkpaanqKmqsrO0tba3uLm6wsPExcbHyMnK0tPU1dbX2Nna4uPk5ebn6Onq8vP09fb3+Pn6/9oADAMBAAIRAxEAPwDxuiiiuwzCiiigApj9fwpKKACilTr+FP2f7P6UAM8r5K1PDmn/ANoX8VmY2ffJVOzj8x/Lr0j4M+B7i/1hbzy/lSuXG4qGDws6sjqwWFnicXGET6g/Z48Py+H/AAlFHHHt/d1yX7RXjjR/D+tvJHt+evSfCVxHo/hJo5I/+WdfMX7QNnrHjDxNL9jtpXRP9XX4tjaqzKvOR+25bS+oU4QZm3PxMttUnaNJF3+Z/fqhrd5ca5pssfmfwVX8MfDPUPnjkt2SX/ppXV2fgO8s9Hlkkj/5Z15Swv1ZntzxFOtP3DwKwjk0/Xpbe4jZk312+lR/bbN4464/xV9o0vxhLb+X/wAtK7Lwf/x6v+7r6zBe/hT5+XuV5l/w3pckk/2P7u+rtz8N9Y0vUotQ+2fJVPTby4s9SaT7ieZXb3PiS31Swit4497JXfOv7GgRSpe2mV9B+G8niDEl589dRo/gfT/DdzFH5dP8B3Fxvz5ddBqul6hqkyx2duzMlfK4zH1K3uHr0qUMMQePPHNnoWlJ5f3/ALlfOHxRtvEHjy8b+zxL88n/ACzjr658Gfst6x48h+2axG2z/nnJXqXgP9i/wvpa/wCk6Wjv/wBc68iVKpM6KWMoUT4P+FHwz1Tw/Z/Y5NPl/wB/ZXrHg+X+y9SS3j3Jsr7I/wCGX/C/zx2+lxL/AMArkPFX7J9nHcvJb2+1/L/grlq4WZvDNIT9087TXLP+weLhXl2V88fG+4ki1KWQ17142+F/iTwPM8kdvK6pXz38YI9QuLlvtFvKlfR8Kx5MxPB4l9nUyuR5pqWoXEqfZ/vJWan/ADz8urVz5lu/7wVBN5f/ACzr9wo+/TPwyrG1QZRRRWpmFR1JTZfuUANpPNT/AJ6Glp0Nt5j/ALup5SojobfzErZ8K6HJeX8UUcb/AD0aJ4f1DUP+Pe3d69a+FHwvFtNFqmoR/c/gryMxzLC4OnI9nLcrxWOmX/hn8GrjR7z+1L2J9nl/x1r+J/iDHo+/T47hNifwb66vxz4ks9H0Ty7eTb+7r538c+JPMvJZPMr8Qz7OK+aV+SB+4cOZJRwFDmkYnxa8U3GsXLyRyfK71zWleD/tEP2y4qK81C41S/W3k+55ld3bafb29hFmP/lnXm4WFSB7OKqwOGvdLlkvPLt03qkf8FYl5o+uXjy/6Ptt0r2bw/4PuZPNvJLJfKrn/iLHZ29m9nZ2+3/npX0+Aqny+Mh+7PCdVs7eO5e3jkpuj+F9QvLjy7KN1Wtu50/T7e8bfJvbzK7XwNo8eqP5dvBtr6SFX3DwfZc4zwf4Xjs7NI44/nr1PwB4Tkj/ANIuPv1a8JfDOOO2S4uI677QdDjjRY7eNNqV2UozK5YQL/h7wvHJYJXQ6Vp8kibPL+5U+jj7HEsflLW5bXNn/wAs9ldEo8gGfZ6XLs8yrFtJJHI8Zkq1PcW8cL+XXPW1xcSX8txJ/BXJIDXfxJZ6XbN9oK1594z8USahvkt5Ni0eM/EEkjvHJ9xKxP8AkIWDyeX8tfBZ3PXlPqckpa8x6h+wB4Dj1T4hXvjC8+Z4X/d191QyfIsYj/gr5V/4J+6Vb29lcXEcfzu9fVsX8dfqXBtKFHJYyPy7i/ETq5zKIUUUV9ifIUv4Y3/lpUn/ACzptKn3/wAK5zckh6fhT6jp6fdFAD4+9PT7wpKen3RQAtFFKn3hQAqdfwqVPuik/wCWdKn3RQBLRUUP3qloAkooorSAD0+6Ken8dMT7op6fx0ATUUVJD1/GgBE+6KWnf8tKbQAifdFPg7fhTE+6KfD5mf8AV0vtj+wQar/x7v8AWuF1XQ47yGXzI69Dubf7RbeX5VZNzodxHat9mt9zV04P+IfccO4r2OEPz7/b/wDh3b3HhW/kjj/11c1+wf8AB9LLRFkkjffX0d+118C9Y8eaU1nHG673/gqX9n74H6h4D0SK3+zv/q0r8J8f4ZpjMvhDLoHu8H4j6tVryry+IzfiR4ej0fRJfs6fPsr5T1XXNYi8Q3Efz7fMr7Q+LXhvVLiwlj8v/lnXz/8A8Kb1S8vZ7j+y33P/ALFfhvA/CmcfUJVcRA/T+Fc5wuGzP96cV8MY5LjWPtEgbf5lfX/7PGjySbJJI2rxD4dfAfXI9eWSSzZE319YfBnwnH4f01PtHVEr9cwWS5hOjCETi8QuI8vxOM9yZ6H4esPk8uQ1pX+n28kH7z5azZvFGl2afu5FrmfEnxQjjTy47iv2jKMNDAZd7OJ/O+PqzxNc6F9QsNDd/wB4tc/4h8YaXJuk8xN1cLrfxEuLgv8Ava5S/wDElxeO/wC8au/2s5nFy8h2eofESS33/Z96f7ddt8HPjh5l59jvJN9eG22n6pqj+X83z133wu8CXlvqsVxJvopc/tCZS5z6y8PeIP7Vg8z+CtHzPasHwTZ+XpqR/wDTOtx4/nau04pe4J5vuaPMjTu1Hlexo8r2NXoAeb7mhX8vgijyvY0mw+op6B747z/anfaIvao9h9RSfZ/c/lU8oH83Gweppr96dvHoabVGYUUUUAR0qdfwpfL96ROv4UAPSP3qSm7B6mnUAW9Hs5Li58uP7z/6uvqj9n74dyW/hhdQuLf5v79fLnh6fy9VtePlR/3lfev7P0dvqHhK1j2fJ5aV8NxriqkMs9w+14MpU5425LbaHeXlg2nxybVq/pvwX8L/APH5eW8TS12F/wCHrezTzLPbXB/ErxJrHh/TXks/4K/KMJiOSufqM1z0Tj/Hnw80vT9b8yz2Jv8Av7Kydb0fT7Pw3cSeYn3K5e/+KmsahqXmXklUvFXxA/tDQfs8cmyvp8TSg8KeZQjOjM+ffiXpcl54qeSz+/5n366jwxo8kdh/t+XUuq6H9sm+2CPc++uo0TT45NK8yNNj7K7culyUxV/jMF9Dk2JJ/HXZeD/Bf2xE8uSjwr4T1HX7xbO3t9zu9fQHwW/Z71S5v4v7U090TzKvG14Tp8gUp+x945z4afBfWNU1CL7Pb/I9e/8AgP8AZ/0/S0S41C3i3f7ddlofhbQ/Bdmv2eNd6Vl+J/GEkj+Zb3m2vDjhff5iauP9t7p1ukWfhfw2n2OOSKL93Vj/AISjS7Pf+8SvIpvEFxI73El5uqLXviBHpdtFn599a/VTijPnPWrbxhb3Mn7uSrX9oWdwmfv18+zfGz+x98cclX7P9oCOOwe7juErnq4WcDqoch6X4t8P6HrCN/aEaP8A8Arwf4wfs3+D/EFtLcWce1q7zw98TJPFsLXEcmzZWd4h/tDY8n2zfvrzoV8Vg6/PE9OnSo4qnyTPhT42fA/VPA95LJb27yxf89K8p+z+W/l+Yz1+gXifwP8A8JBbS2+qWSOr/wB+vNJv2M9D1W/+0W/7rfJX6Hk/GlGFDkrnw+ccGTnU58OfJaWdzHxJHLspjxyb38vfX3En/BP+z1TSfMt5fmRP468z8f8A7BfjDQ/NvNPj3olfR4fiXLq32z5urw5mFH7J81J9z95HTHk+TFdV4t+GfiDwlfy2eqafKmz+/HWv8E/gH4s+LniH+z9Ks28pP9ZJ5depLMMDyc/OeV/Z+L5+SMDg7PT7i8/1cctdb4D+H+oa7c/8eVfa/wAOv+Cc+j2ejpcax/rfL/eV6D4J/Yz8J6HD5gt1r5XG8WUeSUKR9TguFq0PeryPkjwl8M4/D9n9svLfbWlqvjDQ9DeJ7e8Td/zzr6o8c/s56f8A2PLb2cGzfXyh8cPgPqPhvzdYiRnRJP8AlnX5vj80xWJmfpGV4DCYan7hxXxI8eR6o729vyv/ACzry/UvM1B28zfurE8eeMNY0PVW8yNkVH/5aVnw/EjzAk42f9NK836vf34nuwr8kDch0+3juU8uP5t9dzpVubjyo5Pnrzzwx4gt/EOq+X5i16h4Yt4/7VWMfwVp/CmR8cJHfWejiz8MY2ffSvFvjTcW+h2Hl/xPX0Bc+XH4bfzB9xK+S/j34st7zxDLbySPsSSvay335nh4qP7k5LR9DuNQ1L7RJ82+va/hppdnpkKSSFK8o8K6zZ7PM8xPkrrbDxZeR/6uR9lfVYekeJznvFt4p0/T7P8AeSLsq7oPiSS8m/0P7leLWfiiTWNlvHI9er/DTR7iOw8y4rvj8BPsjt01O9kjWKOPZUum3l5byeXJcP8APTNNjt/+elaH2MecklccpTN+TkNa2/0az8y4qhZ3Fu7yyfw0zVbwxw+V5lc/r2uf2XpVxJb/AH/Lrnr1eSnIzUOdnM+NtY/tTXv7P0+P5N9N1LUJNIT+z/uo9Zfga3vNT1uXWJPm+eur1bS7fXPENhp/l7pXkT7lfD4uP1mtCB9bhZxw1Kcj6q/YU8LjTvCS6pIP9dX0I/33+tcV8BfBdn4X8AWVlHHsbyEruPMH+rxX7fkuH+rYGED8Rzmv9Zxs5oZTfNf1p1N8v3r1Tyojk7UUJ2ooKJk6/hUkfeooen4VKkfbH4VmA6lT7wpKVPvCrgA+iiimBJR5v+1+lCdqKzAkqaH94lQJ0/GpIZPk6VoBLRRRQA9Puinp/HTE+6KlTtQBJSw9Pwpn/LOpE6/hQA6nRffptOSP580vsAXLbT47j/lnV+28P8f6un6JHGE/eVqeb/tfpXnVcRyTPSo4bngU00OLtHTjo8f/ADyqx5w37M0P5n/PSsoYqcDvpRdH4TntV8AaXqA2SW6vVdPAml2ds0flba6YXFvH/rX+lZet+KNPs0aPzFrnxVGnjV75v9bnROD8SfDO31Df5nzJXOSfDPR9LRh5aV1et/EC3jR4/MWuF1r4gRyJLi4WssPlWEo09iY57ioT92RLDoejae7yfKr0XPjCPS7N47eSuN1LxpJI7Rx1nPHqGqf8tHrqpYenD4Dy8Vja+Jqc8ze1Xx5cSI9c9daxeXj/ALtK1NH8B3l5zJursvDXwj83/WV1Rpc550pnn1h4X1jUOJI2Sur8MfCeST/WR70r1LRPh3p2np/A1dHZ6Pb2/wDq0VK6KWHIlM4vw98L7e3TzLi3VFrtPDfh/T9LmT92nyVahjjjTy5PuVPbSeXN+7jWujk5CTtfDf8Ax7fu+laNZnh4eXbZrToMZBRRRQSFL5XsKSigBvl+9OoooA/mvooorQzCiio6AJKKRPufjT0/joAdRRRQBZ0f93fxSf8ATSvt79nvxJ9n8JWcdfD1ncx28ySyf89K+ovgD4t/4kNvZ/aFr4njbDzrZX7p9pwTXp0sbLmPpubXBcWea4Tx5qFvqFncafJH9+tmGSSOwSST+OOuF8ba5HaTSySba/DpTqI/X4UuU8n8c+C5NPRruOT79cDo8dxcJcfaJPkR69f8Y65b6x4Ylit5ErjdB8N28WiSyR/62avpcurznQ5JHPioQgUPBPheTxAnl28f/LSvS/A3wj1C8mSzuLP5N+z/AFdbf7OXwf1C8dftEmxfMr6X03wn4f8AD+mrJexpuT/lpXs0KvJA8GvV98574V/s9+G/DdmmsXluqNXc6hrlnpcP/EvjRNlc7qvjS4jdbPT/ALtSaJb/ANsv5VxJ871lLEQMOWdYfqWsXGqI3mSPWQmiXGoFtke9K7Cw8N29vujvPuVfsLfR7PZb+Wmyo+s0w+q8p5zf/DvUZV/djb89Qa98G9Q1DRvMt5H3JXuVnZ+G7i28v7PxVt9Lt5LPy7e3p/WjL2XIfI3iT4D6wdNYxyN5s1Ydz8E9cs9KWz+0Pv8A+WlfW1/4Pt5ErEufCcduj/6Puo9vOcDqpQgfNKeD/GHhPTfL0+d971LDceLNL/0jVLx3SvafEOjxx75JLfbXlXj/AFSP7M+n6fHvavDxWJnz8p7GEoe/7pXTxTcagnlySV0fhW4ki/e3knyf8s65XwB4P1jULz7RqEVepWfguzt7NI/M2PXney5z1JVacDXs/ijpejwxWUn8da7+ING8QWDR29wj76828SeE/tCPJHI3yVznhjVPEHhd7rVNQlf7On3K9zBQfIeFipFr4nfCPw/4ov5Y5NLilb+OTy67r4A/DPwX8N9H8zT9PSKV/wDnnXmmm/Fm31BLi8kG3zn/AHdb3h74iXFvbJFcfLF/A9d9enioQ92RyUq2Hl8UD3W/8UW0dt9mj3VYs/ElncQ/u7ivFrz4gR29g8n9of8Abesvwr8XLz+1/wCz7OD/AEX/AJ6V5/sqkA9w+gtUuNPuLPy7iSvGvjZ4Ls9Z0GWOO381Xrs9E+Iml6hD9jj+arOpaPHrFg8ZKIj1f1fngTh8U6Mz8n/2xvhFeaXNcXFnpbp+8/5Z18+6bZ6xp1g8l5Hsr9Uf2mfhHpdxo9xcfZ4nfZX5hfHW81DT/GF1o8kiJEkmyPy6uhDm909T6xzw5jN+GnjSSPxslnH8v7yvpvwZceZMlwa+KfB95caf8RU8uR3r7F+CdxJqkNrJcfzrizOlyTPUwFf21M9d17UI7Pwk/wDtwV8W/F2WP/hLbqWST/lpX1z45vLeTytHi/5Ypvr5X+MHhu4vNburzy/keSvS4f8A4hwZpH2NHlMPwNb2+oaktv5vy16/o/w/k1CzeOzrxTQfMsLlPLt2Rkr2b4b+MNQs3WS4uPlr7mn8B87yHQ+A/hveWeqr/aEfypJXuujaXbx2CW9n/crE+FesaP4sdY5LdFr1ibwnp+n2fmW4/grqjT54GPP75w9npd5HN5klbPm/Z4UzUdzFcC58s1m+JNQk09PL8yvNqwN5TKGpeJNQvLx7OO3/ANyuS8YXmq+W9nJH9+um0e807e8kki76taxpdve2TXklfP5viKeGpnXgqE61QwPh6I9D0R5JI/neu1/Zg8J3njT4trcXse6KGSuUTw/eW9gkccbtv/1dfXP7E/wXuPDfhv8AtjULd1lufnrzOGsLUzTMY1f5Tt4ixVPLculD+Y950Szjs9NWOP8Agjp1Tv8Ac/d9agr90ULI/EXK7CiiimRAKKKKDQlh6fhVhP8AVfjVeHp+FWE/1X41mAlKn3hSUqfeFOMgH0UUUgHJ1/CnU1Ov4U6gByfx1Kn3RUSfx1Kn3RWgEtFFFAD0+6KlqJPuipaAHf8ALOnw9PwpKkh6/jQAVLa/f/CjyvYUkP7uiXwDX8Q19NkytXgzD+Kse11Szt0/eSJVDUvHlpbo37xK8PERqc579KrCFE6N7yO3/eSS1k6j40t9PR5fMWvPvEnxIwjeXebErhdb8eGTf5cm56KVI5KuKPSPEPxU8vf5ctcNr3xI8zd/pL1yT6pqmoO/2eN6ls/B+qag/mySV1RgcU6vONvPFF5qDt9n3NVeHR9V1B/M8uu38PfDPzEX939yu38PfDO3jRZJI61hS5zH2p5lonw3uLzbJJb123hz4VxxokklvXe2Hh+zsxzV5I/+eddUKVMjnqGNong+zs04t1rattPjt0xHHU8MdLVkc4iJHHzin/u6bTk6/hQZh5fvUlv/AK6mv9z8adb/AOuoHD4DstC/1Naqf6r8ayfD/wDqfwrTi+5QRIdRRRQSFFFFABRRRQB/NfRRRWhmFR1JTfL96AFT7n409P46ananJ0/GgB1FN3j0NOoAfD5lez/s2aP4g1DWIvL3+VXiPmGN/Mjr6M/Za8eWel6U3mRp5qR185xNV9jlcvdPoeGaftcxhE968Z+ONG8N6P5FzcbHRK+c/iR8R9U8SXL22l3Dbau/FrxJeeLNXljt7h/+mdZ3gP4X+IL3Uk/0dnTzK/nt/vqh/QsI08Nh/fKXhWPxReXK6XJufe//AC0r6C+FH7PesXCJqGqR/uq6b4VfB/w3paRXmuW6ebXpWseLNL0PSvsen7N3l/u/Lr6bAUoQgfMY/Fc8+VRG6Vp+l/D/AEfy/LTd/sVjar4k1HWP3cd4+yorD+3Nch+2ahGyL5laVnp+nxv/AMe/zV2VKvvnmxpB4bjkjPmXm2pdY8aaJ4PT7Zd6oqf8Dp3irxB4f8P6b9ovJEiRI6/N3/goj+2RrHgvxJ9j0vUHS1f/AFbpJVYXC1K0+QurXp4aB+hM37UHhvUHez068ifyaqv8bLi41hHt4/3TyJX5efs5ftWf2xqXma3rmzztn+skr72+CF54b8UWdvrEly87TbHjT+Cnj8u+rQ9458LjPrPwn1P4A8cR6zcpaSRureXXoMkksdt+7k+avIPA13Z3GqxSafHtRK9auLxBpBlj+95dcGFOjFGXc3nz+XUV5JHHZtP5lZc1xJ53NRarqHmWz2ccn8FZe19w0o0jjfHniR7iCW3ttleeaV4TvNU1v7RJH8nmV6KnheTUblhcR/JW5oPgv7HMsnl15vJUnUPZhVhRgUPCvw//ANGSTy66GHwlH5z+ZFXSw6YLS2SCP79SvpcmzzJPlr0aWF9w8mviueoc1/wh9n5L+Zbrs/5aV53458N6f9gazkjVYt9ezTWccEP7ySuL8Z/D/wD4SCPzLOSu/D+4cc58582eN9D0+41L7Hpdv5Cw/wBz+Osi58cWfhOaKPXA7RbNmz/br1DxJ8N9U0ewuP7Ps3lvZpP+Wn8Fec638C7zVHlvNYuHluvvp/cr2aXJOB5tX2kJkX9uXnij95Jb+RYf8s9lVdV1zULe2aSzj8iBPubPv1o6Po8lvCujyTpuh/1kdc/8RdQMhe3kvYokT/Vp5lZVcOXSqnW/DH4ofbXaK3jfcn35JJK9c8MeLLnUEe3vLxdn/TOvlvQbizktXjj1R4P9yvSvhL8QPDdnefY5LiW4dPkkeSpjSgayn7nunpfxU8J6f4g0F44/n/d1+Z/7b3wD/wCEP1WXxBb6fK6O7vvjr9UdJ8QaP4g0pvsdnv8A+2dfPH7ZP7P9x408H3Vxb/f2b9lZVKXJM3wtf7B+RGiR3v8AwlX2i3j/ANj95X2H+zHHcSaUkl3/AAfcryWz+Cdxofiqe3uLP5Ek/eO9e+/BbR/sdstvHF8tebjIQrHvYKr7E2/Emnx281xqFxu3zR1wOt+D7fXHaSONPnr1/wAT6P8AbLNY5I/krivFUdp4X017iSPY/l16GV0uSBy42v7Y4Tw98J9P1C/e38qLdXaP+zncR2y3FnI26s34V6jJrGueZHH/AB19C6VZyfZl/d7/AN3X3OChz0zxKsuQ8As9Y8QfDfUlt7jT3RfMr3D4dfESPxJpSfaJH31Q8c/DPR/FFm15exbWqh4V0Oz8OQ/Z7OTdUVZ8gqUec6/VdUs4x+7rzL4heOI43e3jrofEOoeXZtHHJ89cHZ+E7jXNTb+0LivGxmI5IG0KXOVNBk1jVblbyzL7N9emeHftFw8Vvefcqfwr4Ls9H01I441ap9Seys3b94q7K+CzivOsz6rLI01A7j4b+F9P8UeObLS/L326Om/y6+4fCWj2eh6DFZ2cezyYK+L/ANjDVdD1v4ivbyagjSpH9yvtz7P5dt+7PyeXX6fwXgqdHBe1PzXjHGTrYr2RXubcR76p1dupDs5qtX3XxnwvIR0UUUAFFFFBoSw9Pwqwn+q/Gq6fuzipY+9ZgOp6RnNMqaPo/wBKmIDaKKKuIDk6/hTqanX8KdSAcn8dSp90VGnT8akT7orQCWnxxb6ZT7aT5/LFADkj7VNsHqaYkfz/ANKlSSONHkkko5wHpb805I44+ZKpXOuW9mjyeZWFq/jiNEby5K55Vx8h1F5qFvZx8yVh6r40t4/3cci1xGt/ECSTf/pNc1eeINQ1B3+zyPWU65Xsjr9Y+IHlu/7yuS1XxpcXG6O33vVWz0PVNQm/0iR66HR/h2ZX8z71TyVJh9Y5Dkgmqam/8eytnR/A1xcOv+j16Honw3i2eZJHXUaV4Ts7P/lnW8aBlOqcDoHwzk2eZ9neuy0HwHb2kfmyW9dLDZ29umY46lh8ytY0iecgs9Pt408v7OqVOkflp+7oT+OnVrD3COYakfbH4VL5cXp+lMSOpKoOYKKKKBBTk6/hTacnX8KzAdTrf/XU2nW/+uoHE63w3iSHFa8X3KyfDH+p/GtlP9V+NBEhKKKKCQooooAKKKKAP5r6KKK0MwooooAKKKcnT8aAGp2p3/LOnUqfeFAFWZJP+Wdek/BC4vLffHFuffWD4e8N6frGyOX79e5fC74d6XpdslxHH81fB8X5xQpYWWHPvODcmr1q/wBa/lN7wl8Kxrl4lxcyba9g8JeFtH0NPnjTfWHoNv8A2fZrLhFp9/qlxpdo95cRs0r/APLOvx+hG9eMT9ZxE/a0zqNV8a29nC9nbx7pf4PLqTwl4fuNQ/4ml5v31zvw20u41i8lvdVt3b+OP/YrqpvjB8O/A6NZ6x4gtVnT/Vx76+gh7Sf7qlE+fcadN/vZGvDe/vvsckjItabyWdvD/oce99n+sr5x+Jf/AAUA+B+jzXGn2fjiza6T/lmklcRbf8FQfhnb2DW8eqLKyfI8e/569HC5Nja3vHDVzTCUftnvvxjjuJPDF1c6h80H3K/Kj/go1p9vcaTLceWrtDP+4+f7lfXPxC/4KAeH9c8N3Ukd5F5Uyfu0r8/P2hPHGsfEzUriSO4Z4nn/ANXX1uU5RUo1OaZ81mObU61GUIHjvwf1jUP+E2tdPuLyXyvPT7j1+yH7G2oXEnhKwjk3pEkCeX5lflr+zH+z/quufEWLzLOWVUnR5Pkr9aP2afhvqtvDYWccjIvyb68HiyPNPkPc4VpcuF52fUXwus5LOFLiQ/LXpj65HJYNHHXBaP8A8SuH7P5m5YafqXiCSSFre3k2P/0zr5Kl7Sie9VjCsa0OqG8uZY4/4K0rbR/tFt5kn36wfCtnceW//PWursI/3Hl+Z89EI3fvESnyBbaP5ieWbf5P+WlaOlafHHdfaJPu/wDLOjStQt5EeP8AuVfsPLA35+WuiNKnA46tWoS22nySXPmSVPf26BPLp9tJ/t1YMcciN5ke+uyMYTOOc5mBqUccs32fzKrPbxl/Lz9ytTVbeMfvI4qxnt/LufM+01h8Ezph79MxdS0u43veXEa7XriPE/he81DzZM7Iv+WmyvVrySO4h2SbXSuX8bfYNPh+z2Ubs3/LRK7KVcz+r8580/EXzPDd49v4T0/7RcP9+R64Obw/Jrk0t54htlRk/wCWfmV7N8SLO83vqEdl5S/7EdebXNv4b1iZxb6w+5K9SlV5zglDkmchreuSx6Q2n6P4fRdn8aVS8K6xHZzLqEm5G/jjrVvLOWz1WXS7fUEXfHv3yVzlzb6hp+q/Y5LhHieon7M7KUT3z4M/GSSSF9Os496+Z89emXNvH4os2kvNrRP/AKyvHfgtHpdvpqSRWcUUr167oPiDT/J+xyWf/ft6uXs5wOWXuVOeB8fftafAO80vWJdc0e32Rff/AHdcV8K47iPbp5j+b/lpX278VPBml+JPDstvJaO29P8Afr5S1jwXZ+C9YuPLuGifzP8AlpHXkVaHv8p7OHxXtqZr63cWdmn9oXH+qhj+evmb9oH4uW/iDUpdP0uXYiPXefGP4nyR6U+haXeb3f5H+evDNY8HyXj/AGiQ7pf469zAUIQp80jlryn9k2fhR8UJPD+qxR+Zur6o+HXxQt9Qts/er5K8H/Du5877R5b17j8PbPUNPsEjjjr3qFX+QylT56Z6r4h8UXGsTfZ7f5FrLupJNPtvMjO5q1PDGlm4tfM8vfWofBcd46x+XXLipz5Aw/JA5zQPDeoeJLOXVLiP5ErnNSuJPDd69xJ/BXvuleG7PS/Db29tb/P5dfLX7YHizUPA9hLeWdu3z/8ALOOvkqtWdavynr0KVPk5y/rf7TnhfwnC9neagleaeIf2nLzxhPLZ+E0aV/8ApnXy/r1x8QPiJqstx5cqJ5n7uvrT9jn9mO407ww3iDxJH9+Df5j1lVyuHs/ayOilmMIT9lGJ6/8A8EzbjXP+F8NeaxcS/vk+5JX6o/62z/4BX5+fsE+A7jUPjNLqFnZ/6PZ/8tNlfoN5Xl2yR/7FfonC8Jxy+B+Z8T1Yf2hIzpv3ieXWe95HG7eZ/BWhfy28e6OSN/n/AOWleS/HX4uaP8M0ivNQ1RYGf5PLf+OvqauIhhj5rD0qlc9I/tC22faP4Klr5f039sDS9Utpf7PuHRvL/wCWldp8Jf2tND8SIuj+KLfypX/5aeZXnQzbC852SyjFR989soTtUWm3FneWyXlnJ5qv/t1PD5nzfd2V6VLEU8TD3DllSnR+MdT0+6KZT0+6KRBLU0fR/pUNTJ/HUxAbRTvL96PL96oATr+FOoSP3qWG3oAIY+anS3kkNLHZmOnPeR2aeU4p88IEw5x6Wfln95ThJZ2ab5KybzxRFbo582ubv/HEfz/vKwnVKOuv/EFnbo8nmVzeq+OY40/dy1yGseNZJN37yuXv/EFzI7Ykeuf2g4HX6x44kkR445KyYdQvNYm8uOSuQudYk/56V2nwlMd/eIcVEPfqETq8nwF+28ByXCeZJuZ62dE+Hcv+rNvsr07RPC9v9j+0+Un3KnSzjt/7telClTJ9rUmcro/gO3tz+8t66Cz8P2dun+rq9UlbmYzy44/9XFUsX3KI+9OoAb5fvTqKanlyJ5km+swHUqfeFDyW8f7z50rLv/FGh2b/AGeTVIvN/wB+iU6cBwhUmjW8yL1/WlrNh1zT5HSOO8ietKH/AFH41UdRBRRTk6/hVANoooqYgKn3hUtv/rqjTr+FSQyDzqocTrvDH+p/GtlP9V+NYnhj/U/jW2n+q/GsyJCUUUUEhRRRQAUUUUAfzX03zPanUx+v4VoZgknen0xPvCn0AFCfJRRQBJSw/f8AxoTr+FPtsfbEjk/v1MjSlues/A3wfJqE32jy9/8AwCvZ9Kki0u5W3kKoiUz9mHwPHJ4P/tCSP5tn7sVV8c2clvr32O5k8r56/AOLKtStmMoSP3rhOMKOV8sTsNK1SPUElvLyTZbw/c/26oaHrGseMNbaSz+W1R/3fmfx1ifEjVLPw/4btfDenSNumj+eRK4rxJ8bNH+B/huW81C83SpBvj3vUZXgqj+yXj60KPvHZftV/tKaf+zv8PZ7iz1BUvJk2x+W9fkL8fv2yPih4w16/l/4Sy4iWaT78c9erftUfGn4ifHTQb3xBHI62vmbIN9cB4S/Zf0e4ttL0PVJEa6v/wB7PJPX6Nk+U0cJ+9qn59meY18ZU5KR86v4o8U65qEt5HeX97K/8aSPV/QfEnizS7yKSSS6ifzP46/XD4Ifsb/s3/DvwHZ2+qeF7K4v7zZ+/krn/wBt79j/AOHfw/8AD0Ut74HtbB7mDzbR/L2b0r6zD0JVoc1KJ87iqVKnD97L3z4gs/GGoXnhuKST77x/O/mVa+2fZ7OKKORGd/8AYqXXvClvo/h5fs/3ErB+HUtz4k8Zppfls3/POrnV9nTlKRy0Yc9fkifdf/BPrwfZ6nbXUlvp6S3Dx/I8ifcr7w+GnguXR7aCf7R+9f79fKv7Fuhx+F9Hs/s9vslf/X19eeBpJI7x9QuN2x/uJX5Xm9X6zX5j9Wy2H1bCcsTtpryO3tn/ANuotBkt7zUlj+/VazuNP1i8YxyfwVs+Hre3t9QTZb/9tK8CqelSOlsLP+z4WuP43q1cz/Y4f3fzu/8ABWR/aNveak9v821Ku2f9n3D+ZJJ9ys4S5yfZcpf03S7y3T7RJJ8j1r21xHHD5Xmb6pPeRxw+X5ny1QsNUjkv/L8yqq1eT3TKNDnhzHW2dx+5xRf6x9mhYRyfNVC2vBGnlCSuc17xJHb6lLZySfwVrhfaTOKrAseJ/iRHaQtH5ieb/BXOTfEi8kh/4+It1c3quueH715Yry/i83zNnl764bxh4s0/Q5vMt7ncif8ATSqxNKpS983wsqc/cPWLDxpeSTP9ovN9Z+t6peXl55kcjtXm+ifEzR7hE8y82O9dNdeMNHt9NeSO8asMPVO2dDk+Eq+KvGgtoXs7izSVP9uvFr/xBo9v4kls7jw/9n3/AOrkrrfEnjzR7x3j8yV3/wCmdcPqWh6HrGppcaxcMlxv/wCelepSnOBwTpQmXU8J/wBoI09xp7PF/BJWTf8Ah+zuJ2s7yNWiT+P+5Xb6f4PvIPK8zxA0Vq8f7vzKpXnh/Q7aaW2juPtG/wD5bx1rzc8zKHuHM215b2Fsun2d43+x89dh4P1DXNHuV1C81BpYt/8Aq68Y8RXknhfxtFo+sboonk/cPJ/HXolv8RfD/wBg/suT5N/yeZW/L75hM+j9Ht5PEmjpeaHqCb3j/wBX9/fXy1+1vJ4o8N38tvrnhfYj/cnjjr274UeLNH0+G30uO8ZV/gk3079pa3tPEHg+USXEVx+4/eR/x06vJCHMRhZz5+Q/NG88N6x4s177RpaSvvkr0vwf8C9ZuIUkvLd/++K7fwf4X0fRr/7ZJZqvz132leKLPVdbtdD0u3Xan+sej6/CFDlPS9hU+I838W/Dez8L6NFcR2VHga3+2ulvZx/fruf2jY/KsEt7P7v9+uI+BWs2enzPJcSKzo9enl1XnInH9ye4+FfB9noeleZeS/P/ALlOtrizt7p7iPaiVa8N/wBoeJNNe8uI38r+/WDrel3Em+OzkaufOcyp4P3QwWD+sVDUvPiBo+/+z4r1dz1k6x+y3/wvFGuLy3WWJ/8AYpnhj4N/2xeJeXnm/wCsr6H+G4s/B+lLZxH7kdfJwzShN856lTBVKJ8H+Of2H7j4b+ObW3t9L3wPJ/zz2V7/AH/hvSvB/wAKE0+309FldE8uvVvi1Jp/iB1vJI0d0krg/FX2PWNHis87tkmypqZp7d+yibxwvIueR7l+wj8LrDw98Om1z7Gq3F58+/y69quYzH8+a5z9njw+dL+GNh5Y+XyK6fUK/bclpQo5dCMT8VzWrOeYzlIxNVeO3he4uJE8pE+evz9/aZ+Ilx8SPiXeafHJ5tvbT/Z4/wCP/gdfaf7QniSPwv8ADHVtcFxsbyPKSvz98H2dnqHi1pJJPmmkd5JHf/brjzmr+/jSiexw/hYSoSqyLHh74d6zHCkmn2bS/wAHlx10uj/C/WLe5/tCS8aDZ9zfXsXgP4d6fqGmxf8AExld/wDnnGmyusufAeh/Zn0/UdLll/6bySb687+y38R6n9pqHuHB/CT4weLPh3q0Vnrl41xYeZ/y0kr6e0fVNP8AEGmxaxo9wksUyf36+S/iF4HuPDbtcafqCyxf8tIJE2PXR/s2fGi38L3jaHrFw32WaT/lp/BWODzGeBxXJL4Tnx+VwxND2tI+nvs7+h/KnJH2x+FQabJZ3kKahp9xvimj3pU8Hb8K+ypNVqfPA+OnCpCpyTJdg9TTofu0IPN5qxDHzR/hDkEp6W4kTzKdj/pqn5VWutUjt98fmfco5+QXLMtQ28fz+ZJtpr6jb29YOoeKI40/1iVz2peLJA7+XJWE64RidXqXiiONOJdlc5rHjT53SO431zN/rlxcJmsmaSSXf5klYc0y+c1tS8UySI/7ysS51iT5z5lVLmT5Hqi8neszCUie61CTzPMrNudQkokk+/xVOaTv+tBHMNmuJJN1elfAeX/T1jry15O+fxr0v4DyD+0l5q6E/wB4I+mdJ/5Bi/8AXOq/l/O2DVjSf+QYv/XOoZP9Y9evEBvl+9Hl+9Ooqh8w1P3VO/e0qR+Zv4+5RMI4061PwE/ACfvE8z+D3rm/iF8VPB3wv02XVPFGqLBsTfHGn33ri/2n/wBqTwf8B/DzSXE8T6pMn7iDzPuV8M+M/jZ48+OusS6pqFxsi3/I++vn8xzmGHfsqXvSPdyzJa2K/e1vdgeu/tD/APBRDWLP/R/B8jpFcyfu/wDbr5y8YftUfEz+0l1z+3Jdzyfc89667/hD9Ls4f7QuLeC8nSP9359eY/FGz1yzv/M8Qx+VazJ8iWk/yV5f+3T9+Uj3o0sDD3IRPuv9gn4sSfGjw9cXF5I7y2EiJJvk+/X1LDFHGiR28m5K+Mv+CRejxx+D/Ed6LdpVefZHX2b5fljy8p/2zr6XLf4B8nj4clcWnJ/HTacnX8K9E4RtFFFABUkEf/LQfjUdSQd6C4HVeFf3kPFb6f6r8awfCn+p/Ct5PvCszKQlFFFBIUUUUAFFFR0AfzZ0x+v4U+itDMYn3hT6PK/2f1ooAKKKcnT8aAHVZsPLkvUkz/GlVqmt/wDj5WpnsaUtz7h/Zd1izk+H6W/y/JHXIeM9Tt9U+IU9xL8yw1D+y1rEcfhWXzLj/lnVbWLi3/tXUrzzNmyvwjiqMP7UP3XhWfPlZwfxI+IGqeJPHMtvZbYrWzj+/Xzl8bB4w+JGq3FxZx3Eul2HySP/AAPXuOq+C/EHii/uo9Hs5X+0yffSvVdE/Z/k0f4My+F5PDyNdTR/v3eOvRyjEU8PM87NKFStCZ+eeg2ej+JNHuvCcn7rZJ8lUNe8QR+E/HdrZ6pu2+Rsgeum+P3guT4L+NpZJLeVYpn3yfu65K/8aeGvHFskckcTzp/y0/jr9KlQo4/A+5I+BpYmpleK5mdlrHxY8UapeWX9n65dNb2E6P5cb/3K6P8AaW/aU+LH7TF5puo+INYW10jQdNS0gg/voleT6VZx2c37yTZFUfjbxjcXGm/2Xodn5r/cj8upyenXymE/azKzKvhs3n7WEPeOem8YXFxZ3FnHseLZskrR/Z78D+INU8dJ/Y8e7+OSTy66b4Ofsr/ETxhC2sXlnLF53/TOvrT9m/8AZbj8H+VcXOl/vd/7yvGzLN4ck4Hq5Rk05clWR73+yJ4XtLPw35esSIkqQf6zy6960rULf+yvLt/K+T7j15lZ6h4b0OwaPS7PytibHjSmHxxb3HkW9nqDRN/cr4if859mo/YPYfCunx3kL/Z/vP8A6ySuos0j0dPLk/evXn3w01yQI32e83xPJ+8Sumj1i4kTy4pPnSSvJnLnfuHRGHIdXDHp9vN5f/fclUrrWLOPfHbyfceuPv8Axhefamt5LzZ+8+eqfiHxJHp00X2eRf8AbrSEfcJ5+eZ1Wv8AjiSzs/LjuPnqtpXjC4t9uoXFwux68g8Z/ESOOF47y/Td5nyVxviT46XFl4feO3vNzwyf89P4Kw9lOsdMfcpn0ZN8XJP7YaP7Z8qV5j8bP2iPD/hfzdc1TUNsSRv/AMtK8C8Q/tUafoc63H9qxPvj/efvK+Mv2yf2xL3xRYXXh+31TeyTv/q3r0stwVetU5DzcfVoYenznvHxU/4KAaJpWq3H9j6hK++f/npWN4e/4KGW/iiaW3kj+T7nzvX5meLfjBrl5PLZ/aHauo+AOuahc+JIri8vHl/ef6vzK+7lklD6r758jQzaf1r3T9e/hvqHiTxhoK+JNH3sjx749lbOq+MPFmn7bO8vJYtn9+uJ/Yw+Mul+D/CVvZ6pcRMj/wDjlfVVhH8F/jRpj/6OjSpH9/Zs2V+f4rCvDVz7vCYqFameJ+GNck1BGuLyPd/t1twyJqkySeXu/wCej1T8SfB/xB4L15o9PvHewd/v/wCxUuiWeoeH7OW3t7h5a6aFWnWgYV6XJMfH4o123v30O41Ddav/AKv/AGKn03xR4Tju5dP1DXHXZ/HWM+j6xqkzfY7f561vsfw3j0q407xBHFa3TwbP+B10R9w5au3unkfx48QaXFqf/Ew1D7bb/wDLCdP4K5zwn8VLeW/i0+8k3J9yOSStvx54fj8J2D/aJFurKb7leM3Nx4gj8QeZ/Y7eR/A+z7ld8VzwOCcuSofX3w91S80uSLVLjf8AY3r0nx5qmn6x4GlEd59yB38yvE/2dfGkmqaOvh/UI/tDIn33r1C20uO40e6s5Pli8v7lcWN/gHRgoweL948AvPElnZvL5dw/+sqf4e65JceLYpEuNn8Fcr4t0+8k8YXml2/yRJJ+7p2im88N6gl5cH7lfI/WKlz7P6vT9meufGC4t9Q0RrOKTfKkfpXnXwP8J3mseOYtLj+75n7yuy024t9c0G41y8ufn/5Z1D+z9o+qW/i261i3+f5/v19JgMbyUOc8WrhZ/AfS95qHh7wv4eg0ez8rfs+esO20u3vP9I2ff/1deR/EXxh4g0PXvLuLiV69F+G/jS3uNKS4uJN+xP8AV18nm2aQxdflPUweUvCQjP8AmOt8/S/C9t9ouLjZs/grkvFHxjt7dJfs9/sWuG+NPxMuJLlvLuNipXzF8SP2jLePVf8AhG7K83SvJ+82SVxYXC1K0+WkerKNCnDlqnvWvftAax4g1L+z9LvGdEk2V33w3v7zxRqth4et98ss0ieZXzL8NPElnZ+V9jt3vL+5k/dxp89foH+wF+zH4luLmL4keMLfyn+R4I5E+5X1fD+SV8VjdYnzXEGaYXC4WShI+oPAGhx6P4MtbCTerJBS6l0b6V1F/Zx29s0Z+4lcvq3VvpX7vh6Xs6EYxPw2dX2lec5Hgn7cOsHT/g42l2+zzbyevjD4VaPLJ4t8zUI3fZJ9yvqz9vy4kuLPRtDjj+/vdP8Ax+vAvh7pd5Hc+X9i+ff/AMs6+YzH38cfc5JHky6Z9GfDe4s9Qtkszp6xbI/9ZXZRyaHbw/Y7LQ2nb+/vrzv4S+F9Q1yZbePzd7v88/mfIle2abpdn4ftns7S3Td/z3+/XrQ5/ZnjVfZxmcD4w8J6PrGmtaf2OkT+X/rK+bvHPhvXPBV59os7ffEk/wB+vrjVbMzwtb+X9o/6aeXXl/xF+G93eWcscEny/wDPp/frw82wUJw9z4j1slxnv8lX4TS/Zd+MlnrmzwHqmo7Lh4PNgkf/ANAr25P+eklfn9qWt6v8P/G0Xl2bRfZpN8d3H/B/sV9ffBP44aP8SNBS3kk2akkCb4KeTZpOi/YTObO8r/5e0j0hLy3t0aoJtct40cGSsPU9Uk2N5Z31zl5rF5vaKSOvo5T5T5aHwHUal4s8v/VyVjXPiT7Yn+s+asGTVI5OZKpveRxv/rK5/jJlI0by9uPm/ef8DrN+2c/vJKfDqkdwjW8klZdzcRxyP5ny7P8Ax+q5DLmJZrzvVOa8pj3Eef8AWVXmkjqDLmGvceZ1qCaSkmuIo6qzXkeMVmIbNJzVWaSpZriPZ/rKoTXHH+soAJpPkavS/gDJ/p6Yry2a4jz/AKyvTf2e7iOTUkooS55gfUek/wDIMX/rnUMn+septE/5Bif9c6Y33mr3YfwwGUU9IzmoLy4igh/eSJFL5m/55Pk2f7dPn5PfHD3/AHBzyRx/u/M2M/368g/aE/ac0v4d6PLHoeoI975ezzE/grkv2n/22PDfg+GXwf4LuPtGqP8AJJPB9xK+XbO88QfFm/ePUJG+z+fvd/M/jr5LNM3dSp7LDn1GU5TNQ9rXM+//AOEw/aA8cy6x4gjd9Lhf557uvTvBPwj8Paf/AKRb6Xdajs+4mzYmytnwx4Ds9D0pP9bt/wCeezfsrXttH8QXELS+G9Udtn/LORNj0Zdl0KX72fxHZjMf7X90vhMDxV4ftreGWPS/sVrL/wAtLWeP79eAfFe40+zmfS9Y8L/ZXT/lm8n/AI/XvGpfEzT7O8l8N+PNPltZXTZBPIiffrx7VfDeqfEz4zab8O7yNfIv75Io50+feld9RGFCLhTPs3/gnL8N5PBf7P1rrgj2S6xP9o/4BX0BWZ4J8J6X8P8AwrYeD9Hj/wBF021SKD/YStJPuf3q9fCw9jQPl8RV9tXFooorpMSSiiigAp6fdFMp0X3KAOp8Kf6n8K20/jrE8Kf6n8K2azMyX+D8aZ/yzo8z2ptVygFFFFUAUUUUAfzZ0UUUGYUUUUAO2D1NCdPxpU+6KWgBU6/hTkxG/mU1Ov4U+pkVE9K+D/xI/wCEfLafJcOiPXqHgbw1qHxA15LC3t3limk3yPHXz34Vs5NQv4oLeP53fZHX6P8A7FvwfPhfwZa6prmno1xNHv8AMkr8s4xy6j9ajM/UuEMzrfVZQKGg/A/T/C+mxR29lEj/AO3HV3xz8P8AWL/w9/Z+lzvFL5f369J8fvHbzY8vYiPXPalrEklsn9nyV81SpQgfQTqznD3z4l/aW/Y//wCE40ee88Q3n72FP3cccf36+Ide+Adn4G8Qy6PHHL5qSb/uV+ov7SfiTxJ4fhittHs1vZbz5I4K8Rs/2a7zWJn8YeKLNUluf9fG/wDBX3mU4+GDwvvnx2Y5f9er+4fHP/Cq9U1iBrez090R4/8AWSV6T+zx+y3Hc3P2zXNLeV4ZP7le+w/AuO8vP7P0fYi16v4G+H+n+A9E8u4kXeI687H8QVMTPkgenl2SU8NDmmZPg/w3ofhewW3/ALLRUSP/AFfl1qTa5Z6O6/Z7iCLem+OsTxP4ot47t/s/zfwVy+saxb6gn9n3Hyukf+srxpRqT9+Z7UJQh7kDR17xgLe8T7PcS7XffPJ/BV/SrO3vNSt9UjvPkeP929eeaxb6gfIijk3RJHXQJqlvZ+Hore337v4HrirxnNcsTupQ+2ev6P4sg8F232eO4d28vfJJWlo/xgkuLmW8ikfynj/d15Zo3iiTxRbJb29wu6FNknmVo+G5Ly31NrPzIvKrClh+QurM9El8R3moWf2y4k2S+Z/q65fxP48uLy2l0Py/3v3/ADKy7bxZHHc3EesXvzOn7uvHvij8UNQ0u2ur2zk/49pP3clbeyMInS+PPGul6h5sdvc7Ghj2T+ZJ9yvG/ij8QdK0PSry4j8QfuvI2eX5leT/ABF+PEclndSSag9vLc/6zy6+WPiF8aNQvJrizk1yVl3/APPSvdynK/rM+Y8PNc2+qQ5D1L4hfGzR4/Ct/eS6pK8qR7E/eV8l+MPiRrGual9tjuGdf+W8jyVY8SeLNQ1i2l0/52V3/d1yn/COahsT7R8qeZX22Dy+hh/hPhsdm9SsNm1y4kuXk8zdvrt/hdrn/CJ3j6hqmqeQn3498n36n+EP7Lfxl+LltcXHgLwPdXlvDOiSX3l/uUT++9fUHxy/4Ij/ABU+A+j6TqHxE8c2H2rWNNS7tLSB/uI9ezDLq04cx4yxEYz5zJ+Dn7Zmj6Hf28ceufNDJ9yT+Ovuj9n79rCz8aW0Vxo2qRWsvl/6j+/X5J/Ev9m/4g/C+5b92t5En/LeOtT9nv8Aag8cfB/xbay3Fy09vC/7yCT+CvnM5yGGOoy5D6PJs+rYSvy1f4R++Pg/4qaf8QNNeO8uIpWRNjpV/wDsu3jP7vaiv/fr4U/Zs/bE8L+KPElleW9w9v8AbNnnx19v+G/Emn65YRfaPuV+O18LXy3G8sj9YpYjCY/C/uh2q2dno1zFcR3H3/k+SvFvjNqssdy32i3b5H+Sf+Cvf0s9PvEl+61uifvPMrgfi7oej6P4DutYEcV5a/8Aj6V9JR/ew5zw5x9lU5D5V+KPxEuNHh+x6xqm2D79r5lamg/Ezw/rngmC4kFv9t+5G/8ABXL/ABy0/wAP3HhiLWLy3+0Wr/6v/YrxGz0fXI4Z7jwvq7tFbfvdkj160IKdM82r7kz6++AfiyOPxyxe4S3t32V9VeHjZ6ppr/vEeKb5K/OL4M/EiTULm3kjkdpUkRJ6+6Pht4ovNL0qK3vY/wB08G/fXnYiHJTnA6sPL95GR5/8cvBcnh/xV/blmiPF5n8FcbeSf8Jh/o/ltFs/56V7l8V9L0/xTon2zT7j568Z1vWNH8L239leV/pU335K+Fn7lSR91h5c8B+m6hcWelS6XHIvlQ12/wCzr4ktLe5ljkkrxjWPEHl7pPtn/LOj4XeMJLPW3kt9QbZWEcVU9hynoywEJw5z3H4zapZ3lz9of79c34e+Kn9j2EtvGPm+5XIfFHx5JeW32iPdXmOg/ES4vPEX9lx7/nk2R15fsqlapE9an7OngYn0V8N/hH44/aQ8Spo+jxyqkz/vJ9n3K+qvCX/BDP8AZ31HRYtU8YC4l1fy98kn8Fdl/wAEzfh/pfhfwHFqkkcT3Vym+SSvrwybHXzJPv1++cL8OYGlgYzqfEfgPFHEuNlmM4UvgPmb4Of8Ev8A4D/Ca5ivNP0tZ3STfvnr6F0fw3pfh+wXT9Lt/KiT/V7K1v3VRTfc/Cvs6GCoYb3YRPjcVj69b3pSMHXP4vrXK6p/Sup1v7jfWuW1Hr+NdHJyHOfM37cOj/aNS0G8w/8AH5f/AHw9eR+AdLj+0pJb3DpK8n7uvf8A9sPS5LzwxYap/BZz7K8v+Glnp/nS+XsRvLTZJJ/BXy+OpcmL5j7nJpc+XTPX/hRb6H4X017jVNTdbjy98711H/C3PC9vbf2f4bs4lf8A6eq8evPFF5peqvcapIjRPJ5SJs+/XT6b4gj1hPtFx4SgvU/577PKr2KNWHszxqtKp7Q6m58ceLLx/L/sKKWL+/ax0l5bxXlm8moWbRM6f8tKzvMvIrbzI7OWBf8AnnY3b02zljuE/wCJprjxRfc8u+g/9nrCr7OsVSjUgeZ/Ff4Ni4haT/R7i1m/5aR/f315BoPizxp8C/GCSSWcrWvmfvJI/n+Svpnxt4Ps7PR5ZP8AhKEeKb/UeRXi3jyzt7jSvLj1D/T0+SSP++lfL4yhyVOeB9HQxXtKPspn0V8K/Gnh/wCLGg2+saXcb3dP3kdb2q+B/LRpBHXxt8KPjxqHwb8YLeXklvLpe/ZsT+Cvqu5/ao+E8eg2FxqmsRRT3+z+OvZynH0Zv2VU+VzjLq9H34HOa9pdxZ3/ANn8vbvrBvLiSPzf3n3K8u/ac/4KEeE/B+lfbdL0ued0n2b/AOB3rxfSv+Cjlt4g1NP7P0t7W68vZOl3/c/v161X2HP7h4cKVfk94+rnuLj5vvfJU322TVLZ7f8A5a20dfJ6f8FIPD+l/wDEv1zT2aXf+4nT/lsldNo//BQPwXJ5F5/Y9wjzf886zD2VQ9z/ALQk2dd/+xVWbXY435udy/cST+/Xl/iT9tD4T6PbWviDULjyLe/g3wf7/wDcrzLxh+3x4Pj32/hvT98Tx+bH/sbP4Kx5GTGjzn0xNeSb/LkqrNefJ/rPv14ppX7Ust3bS/bdDl3/AGFLuP56r+Hv2vLPXIcReH7rf5mysuWoa/Vz2ya8kziqD6p5btHJJsryDUv2tPCenxXX2izlW4hT/V1qR/tKfDu30G11DWLz7E80CO+//cqfZVAhhz0ObVPkaSvVf2ctUjkvPtB+4n/j9fI1h+0x4e8WbNQ0u43WqSP+8j/jrqPg9+2jcWeq6zo+h+F7y6TTdNe4gfZ/y2relH2JHsah+mOj+ILP+x0ljk37Kg1jx54b8N6PdeINY1SK3tYf45JNlfkz+0P/AMFqPFnhfw9b6H4P0drC/hvt86Sfxw18pftS/wDBVD46fHjwwnh//hKJbKw8z9/Bavsd66KuZexpnbgsrqYmZ+yfxs/4Kkfsr/BiSe38QfESCWeFN8kFrJvf/cryLxz+3J4/+NHgmLxZ4f0e40PRLyD/AIltrJ/x8Xif36/Nv9ir9nOz8SP/AMNAftGb7iwTZ/ZWm3z73v5v4N9faWiXF5401WCzjuILWDy/3fmfchT+4lfJYzPsVi/3VL4T63BZBhcD79T4ix4G8BeKPiBfvrmsW7y/vP8Annsr33wB8E49LhWS81CwsEf/AFCSVkeDPDelW8P9qap4olitbaP93BHH9+tS5+Mnwng1LEf2i6ZP78e9EroyzB0Y++wx1etNciPRtN8F28cPl/8ACYaWr+Zsk/eP/wCyVtv8E/CfiDTf3mu3VvdJ9yexkryC/wD2jPgfodz5lxp1r9o8vf8AuH2PU2iftcySW0smmaX9li+/HP5+/elfSwq04HifV6kzT+P3wTk/4QZ9P8eRxXVkn/IO1yxjTfD/ANdq8o/YY+Geoah+1LF/wkEn2q10S182D5/k3p9x69BvP2wPDdxbNpnjTR1gt79NkjwJ8j/79enfsYfD/R9mpfF2z0vYmpfutO8z76Q/7H+xWT/fVzSrOpRwp7q8fyP/AH3p79fwptFeuj5qPv8AvBRRRVREO8z2pydqjpyf6v8ACqAdRbD+DNFLa/f/AAqJ/AB0/hKQhPLFblYHhL+P6V0P/LOmjMbRRRVAFFFFABRRRQB/NnT0+6KZT0+6KDMT/lnTad/yzptAD0+6KWkT7opaAJk/jo/g8qhP3e/NPSP99+7ofuGkIHrn7JHwz/4Tzxta2/l/6mev1M8H+F4vDfhi10+M/cgr4w/4Jm/DuWTzfEl5H/1zr7aubzy/3ccn3K/KOI8V9YxfIfpeQ4f2OF5jzb4o3Hmwyx1xtvrEdnb/ALv+Cu0+KP2dLC6lk3/JXkf9qWcdg15cSMn/AEzr5f27pV+Q+opUpzoFLVbOPxBrv2vULfdEj1zvxC8SafJbJp9tJ5SJ/HXOfFH9pTw34XRtP0+PzZf+mdeGa38dNY1y5lit4m8p5P8AWRp9yvZjhsViKZxQq0KPxHrT/FTw/wCF4X+z3iNL/t1xXiH4qeIPEl4slvcN5G/+B642Hw/aag6XmqahKzTf8s/LrqNE8N+H7JPs9pbtu/267cPl0KMNSZYz2xasI9Uk/wBIxL87/Jvp1zYW9n5sf/LXy6sfbDp9t5cci7If9XWD4k8cafbp5fmJvSoqw5qYUPcJdIu/tEz29xqGz/pnWjbR28kzxx3Oz93+8rz6bxpZ26NcRxp5r1Lpvjz/AEaWP7REs7x/x1zxw51SxR2V5qNvo9r/AMS/VNsr/JJJHVGz8Yapod/FZyapK0E3364LUr/VLj/R/tCu/wDyz8uuh8Nx3FxCmlahvdv+elctX3C4T5zubO4jj367JcfL/wA868t/aC0vUJfDb/8ACPx/8fj755K7Kzs9QtvNvPMZrWH/AJZ/7dUtS8N+IPFGjy3l5tgt0+SsoVffOyNL92fAfx7t7zw3a/Z5JGaJ/wDlpXzXrEklxeNJ5nyeZX3T+1p8K7O40eWPT7zc/wDyzj8uvlrWPhHeWemveR2e56+6yTFU/YH5/n2DqRrHA6bp8dvbtJcUybVLiV10uSzdYpvk8yuv8K6fZ29tLcaxb72T/lnWlb6ho95vt/7Li/6Z/JX1EKsD4ydKcD6J/Z4/bQt/hf4A0v4f+BpEtZYY/K1WT/ntTf2q/wBqT40fHjxDB4k1DxBcOthB5VoiP8myvIPD3gvw1In2iP5ZX/1lb0PhfULO28uz8Sbov+ee+tcTVxX/AC6OrDLCzo8tUwdH+LHj288Qvo+qWaT2s3yP5leLfG+Oz0fx4/8AZ9mqo/8Azzr3V9Ht9Lml1C8uU3v/AB1y+s+C/BdxeNrF5eebP/00rihHGTn75rV+pQwvLAg+CHxE1TQtVs7izvPK2bK/W39kj40aX4w8E2WuXl586QbPL8yvx+1Xw3HJJ9s0ORonT7myvVf2af2tPHHwvf8Ase83+Uj/AHJK+c4k4f8Ar0LwPoeGM9o5b7lWJ+3Hh7WPD8tt5b3Cbng/jrz74i6PZ3FndILh/Kevm74IftcXHizTf7UvJE/uf7del3nxQ1DVNBbWI40eJ/4Hr4z6rXwdH2Uj7T2tPGfvaR5V8eLjw/o/hi4s7jT/APR/+Waf3K+V9b8cadpVtPb2959+voL45ahHrelS295ebE/v18nfELwvHHM32aTcryfwV6uW++eTj/cPS/gVrln4f1K11CS8X/TJ03yV+lnhvxJo/iD4S2txcRpFdWdptSf++lfkR4D0/XNQu4tDswyOn72Cvv8A/Zg8Uap4w+Dkuj3l463VtH5UiSVy57+5R1ZJ++fKeofDrxbZeIHvdLkvE/c7/LryL4l2+oSeIZ/Mj/dQyf6yn+FfFEfgfxy+l3lx9+Stf406PqFxoMuuafJ+4f56+Dqx5Z8599h4W9087v8AT4NThaSSTYiR/u65Xw9eXmj6xcR2+obU8yt7QbO4/seXzLjza828Q3l5Z684t43+/XD8Z7tL2fsz6J8L+H47zwq32y8T/V15glvZ6H45X7PIj/v99T2HjTWP+EYeO3uHV/8AppUXgDwHrGqan/bF5I7/AD1rShaHMc1WfL+6P0O/YM+MGuaf9l0+8uP3T1+gnhXXP7U01LyT5vuV+T/7O+qXnheW3kuJG+R6/Rj9n74mafrnhuK3lk+bZX69wTmU50fZTPw/jTLIUq3PA9hpk33aWzk+0Q+ZRN9z8a/Rz8/Oe1v7j/SuV1bq30rq9Z6P9K5TVfvt9KDSBwfxk8Nx+IPA1/p8lvu/jjr5ohOoaXqUUUdmyxIn/LOvrTVbb+0Lae3Mn34/KrxK/wDD95p+sS6fJZo/kybPMr57M6XPiozPruHa/uSpGVYaPJ4gRZLezld/+m9a9n4P+IOoJ5en3EFmif8ALSeDfWloOn6xcX/2K4kRIq77Srjwf4TTFv4bvdSn/wCmEeyt6UYW5i8ZL95ynG+FfAfjTzvtGqeIP7R+f/VxwbESugv/AAn4wvIfLl0/zV/g8yP7ldNN8efsds1mNPs9Ll8v9xPd1iX/AMbPD8lt/wATP4kWUu9/3kcEmxK19w873znpvDd5bwy2eoWez/rnXjfxQ8L2cnmyR/urqH5K9i1LxBb64k954f8AFCs6P8kfmb99eXeOtPvLi8lvbgfP/tpXk4iHOepg58h82fE7T9Q8PzQXgjXypvkvpJE/grL8T6Xo/wATPAF18P8A/hJPsSpB5ugalP8A8sXT+B/9ivS/iv4P1TH2fzPNs3ge4k/d/wAdeczeD4/EFn/wmFvp7Nb2EDp5Fr8jo/8Afrw6uHnT9+J63tac4ckz5k+K+oftIfCPw/FofxY8N/8ACR6M777Sxg+fyUT/AJbJWbD4k1z4qaUknwz0eXWb+zjRr7w5Omy7hT+D/fr6c8PfAfxgm/S4/GkWrxXOx7ux1KP54Ueuo8JfC/T/AA/CnjzT9HtbLxDNdfZ3uvI+SGFK6MPjK/wyODEYPC8nNE+ddB/Z38UaXc2//C5PBSJBeQI7yRv89nv/AL6f7ld98Ovgfpfwz03VvEnh/UINS+03f2TTtNupN/7l/n85P++P/H69i8H3tn8SZ7//AIXJ4bTSLqaeay0rVX+5f/uX2V8fX/wz+Mmh+P7/AEPT5NStbLTZ/wDS57ufZ50Lzb02V7NCrznhV6UIHruleG/D/wAVfFUvw3+JHhtNIl0SBJYIE+++z7//AAB67nxz+xv8EvA/wS1n40R3j6vZQ75bXy/7n+5XceP/AIZ6H8QJLLxJb6/F/blnoDxazPP8lxvfZ+5/4BXnEPwP8Qfs3/AfxhJqHji41mzSd30rSpP47N/9iur2pzwpcp4t4t1ST4galFqnwjt9RgvdN/4/rW7k8nzodlUf7Q+KHgApqGn/AC3Dx+bpTyJvR/79dl45t4/2lPAF18RPg34gS18S+ErRP7RtbGDyt6fxp/v7K4PW/GnxIjTQ/FnxMt7dNJubV0g8+DZ5P302f771cZmUYBrfxc8L+KPGeja54o/4lst+n+l+Z/x73M2/53RP9+vZtY0v4V/Hh4PAdvJ9n8QWDp59j5ex3ttj/PXiPjbwf8MviRo/h/4f6fpf9l6tqU/m6bdvP9xEfe//AKBW9ren/FD4qfFS31f4X3kVhreg6N9itb6OPYk3k/J8/wDfquSAcxQ+GPxI+G/wb+M3iH4Z+MNPdbOGdH0qSeP77/P8j/7FexTeMNUt9Ei1DRtYTRLXVbv/AEu1SPZ9pR/uV8s63o/iD9oDxVceH7yRfD3jnw3+9vvtcG9LzZ/An+/Xtl7408YeNPhjoPhfx54bW1v/ACES0RE/e2zo/wB96468/cOigeX/ALVf7O/xE8YaPYR6pZsktzrP2SOT/lt/fRH/AO+680+C37H95J4k17UPjBeXGnad4bj83y/7+z+CvbvHPx78aeB/E9l4L+JGoWGpWtzYpd6dqs/zu779m/8A2H+SvWvAHjj4Zz6xZeA/iBqlrqn9vWO+0jkj2b7n/bevBxtWcaPJE+gy2VOEzl9A8SW+qeHtD0+ykXY8CSx+fJ/qU2fI/wD3xXvvwZs7PVHis47yWe8uURIH/uV55Yfs52+n+P7LR/saajK8Dyzxwfcs4U+58n8f8GyvXPgJ4H+IHw/0e48YWehtdSzSPFpsDx73315uXRhCp7562Kq88PdPoLwZ4Tt7Szg0v+2HiXZvnfyN+9/7lXfEn7PfiTW7B/7D0PS7f/pp5H+urI8PeX4T8KpcfE3xRFBfzfPJBB/BW5D8YNH8LQxSWenXk/2n7kk99sR0r6bC1aPOfOzjXPLvFX7KfxA8Nu+qW/w3WX/pvY/frhvFvhO58Np9skjurOf/AJaQSR/PX1lon7UHhfS4Vkvby6g/6Z/8fCVP4t8SfAf42aP/AMTjXPsV0/8Ay/fZPJ/8cr0Zx56YqGJrRnynxX8PfAes/Fn4hWHhPS7jYl5dojxx/wACV+nXgnwlp/hDwlZ+GNL+SDTYEt0/9nrw/wDZU+Ael+E/G1/4wj1Cwv7WH5LGe1r6FTy9nlyfxx763yyly+8eVnmKc5+yG0UUV68jxeXkCiiiiIgpyf6v8KbSpJ3qgH0tr9/8KRO1CfJQB03hquirmvDEmfeug/g/CoSuAtFFFWZhRRRQAUUUUAfzZ05On402igzJKj8r/Z/WhPv/AIVJQA1On406ilTo1AEqfx1a0qSMXnlyf7FU63vAemDXPE9rp/l/650SufEVeTCTlI7MJDnrwgfob+w9o0eh/DS3vPM2vMm+vdn1COOF7iSSvKv2fdOs/B/gO3s9R+XyYK4j48/teeH/AIf2F1Z6XqCPdJ/z0/gr8dq0q+PxU5Uj9Wo+ww1CEZHZftJ+PNL8N+G7q8vNQiiR4/8Alo/z18PfET9oDxp4w/4p/wAB3HlRP8rz1jfFT9oTVPixqjR6xrEs6P8A6v5/kqr4V1zw/wCG4fMkjR2r28Bw/wDbqnnYjPIQfsqRs+FfhfJJZtqGu3jea8m6SST+Oty2t/C+no+nx6fEjv8A8tP79cfrHxIuLx0+xyPsrJfxZ9ouZY72Rtlet9S5IHD9fhPc9Qe40OSz+zxxpvT/AJaVh3/mXLvJp959yOua0rxZZ/Y/9Y3mpWff+LJLy/8AKt5HVP8AlpWX1X92b0sUWtb1zXNPtvMkk3pvri/EOqSao7yR3Gxkj31o+J/Fkn9mvZ/frzq58Sf6Y1x5b/JXBPDno0sV7hPqWqahJN/o9421Kl0TWI96XGoW8rsn+sdP46oTeILO3j8y8+Xzq1PDFnp95N5kV5EiP/f/AIKicPcHzc9Q7Dwf4g0vUL9JJdPl2J/q99d9f3Gn6fbLqEdm/mv8kdcV4ej8P6e8UtvePK6SfvHf+5Xq3hX+y9Y0pdXs/s91FD/BXhYr3D3cFyEWgx+ZZ/Z/+WUPzySSU6/k1C8T7R5cVvbpJ/33Vi9uI/srxxx7In/5Z1karJJZ6V9jjk+/XkRkevA8W/aat7fWElvI/wC5/AlfOupeC9UvNunxb9s0f/POvpn4keG7i8SUXG/yv+WlYmj/AAzkt7aKWO3Z0+/BJ5de5luIdGZ4ebYenWPlLxJ8L/s+gyy29gyPDJ8/mfJXOad4HuLdPtkduzolfeevfs36f408JPqkc6xXT/JHBXB/B/8AZrk1DW73Q/FkeyL7X5TxpH8+yv0DCZlT5PePzzFZXU5/dPma28J6x9mW4s422zf6uqH/AAj/AMQLi/8As9n5v+s/uV9xw/sLaf4b8T/aPD2sS3Wm+Z9ySP7leseAP2R/A/iyBdP1DQ2WWH/Vv5ezfWtfOaEDDC5JWnP3z8/fAH7M/jT4ko0eqaq1u/8A1z+5Xu3gz/glB4g/4RtPEGoaql7Zb/3mz79fU+ifsl2enw3lzpc/kXVnJ+8jk+49dX4Vt9Q8P2H9j/2xKqbPng/gr5jGcS1oT9w+owHDVM+U/iF/wT78N+G/CtrceC9H3XDx/vHevkP9pf4RyfC/xbbx2+nsqeX+/f8A26/U/wAT6xqlwkuhx/NE/wDHJXy7+0b+zvrHxIS4zKu5K48DxHN1vfOzHcOQnR9yB4d+zN4wsLOBNLuJG3eXXvsPxlj/ALHl8P29u/7lP9ZXz74A+DfiDwnrEtveW7p5L/JXoOg3l4NSutK+x/M8H365szxtDE1/dNcsy7FYOhyyOc8Z+OPEEepJZ3kjy2bvvjkrz74kahLI63FvJvTfvkj/ALld/wCJ9LvLOw8y4t9+yTZWB4t8F28lha3kcnzTSfv0q8POnAwxUJlv4Vx2dxrdvJZyJ9th2Ps/vpX1x8NNY0/S9N/tTS/3SbP3/l/36+TPAfge3t9Yt7yz1DyrpPuPX0n8No5I9Nl0/UI9kvl/vI/79cGf1eeCPU4foclfnOK+LXjS40f4i2+qyyfunn/1le36DqsnjT4Y3VnHcebF5H+sr5f/AGmba4s53vIrj7j/ALtK7T9hv44f2gsvgfXLj5Hj2J5lfMypc+F5z7L2v787L4V+G5JJZdLvZHfY9dvD8C9EuUlvLi3X/gddV4M+E8lvrz6pZ/PE9dD8TtDk0vw9LJb/ACtXiKmdVTFQh7h4JdeA7eTW3s449sSf8869M8AeD7e32R+XWB4J0O4vNVaT79e8/D34f/uV+2JsrthGEjir1akSfwl4ft4/Kt47ffX1z+y1p8lukUfl14LoOj2en3iR2cW9q+qf2dfDdvb6at5cfer9G4Nw/wC/5j824qqz9hyyPbNN/wBT5Z/550s3X8aTT/ufjSzdfxr9VPzKJg6z0f6VymqxyB3krqtb+4/0rmtT6j6UFmHNHFIjxSSbNlfOf7Vf7QHg74J+PNG0vxpI9vZ6rB5sE8affffsr6MvPLjjf+89fGX/AAVQ8P2+sWHhq81C3+aGfyv9X9/e9eVm0LUec93h3/fYwPdfh94k8P8Ajzw/b+KPB15FdWs3yJJBJvrZm8U6xpULR6XHEj/8tJPv15N8ELfT/wBn/wCD+jf2fbqkV/seT7+9K20/aI8B29xL9s1C6um/54eWiJ/45Xz+Fx/P7h9biMs9+U4nQ3+uaxcTeXcaXFe/xpa+R8j/APA6ivND0e4s0uI/AGjWreZ+8/du7/8AodWdN+LngfUNHa88PaFcLeeXv8tH3pNVrQfGniDxRN5un2cFkk3/ACwuoPuV3zxB4nsp/aOV1vR9QF55mn+F28jy/wB5Ppvyf+OVVs/C+qXEL/25qDXsX8CPHsdK9Vufh/rmqW32j7Q3/bDelRaV4H1CO48vUI0RPL/56b3euKrijekeO634HvE1uL7Hb/arKaPZOmz/AFNea+NvB3/Cm9Sn1T5H0u5n82CPf/qX/wBuvbfGfjzS/hnrF5JJePP+7f8AcPH/AOOV82fGz4uaX8QLO1s/scvlPJsurWT+P/crgnKpWNuc5zxVqnxE8J3X9safp8E90kn7iOSdP9Phf+5/uVV1L4qaP8ME1Lw38ULxv7GvJ4Yknk/gmm2f98ffrnPEOh658Q/HK+D7LxRLp3kwf2gk/wB/yX/uJ/3xXOX/AIT0/wCLnwv1aP40W091qXh7xBDFqscEmxJk3p5M3/oFdFClD7RxVZTmetfE7xx4L8aO3g/wtrFu7+Hvs1xJoccn75E2J++/265f4o/GTxh8WPD2o/DPS/C9hZvrfkxaH4gu49j74f4HrkJv2c9Ut/G0vizS/ECeb/ZSW73UD/fT/ljDv/3Nldz4C0f/AIWh4k/4Q+zjilv/AA3Y/YpHk+RPtP30d/7n3K7aVXkOP2XP8Zo698GtQ8PzeH/iJrnjl4H8hLfxGk8ldd4n1jw/8ZPgVe2fhfxB9v15NA/sn5HREmv/AJ9j/wDA99UvjN4e8NeJPA0Wp+NPEHleMvDFij+LdGgk+S/R/wDlsiVxvhi48N/CfQdX1nS9DRm0e+03xLpunI777m2R3d0/8cqoy5CJfynmX7En7L/7Qnh/4wfEG40fS7Wwi1WfyknupP3W9ER3evc/H/7K+jftGQ6T4f1C4t0stEj+zz+R9ya5R97vXH/FT9tiz8B/ArQ9Z+C9v5+ua3oc17PBJG7pbOjzO+9//HK4X/gn1+0x451T4nXGseNI7eJfsj3FraTzukX2x/kRK6Ie+ZS9z3TkP2n/AIV6P8P7mws5I3+2abqPlefa/fh+/sfZ/uVzkPjjT/hvoktvqmh6v/p+oomm6jBP5P7759+//Yev0M+Mf7M+hftEeHX8caH9gt9cmsf+J5s+59pT5NiV8HS/CfXI/D2qfs9/GTVYnlv9Vm/4RXXEf5LO/R32ec/9z79bwl9ky5PtHa+MP2T7z4sfDf8A4Xp4D1CWz+IMM8LzyI+y3R/n8lH/AN/56ZpXxM/4R/xPYfBf4seH3t/EEKebY6w8G/7TNXqH7GeseIJPhRP8O5PGFvf3TxzWU988HyXOpW33N/8A338lYn/BSPwHrHwP8Aab+1Zp+sWsV/NGiSWl2m97N6wnDnNY1eQ+Z/HXwb+IHh/x/cXmuafZa3pE0aRJ5n+t2edv/wCAffrqry3+Hel2GkeILzQrqe9+w3kVpIn3LZ9j7Pnrpvgr4s1D4ya9q8eqa5YbJtNtpf7ST7iPv+T/AMfrYfwX4wk8JPoccmnXsVzdzW72vl7JoZt77Jv++68qr7lY9TD8nJzk37LXxAt4/B9/4k1HUL2fxLNHZ27+ZP8AwbNmyvqDwr+1xp/hvVbXwPJo6LLbf6P9r/g87+PfXyp8OvhnrvwT0rXviZ4g0trqBNGdJI/4Pt8LpDsT/wAff/gFc/o/imTXNVTxBcSX6W8NqiWP/Tzc/wB964KtLknzHVS9pM/S74aeB/C/jSzl8c6x/p9w8fyQTv8AI9c745+AfxU1jVZbyO8sri3T/UWKf8sUryD9nL40aX4b0dfB+ueLLi4uvL/0p/7j/wByvqX4dap4XvNNTxRb6zdfJB+7kkn+R66sHPk98J+0PJNH+EesaXvjvPtVrOn/ADzj+SovEkeoW9ymj3Fury/cjk2fO9e3/wDC1LP7M1xBeW6xTfJH9rg+es3RvGl54g8f6b4f/wCFf2Eu+T93dunzp/t16SxXtvcIjz0aHOenfs3+A7jwf8N7f+0AyT3nzuj/AH69A/d7PMk+/wDcqCw8yOHy5Pv/APTOpq+lwtL2NDlPjsVX+s15SCiiiuo55e+FFFFAgooooAcnX8KdTE+8KfQB0Hhj7hro0+6K53wx95a6JPuigBaKKKBcjCiiiggKKKKAP5s6KKKDME+/+FSVGn3/AMKkoAan8dSp90U1IxipY+9AEsPX8a9a/ZL8L2eueP0vJLfekPz/ALyvJYZPLr2T9mzXLfwnoOpeKNQvFt9kfyf7dePnfO8vnCHxHsZP7P67Gcz2f9q79ryz+DfhJtD0O4Rrx4Nkn+xXwFrnjzxx8UNSl8QXlxeXSP8Ax/Psrv8Ax48nxE8eP4k8aag8sCSfuLH+/wD79dBpXiTS9O03+z9H8PwRQfc+5XlZBlcMLQ55/Eepm2Yzq1uSl8J4nNqmuaei/ei/7Z0/SvF+qR3Hlvcbq9X17UPDeoQ+XqGhp/10ri7z4d6FIn2zT5HR/wDrnX0MKXOeNz/bH6V4wk87/TJK1Lbxp4bkklt5JE3Vzc/w/wBQjT7RHebv9iuYvfD+qx3Uokt5f+ukdZTw5rCqeqJrlnI7yafcRfPHWI/iCSNGFxcKj1xqW+s6fD+7lZ1SOqv9sfbH+zyb02fx1hPC+4bxxVSB0c1xcahM3+mfJ/10rnppJLLU3/0jen8dQJJJG/mR3DulQfvNQv8Ay44//H68ivhT2sFioTgWZtP1DWLWJPlREkqOGPUND1VPtlxvRK3dBjs7hGt7j5X+55dZ3jbR5NPtvL+2JsSP5K8GcoQme7CM3DmO18MeOLeSwT/iXo6PHteuj0Hxxpfheb7RpF5LEj/6yD+CvC/BN5cW9ytvJqnyf9M67+e4jt9mbfzU/wCeleNjKR7WCmep+HvGl/qmqt9n1D5PM37JK6C9vL+SaW4jt1avI7a88ySK8i/dXGzZsjrpdB1TxBo9t9okvPNi/jjkkrxpQme7CrA1tSs7y8tpRcfIz12Hw68L3EcKfaNkqQx1z1teR6po/wDalx86J/crtfh7qkcln9nt7d/nf79a0p8hhVhzl+z0/wAN6Hfxap9jZ97v5kcn3N9S+BtH8N3F/f6/eW6W7wz7oJP79X/GGn6fJZ25s42/1/7ypdf0LT7PwNLo+nfNeeZv8+vUoY3kPGq4Xnnyl1NHk1C5TUPtjxJcv8mySvUtEs7jS9At7y9kTen+r/d/fryXSri4f7L4f8z/AEhI99d+/jDXNP8ACf2PULfzUhf/AF9Risf+7LpYLkLj6jZSvcXHmfM//fFeeeP9cuNPfzNPCbvuVznj/wCNH9l20pj+5/yz/eV4h4h+MnizXLlxZ3jrEkn7uvn6uK5z3cLgJnqet+KJPs32eSR2un/26l8JfCu98QQvrniDWHR3/wCXVHrn/hF8P/EnxEv4tU1SSWLZ/H5dfTXgb4b6XodhFHFZ/apU/wCW8lZQq87Oir+5PnbW/gHHJNL/AKGib/8AYryrxz8MpPB+q/abezbf/wA9K+/dY+G8clt9st7fZ/10ryf4u/Df+0NHlnjs0Z/+udcFWrXw9c6qUqGJoch8PP4fkvNS+x3luzwXMn7zzKwfHnhuTwHbSyXlm91av/q/7+yvernw/Jo99KbjT0f5/wCD+CvP/Htnqhv5biS3e4t/+ebx17mExvOeXjcBThT9w8O8JXGqahr0UmjhvImf5I5P4K+qvAGl6pHYW+qeJfvQwbPM/v15F4b8L6HcXP8AaGiW6JdQz/v4PuV7JZ3moahoKaXJH8z/AOr/ANilm2I9rTIynDzhP3jxb9oSO31Ca6k/grz79njVLPw98RYjcSbf3leg/GPw/rFuk/2y32r/AM9K8r8MaHcR6qmoW5+dHrDCy/2XkPSrxqQqaH6ifCXXLO48MRXFvcI/yb64T40/ES81DVW0i3j+T/pnXlXwH+LF5p+lJp9xqD/6uujm1S31zxVFJHcbmeSvJq+4dVDC+1nzyPSvg/4TkuES4kjr3HStLvI7NY7euc+Ffh+OOzXy469O0fT4408u4t99b4OHOeTja84VDm9K0u4j1KKSS8dX8z/npX1v8BNQs7fRIjcagn+r/wCelfLXjCzty+bOR4m/56V6R+zZb6xezeXJqjSp/cr7rhOrUhivZHxXE1L22E5z68sNQs7hP9Hl3U9vutWR4Ys/s9mv/XOtb97X6vD3z8y5OQydY+4K5PU/vv8AWus1j+5muT1P77/WrAyLn/Wv/wBc6+Tf+Cl/hvVNY8GaJqFnG7fY9V3v/wB8PX1fdd68R/bb1yz0P4D69rMmjtdS20G+BE++lcmIj7ahOJ35XVdHHQmcR4D1zS/HnwEt9PvNUT7RDBs8xH+eGvHn8P6h4bmuhJGkrzXf+s8z+Cue/ZX+Onw/1jwHqlnb6wkVxeQb3sXf50evXfhjb6P8SHTw/JJ5vyb4H8hPnr89hHkxHun6fHEfuOY7L4FeC9QvEf7PceV9p/1G+f7j16lonwn1W3vHk1jULj7a/wDqJ4J38lKxtB+D/wDZdhFeXGqy28UKJ5caVs6b4k8UaPc3Utno91LpaJ8+z599erL4D5ytP21T3ToP+EwuPC+m3Wjya5KksKf6udPv/wC2leYfEX9py80vSpbzS7e1uJYf9Z9lk+eauK+NnjzUPiDrf/CN6H40Sw1mH/kGyTyfJMn/ADxf+5XmPw0+FeqWfiG/0/4mXD2t/D/x4x+Z+6R//Z6wjHnM4e4N/wCF0eJPib4hn1Txhbvb2Fz/AMeMD/f3pXPeNtc+H/hPxtomqXNnP9neTf5fl73dJv8A0B0r0FPDej2+k3tn4kt4J7KzfdPHBJ+9hf8Avo/8FcR4V0PS5fEV0fHAbV/7N1X7XY6lB/zxf+B/79VCHvhKZyet+B4/B/xytdU0/wAQM+jPqs0s+z53RHRPkf8A2KlPgP8AtDUvEfhuS4luF1ixS4vtkn+ud5tkPz/98PXY6J4Ok8ePrNxp+uWu2G7miknePY829PuVdks7zQ/CSafHp7WFnc3yW893s3vbf7f/AAOujk/dmUTIs/h3qnwz+Htrp/iC4iaVIHlksXf55nRH2J/7PXjmmfGy88B3NrqHgfw3K+peKp5nkkn3pvmh3/JM/wDH/HW98XfHHjy88c6lZ+Y09xpsCfZbG6j++ifJvR66Dwr4wuPip4Ml8J6f4Ls4PEen7Lu1tJ7X57z+/s/26qhA56szE8PfEDUPjBrqeKNH8PpF4vsNHhuJEn+5rFm6fPYf7bpXFW0muaH8MfiN440u8Zr+zRLJNN1Kf97Zwvv+RP8Abr02G3vB4n0PXPCfw3uopYb5IvEFj9x7D+5Mj/wVv/td+CPAXh/w9deNY9HlTVNSntrjxNBBB/Am/Zc/+h12xjeBxwnzz5TxX9nv/hU+uWEHhOS8eWW5u3srGOePZ9xEfe/+xvetL9uL9kvVNQ/ZF8P/ABA/Z/s7yz1v/hKn/tn7LJs+SH5/O/3Pkr51+Ht54f8AAf7b1l8P9Q8cXX2Ca1dLG78vem/53RNn++9fsF8GfDel/Ej4Gv4ek0tFsHT7POkcn39/yO9cdKvOlUN6sKc6fMfPv/BKz9pzwnqHw0uPhP8AETXVvdetp/s8nmPv3+cm/fXmP/BQ74Zx/DeGDXNH0eJNIv75/njfe81y7/fryX9vz9nPxp+xH+2TcfHz4eW91YeD99hFstN+zfsRK+oP2t7yy/aM/Y2fxD4Xjgi1LSpLPULGSD53+4+/f/sV3SmZUo/uz51/Zp+NEnw/+OXhT4d/ET7Klrc3aXEj6b+5t7m8/wBv/br2T/gsxocnjD/gn74j1Q2/lT6bJDLYyeZ/x8pXxv4L1D+1PiBYf8J5Z28trearvtEtPvw3KP8Avtn/AI5X19/wWts9Us/+Ccul2fwv1DzYn2RSb3370/23ogYTPij/AIIyfD/x58RE1u8+0N/Yn7mL94m9Hm3/AHK+0vEPgvS/B/xkuvEmh/v7JLSG3u/3+9IblHR3/wDQKsf8ENPgnp/hv9j+KK48Nv5+q6w93v8A9yFNn/j6V5L+178SPHH7Pfja6t9Q05YrB9Vmlng8/wC+7764avJOpzHfQ9ygfRXi3ULi48H+GvBWsR2v2XxJ4jmu7uT+DY6TPC//AHxXI+M/h/Z6hqtrb/C/T7W6t/7KTz5E/wBTDs+/s/268j8UeLNU8afBvwb4P8J65LLf+J02f2xv3/YIXffshT+P+5XrmieB/Enwn1vQfDd5eNcWX2RLfRrWCT57+5T+/wD7FZSpe296JrQxDhA838HyW/hvVdX8N65b3H2p53t7udN++a5f+BK+h/2ePF/ijwN8N4tL8YSPqV/vdLHSnk+eFP78z1Q+N954X+D+lWuoadodhdazc3f2vWZ/L3pYP/Aif7dcN4J+LHijUEXXLPQv9NvN8U7333Jt/wBx65Ie58R2Upc576nxA8U+PJl0fwX4XZ54ZP399J/qUf8A2K9Q+APw38Waf8QrPxRrGqI96n+vj893RK8n0PxZ4g8B2dheR3iRecmy7tIE+Tf/AH6+kfgJqH9sWH2zy4k3/wDLfZ9+tsJHnr+6Z4zEclCUD2KG4/fNGX3fP/zzq1/yzqvZW/7n95Hs2fcjq1X3dM+H5eRkdOT/AFf4UeX70cxn2rUQ6ihJPaigApr9fwp1Hlf7P60AR05Ov4UeX70iHyuKAOk8MfeWuiT7ormvC8npXSQ/c/GgB1FFFABRRRQAUUUUAfzZ0U7YPU0J0/Gg5wTp+NOoooAen3RT0k8v/WUxPuinyR+Z+7xQBLDbyXj/ALutTxV440vwHoKeH/ti3V/cp/qN/wAkNZGpa5ZeF/D1xrEn34U3x18u+M/jJ4k1jW7q8EjM0z/J/sVzV/Zz+I7sLzw+E+lNHvPtG+TVJP8ASH/5bp/BWxbXlvv+x2947sn35K+dPBn7RH2eGLS9Ykl+f5J3rt7b44W8kLXmn3G93j/5bzp/qailKn8Jc/fPTb/WNP8A+PeSRnenW32i8s/9Hj/7915bYfFTS7ia3uNLkib95+/8ySvQfDfiyS8s/LkCeV/y02ffrvhE5i1NJJb/AOsk+XZ9+SqsP2j7T5nl+av/ADzpmpXkccMtvJ/y2+dKwbzXbzT4fttvcf7FZSgbRmdTqXhuz1SwluNOj8qX+5Xlnie3uNLuZbeSPbXVRfEiS3h8q9+WsvXtc0fxIjW/3X2ffrDk5y+c5Cz1iON/9Z8if6yi58WRxu/2f5K5nW47jT5rjzJGWufTxBZiby5Lh6550qfwmtKvUgeseFfiJoccLx3lu8s/9+tbVdQt/EGjvcW+75P+Wfl15toln9psH1OzvNtdd4JvLiOF7O5l83f9+Svmsfg4H1WW4io/jIfDdh5k0vlyfN/tx11thrF59j/sO8j2/wDPOeSsa8s02f6P+6X/AJaSR1LYeXHD5mn3Hnun/PSvnsVSPpcPPkOm0HWLPzovtknz16N4bj0/VP8AQ47j5Jo9lePW1n5kzSSW7K1dloPiS30u2/0c7diV5dWhyHpUK56HpWlxaPDdaPJcPsSum8H6p9n229lcPXn1tqlxqEyapFeb/wB388ddz8NLe8j1XzLe3eXfXl1fcPShPnPRk1j7PZrcXGyXen+r/uVT168uI7OC4uJN6PIn+rqh4/ubizeLy4/K/d/vK5LUvGH/ABKvNkuN+yT5ErljiPsm6wsOTmPQ7DXNP0fWf7cuN7okf7v+/WH8Rfjxp+jpLZx6g0sV4/8Ayz/grhtV8cfaES4jkbZ5fz1xviTR9Y8QWaaxb3H7qGf/AFGyuWriJz9w78Pg6cPfmS6rJrHjS9uI9LuX8rzP+Wld98GfgPHqCeZqH71v7lWvAHwrt47O11CzuG/fIjzx7K+g/BfgPT47a1+x3CJs+/5dFKHORiq9OjT9w1Phv8N7fw/o6Wcdnsr0jw9pd5b/APHxp+xf+elULCzs/JS38xvkrZtv7Qt4fLkfcldUKR4ksRUmHiG4t5Ifs8dxv+SvIPHl5Hods3mRvKn8desa1Jbxw/u4t1efeIfBeoeILnzMfuv+ededj4852YCryzPDLHQ9H1DXpbjy1Rn+5HJWf4t+G9nqHm3Elkvmp/q/k+SvRPFXw/uPC+tr5e356oa9rkmj2EtvqGl79/3J0riw9WpA9efJiD5m8Q/B+TR9V/4SizjZGd/38EddJo8Hl2fmWfzy11tzqHmX7R3myWKb/V/7FYeq6HHJc+Zp+6L/AJ511VcRzwLw+F9ieLfGDXbjUJpdPvPl2VwPhLw/JHqUsf8ABXs3xI8N2+qWEumaxb+VL/yznSuK8JeA9Y0u/eOORZU/gkqqWI5IHT7DnOo8DeA/MjW4jkZK9H+Gngu4Pie3Mm5tklM+HXw/1S8RPtEmxXr27wN4H0vR9n8Uv/PSuWrVhMuK5KZ7J8NPD/kWEVdu8ken2f8Aq99c54A83+za6Oa3+0JmSSvQws/3Z8ni4fvDivFXizTxM9v9n/e12v7N/jST+2/s8fyVxfjrQ7OPfII/mrP+Huo/2Hr0UgvNn7yvXybFTw2O5jzMxoQxGC5T9BPCsklxYLJ5tbkkcif6yvN/grrkl5okU8l55u+NK9FEnmIklfuOEq+0w/MfkGKpcleZk6v/ABVyep/ff611Wr9X+tctqX3q6UcxiXkcmfLzXnPx++H0fjz4Y6z4b8zY81q/z/3K9Muf+Ph/pXBfGy8vLPwNqX9nybZZoHRHrKr8Mzowv+8H4nX/AMK9c+Efxynk/fxL9ueKfy5Pvp/t19N/steOLfT9estH0cRXl5Zz/u0T5Jdn+5Xmv7Uusad4PmTS7PVFlunnd0nk++711X/BNz4N/Ez4n63F4w8UXFklnpt3+4nkn/0hE/8AZ6/OqEf3kj7+Vf8A2SJ+mOj/AB0t7Pwmtxql4/2eaNPLk++if7FeaeNvip4kt/EMsen3EDq8e+CB49m+nfF3xp4H+Ffhj+y9Q0e3nl2bPMkk8l3T++m/+OvmCPxpJceIf+Eg8P8AiTVItImkfyJ/IffC/wDtp/HXpKHOeVGfIdtFHH4k8YazZ3mh2ejaukf2iOSSP53f/Yro5vFml/EDwpa6h4kuF+2WH+jvJH8nzpVa/wBc8D+LNLtfEGoeILKW9ubTZY6rPBs+dP4H/wC+Kw/BOh6HeeK7jXLyR4ry2g82eOD7n/fH9ypjHkNIT5zG+Htvrtw91/wkkjRKl08WovJ9yZHf5HrZ8B/D/wAUeF/E90bPVHuoLx/Ngnjg3pDs+4j11HhvwXb+MJvM0u32WDz+b9h3/c2fx133gy38N+de6hodxLb27/8AH9aSJ/rtn8aVrEmcDg/hv4Xs7ffJbXEUtxeSfaILW6j2RJN/tvUXjC48WaxpsVvo+h7ktpNniDTnf5Jk3/fSvXbyPw/pelTyHwfLPEkfyPBXlXiXw/4T+xy3nhO81GK1uZNk9jqT7Hd/7lV7WmTClUOS+Jc/hfQ/DbW+qeH3SwvET7JfRz73h/4HXjuj/tEeD9P8bf8ACJ3FnBZImx7GOSPe8z/30mrute8L2f2S6s7OO9iTzNn9lSI9wj1ymsfsn29vpT+KPEBS3Ww/ewaUkiO83+5D9+o9qVyHsv7MHxE8FeNPH+ueI/7Pvf8ATP8AR9S3/Pvf+B694+NnwT0P4geAL2Q6fE9/Z2P2fz0/5ebb+NP9+vkv9nvxhp+j+J/M0vQ9R0iW/RLfUbS+g2bE/gf/AH6+9PhjeXGo+HotD1izgedI9kE/mfO9bUsQuQ5a9Hl96J/PX+1j4L8SfDP9sbRNQ0/R51isL6F/9+Hzvnev2k/4Jp+MJPGHw9upNYvU2PIiWP8Ato6V8zf8FWf2M9UvPi1onx88P2cv2C22Wmq2vkfwb3/+Lr3T/gn14k8N2+iXGj6HJFFZWE8Nvvj+5/frzsTjoQrHfDLp/Vec9w/aK+Deh/GjR7Xwf4k0eC8tX86J47qD7+xH2f8AslfCX7IXg/VPhp45+KfwP+KmhyvpdhdwxaNqTyf6O/nb/wBylfpDrfjHw1p9smsahqkSRQyPsk/4HXyr8e/h/p/xEm1Hw34DuHuJb/X7bUJ3tfv74d+z/wBDrp9vz8pxxhye4fnF8WvgX8TPgH8ZNUj0OKX7B4P8cI8cckH3Ptb/APoH7mvvP9p/wH8O/iJ+yXpvwr1S4lWDxDoe/wDd/cS82fcrhvjZ8O/ip441XxBrmoaRcJeardWEUEckHyO9vv37/wDvuvQfEngvx58TLyWTwFZy2+k6Dp0Mt9o11/z+f7H+x8ldXPP2ZlCELnov/BLLw34es/2WtJ8P6NcOr2zvFJP5f8aPsr5M/wCC3/wruPsF14w0+weVX1JIoNifPv8A4/8Axyvov/gmhqHiDwXZ+Ifhv4kkgtbi21F7iCDf9yF62v8Ago74Xt/FPwZ1HR7cxJLs2JdTp/sb9/8A7JXBHGQhGR0wwtT23Kfn3+wleaXcJYaxHHLealYXUNvoGlffhh3p8719vftOW8nwL8DWvxQ1DT4p9UttN8rSr6f5PJ/268M/4I/fDvT7fx/q8mueG911pqJ/tpC/9+vr79tjwXH4s8PS/wBoaWl//omyexf7kP8Av1dKvz0/cHLD+xr8kj88dS+Pun+MbLTpNQ3X89s/m3U877EuXr0vxne65448PaDo/hu3iuGtv9NvksfuJs+4m+vL9B+H/ijT5vMj8NpdaTDO8Voljab0hf8Aj+evevB/hPxppfgxNH8P6fawfbP9Zd7/AN9s/j+SuL2vvndKMIG58E/iRcR3n/CL+KNPiieb5Egnk/e/PX3D8FvCUej6NBb294ixeWjpX5u6lZ/D/wCDfxFs/iRqBvJdUmnS3jS6f5P9+vvD4I/GjwX4g8Np4g0/VLdpUREkg8z7levltWnCZ4WY0qk4H0ZbA7P3ktS1zngnxZZ+JbJLiO8idU/1eySumFzHs8uP5q+vhPnR8zyzh8Yyo6korUQ1Ov4U6iigAooooAKjqSigDe8J10kP3PxrmfCX3z9a6qH7n40PQzG0VJRU8xXMyOiiiqKCiiigD+bVOn41L5XsajQeVzUifdFBzh5XsaPK9jS0UAOj702GT525p0feonj3o0nmKiVPPyFROQ+MGsD+xH0+3k2V8ua9JeW8Nx/Z/wAro+/zK+kfEPl+JNefS45N6O/lR14B+0npdn8K5rqz1C48qXZvSP8Av150vfmejS9yB5T4S+Lmof8ACUNo/iT5keTZBdf3K9LsNUks5kt/M3JD/wCP18sX+qSXmqvJJcSoqT7/AJK+ivDd4bzwfZ3F5H83kffohDkGdZYa3J5z6pbxxJ+82Rokld14S+Lkmj373EeoM+9Eef8A3/7leQaVJGHeT+Cp/FXiiz8Po15JcKmxP/H63hX5Bch9B/8AC4f7ZuYvtFutu3z+en9z/YrNv/HFv5MXl3Hmvv8A3cG+vk28/aM0v+1Zf+JpPvf/AFjpWr4e+KEmsXKSaXqjN+7+RPM+eiVcy5T6dXWLzVN3mbInT/lhJVDVbyS3ubfy5Pk+T/Vx15Z4J+JGoR363GqXEqqlek3PxBt7yzW8+zqyfJ/yzSp+sFxpG94q8Nx6p5VxbxuzzR/PXjfjPR5ND1iez+66SV9Aab4g0u30l9cuLJkRIP3dfM3jPxBqGueKr/UJJflmn/8AHKirPnEtz1D4UeNPL0dLOTT0uE316lbR6db239oeXEv7j7lfPvgCSOzmT+ztQ2L/AMtI3r1P/hKLeLR/s8/zM7/6yvn8zjP2nun1eVzhyFibxReR6l9njjTyP+WmytTRLiMJLJp8n/AK4qTxRp8eqv5ce1fL/wCWlamiXkkifbPM8iB/+WleLVpc8D3KFc201DUP7S8zzGddn7yrtn4gjjTy9QjdP+mlcl/wlH2NHjjl3tv+/V/R/GlnIlxZ65b+bE/zx7Pv1wzpe4dlKr756r4V1GXyXuLOR/s/l/fr6e+AP2O48MfaLSRXndP9XXyl4G1i3uNKfT7ORPKm2fu5K9r+GmsXGhpa3lhcbfJ/1n7yvm8fLkhyn0OC98734xy3FxZ/6Zb/AL1E2V5domh3GoX6QSXGxH/gr2K/jt/Fif8AE4LfvvuP/BXn3if4d6x4f1Vjbybl3p5ckdfNe0mfRUo0+Q0rP4Tx3jxfvEX/AJ6eXXQP8N9H0eaL92j7/wDWfJTfBNxrnh+2lkvP3v7z935ldGmuR6xMkklv8yVrze4YSmdL4GvND0uz+zyW6/P/AAbPuV2GiWdxH/pmnyRIlcl4V0O28Q7rfy9uz79dtonwvuLCw+0afrDv/wBM3rqpe3PLlOjz+8dbpmsf6H5clmvm/wB+tWHzI7bzPLZkrm9N0/VNPtvLuI3dv79dTpuoahp+mt9sjireMp/bOKXJ9gie8097Z7fy9j1ymq65b6deeX5fzVo6x4gs8O9vGiPXJX+qXF5N5lxGqrXHiK8Drw9KcIHP/E68t7yFZPM2P5lRWHwnvNQ0dbyW88+J0/1dZHxXuLf7MhTen7z/AFlel/Bm4t9U8NxR/aN+yNP9ZJXLQpe1md9Su6NA8F8bfCPWND1KXULbT3+zp/cjrL0S80u/he3kj8qVP+elfX3iTw/o+saU1hHt2un7yvHte/Zj0v7fLqmn6hs/2K1r4XkN8Lj4Th7x89fEj4fm4s7i8ttrvsryDw9p/iDS7mWKSzfaj/6yvrTW/hHqEbvbx28sqp/zzrzfxV8N47e5e3Pm2rf885I64onr4erTmcHonxI1zQ3+z3G9Vr1fwH8WPtHlRy/O9eX638J/EHnfu5HlWu3+GnhP+y0STUI33pWEj0fYU50z6t+FHiSPUNNU+XXeJb+Z+88uvJ/gzrFvb2yR167bahb/AGPMlepgJ+4fF5jSnCZxvj+3k+zS+XXlmsSapp7/AGiOT569d8Va5o+x/wDSa8q+IVtb3mmvcaXcOrV6+E9yoeV8a5D6f/Yq+Kv/AAkGkppdxcO0qfJJHX1Nb+WYfLjk3V+UP7Jf7Tkfwz+NkHh/Xbz7OlzPs/eV+qnhjVLPXNEi1CzkR1eNHSv2HhzFKtheQ/LeIMHPCYrlK+q/clrmNT+4/wBK6fVY/kfJrlNR+61fQnz5jX0kcaNJJ8j184/tY/tCafo6XHgbw/sur94/9X/Aleq/Hj4gXnhPwvdf2f8APK8exK+Nb/8AtfxheSvHo9w968/7y6fZ9yvDzfGclHlgexlOD+sV+c8b8c/s7R/ETxDLrHjiP7a03zpPB9xP9ivY/wBl7wvb/Be/l1S4jWwtUk2farFHfzv9xHruvDfw3j0vQ7OS40p/t6f6uSR/k/4HVDVfg/4sj/4mml+PLXS5Ybr95YpG80Lv/sb6+SjE+rlUh8Bh/E74iXEnjCfVJPC9xLBfyPbzwXbpM8yfwPs/grM+DPwXt/A+pS6xHrEF1p2pTu8+lX0E0P2Pf/Bvmr0v/hE5LOwfUPGEf2+9Te0D2trsd6v3niD4d+LG0uP4iR7/ACYPKS0g3p8/+29b+15DjhS5zyfxP8P7yPXte8J+HvA8H2BI/tEE/wBu2RTP/sI7/wDoFdD4A8J/8InDYXl5qkWl3t5a7JEvt7pMn9yt3x5Z+ZBLp/hO4tdI+T9xHfQTS/J/sPseuE8PR+JIpn0fxRrEsrI/m2v9o2Luif8AjlL2szT2SPXPD1xp+h6O2qafL9gdP9ZAiO6P/uVna3eR+H9QtdQ0OOVfO/evJI/lf+OPXn1/8WPDfhe4lvNQ+JC3/wA+yfToLG5TZ/ufJXJa98VNLuPtEcdnrN1apJ5sH26dN6f7D/P9yonivY0+Y2pUvbe6e/6zf6p4ksEt9L8aJFceXv8AIotvgteXjzySf6bql4n+rvnfY/8A3xXhPhj9oD4f+F/ENrcXniCJZXj2R2vmb9le0+J/2xPD/wAP/BM/xU1zT5bi1s4NkEkEf+xXFQrvE1Dsq0PY0zXf4L+PPBemRXGoaw8USf6yCxgR/wDx968v8dXmufDvxDBH8N9ceCKa736rqOq2Pm7E/uJXzXZ/8F3Pix8ZPHlx8K/2Z/gZdXl1NO6PqN9Jv2fwfcd66Hw38P8A/goB4o8Tz+KPiRqi+Vc73/sPyPkSu+rV9jDkPNpQ56h9KWHgf4fvrGneJPHHjizur+8RJZ/7Nk2bP9/fX0F4A8SeG7d1uNH1H7bE8aefdfa0SVE/2K/Mb4xfBv8AbAgeKTULNrDZH/oKJH/B/wCz1S8AftqftKfBaGCP4keA/wC10s02QXUaeS+ysPrUIfFAqVOU/gP148bfD/Q/ip4Sn0fUN3lTQf6uSD7n9yuN+D/7IfhT4R6PceH9Ls/3V5+9n2fxvXln7E//AAUo+GXx80eLR49YaLVLbZ59rdSbJUr7D0fy9YhiMF5uab/lpHWtKlQxPviliMTh6fJI8H+PHg+3/wCESi0+Telkj+U/99K+cL+PUPgR4A8UeJPFesyvdXOuQ/ZHtZP+Xb5/kT/xyvun4keF45LN/tlmkq/ck/26+X/iR4L8P6hrkXhfxJo32q1mu0i01I/n2XP+3/4/XTClCEzn5pzo85yvjb4gapJ4eT4ifbJWt7xEvZ4Nnz2yfwP/AMDrL0HULnwn4i1f4m6X4guknvLWH+0YJPuTQ/7ldf4l0fwXHqV/peqahLb3FzY+V/ZyRo8SQw/wf+P1Vm/4R/xxol7rGofZUtYdD3vBB8n3N+xP9+u/k5KZy0qsJ1DB8HePPDGsfGy98Qaf4fn064mvoYvsknyPN8ifPXo/x1/Z71z4weA5/D8euO8tzO+//vh6574P+F9H+IHxLtfFEenv9q+yJsvv4E2V9baV4bs/saXHyfOmz5K8L2Xtqkz0vrX1ecD5c/4J+/sl3H7P9nefbI3RnkR55JPvzV618YPA/iDxh4P1LT7PS182afbHH5nzzJ/feuh+IvxY8D/DrTZ7zWNcs7K3hj2+ZO+yvkj40/8ABWTwvpf2jS/hXZtr1/8APEl3awOiJW9D/ZBVZfWK/tTM8c6H4f8Ag/4ni8N6fJa2Es0ieZaQQO6TVXTT9Y8YJdahpesPZX7vsu5LGNPkh/4HXwv+0t/wVM+Nnwr1+LVPGHwPRrV5Nn26SR3317d+yp/wVQ0f4keHk1jUfAcWnReXs/cfxvUV6XIvajoS+sz5Dr/iR4f8H/8ACQ2uoeJPHl5fto9o7yefa/Jv+f8A2K639kHxR4X1jTdRjs9c3yzP/q/uVg/tEfESP4ieHrfUPhvJpb6pMnz2kcHzp/v/ACU34PvJp+lWVxrnh+1t9Sm+R4LH5H/36cJ+5zhOl7/IfWP7MHxcs/CesS/DrxZp919qef8AcT+Z8myvqfR7iTyfMk2ur/6uSvz++x6xceKrXxB4XuJdybN8fmff/wC+6+wPgP4413xLoMVvqkflNbfI8dfUZNjfrMPZHzOZ4LknKZ6ih83imUQ/uqeP3h8yvd+CfKeND4Bj96b5ntTnj+T+lN8v3q4iHUUUVQBTfM9qdUdAG/4R6/jXU2/3H+tcp4Vkz711FtL5aUMzJ6Kj8/2o8/2qOVgO8v3ok7U3z/ak833NVZgLUdP833NMpgfzd09PuiooZKe/X8KDMfRTE8qL/WU3/SLj93b/AHaAJ1k37o5Puom96w9S1yOOxutUk3+UkeyCr9zHHIn9lyf9tKxviXqB0vwZcW8X8CVlU+A2w8P3h5RDrmqXF5cXlnJ5UsL+alani3wp4D/ag0H7P4wktbXUraPZ58lcfoOoSXt+0se/ZvrlfiXo+qeF9Zl1jT7i4RJo/wB5XDH3D0OUw/FX7K/gPw34hXR7PxLb3Vqn+sdKq63b2/h/Tf7Lt5N6Q/In+5Wl4M8zVEaSSR2Z/wDnpWd8S7eSNN8cfyJVc4cozwxJHcWDXAryX42eINQvLx9Ks/uV654Gt5P+EDaSOL771w2q+F7O41VpLz7k1QRKJ4Y9nJZv5kkdeofs9+G73XNb5uFVErN8T/D+S3uWt7ON9r/6vZW58IvFmn+B7+WPVI9r+Xs8x6cueZlCNqh6rr3hq3t0+0R3lRafrlxpdn9kkvGeuZufiZpepzPHbyfJTYfEFvHNF9nj810kqInZL2Z7Y3jS51XwatnHcfIifvK8svLyOTUnkj+79ymab4s1GPRJbeT5N7/6um6J9nebzLj+N6ow+2dDo/mWflSRx12mneIPM/d/xJXAf6uby466HQZLiCeL7ux33152Mpc/vHuYKryHUXkeoawi/uovk+f93UVjrF5HZ/2PrEmyJ5P3dT6pqF55P2iK3iSJ0/1iffriL/WJI7xo7gy7K8iNKc5nqSnCl7x2CX8lu/lyR71rqvA1xp9xfxSXloj/AOxXmmm+XJeJJHcV3Xh6zkku4rmOTcqSf6uuPFQ5IHbhKvPUPQdBt7b7YmoR7oonn2eWleyaJrGn6XYJb/Z5WrzT4e2/2jZHJb7Nnz7K9V03S7a8kt/tFm3yV8fioe2qH1+CfIeh+BvHmoSQxW9xZ74k/wCeleoTaXp/iizgvJLf7kdea6JHo9vDFcfZ9rpXT3/jmOz01ZNPk+dPv14VXC8kz1Pb1JHca94a8N2+n2scmnv++++9c9pXh+PR9Y+0Wf8Aqv8Abq/4a+KkeuaJ9nuLNHdI6l1vVLe8hikt9P2/7lEqXuEQn7/vno3gAaXJZ+ZJZojv/wAtErt7D7HHF5fmbE/v14z4G1C4t4U/0iVYk/5ZyV6Ba+PNDykdwfl2fu/9+u6lVtTOCvS55nUveWenw/6Rcbq4Dx5488QWdm9no9m8qf8APSrupeJLeNGkj37K5LVfFFxeXP7u3RVrzq9fnNcLQ5WZuia5rEb+ZrlvL88lS+Krjy7b7Rpe5adLeSXB/wBXWXqV5JqKNp9vb7Wf/lpXnnsqPMc/eeKLfVIf7O1iSt7wfo+sW8PmeF/Emz/pn5lZ0Pwj0fxB/wAhO4lRv9itjwr8N5PB915ml6hLcRVnzThP3TpqwoToHU6V448cae6WfiCPzUT7kkddEms2cls9xJuX93/z0qno1vZah+7+ff8A8tPMqx4h8F+XbeXb3Hlb66J1anIeZ7KhzmRYaxcf2q/l/PFU/jbwP/wlFglxHpcTP/yzk8um+EvC+qWU0v8Aalx5sX/LORKL/WNY0O/e3tLmeWLzPuVH2DWE/wCU8+1Lw3cWaPp+oaPs2fx1lp4fs/m/0dkr1W/8SXGqQ/Y7jw2yf7eyuf8A+EH1TULz/Q7d0SueUD2cPiuSHvGH4Yj1zQ5k8uSvYfCur6hqlgkcke+uVfwHHo1t9ovLz7lX9B8eaXZo1nFcL/20q8PzwmcuPlCtD3DW8Q+E47hGkuPkrzLxneW+hv5f8Hl16NrHxA0+zs/MvLyLyq8b+JfiTR/EH2j7PcV71H3T5ydLnPBPjneSW+vQeLPD8io1tJ5qf76V+pv/AAS7/aYt/jx8AbC41C4R72zj8qevyU+LuqR3CS6PHcbK9n/4I4ftGS/Cv45P8J9Tvf8AR9V2eQ9fonC+K9jPlPjeKsL7ahz/AMp+xes/aNreV9yuS1WP79dReXkdxCkkcm7fHXOap/rHr9GPzeB47+0D4fvdU0H7ZH9leKF/9XOnz15Lpvw/0PR/DcuuapcM6efv2Roj7K97+IuoyfY5dPjvPmeP/nn8iV43qunx29ykeoR7/wDpm7/fr5fPPjPo8k/gyMTxJcWml3iXn9oJseD/AEWC++TfWb4V8L3Fx4hWTxxrkr26fvY0sfvw/wC/W2+hyawkt5eeUlwk++COf7mys7x5qHh+8ha4uPD91Ff/AOqSOB9+/wD3K+blP3z2ofAWLDxxca54huPDfiSSWLRnk2WOq2kHzu/+3VXxn8PvGHh/UorPwnp9nq+lzfvZ57u7dJd6fcqLwNrmqeA9EuLPxR4f1d7d/wDj1Se0+T/viuj0c2/iTTYreS8fTXf++/3E/wBytuUzl7hX/wCEk1y38ET6XrmhtZ38Me9JE/ff+h1T8N3kdvYT+NLzxjFvtoE8yDVY/kql428YW/g9JdH1SS/1y1+/HfPa7E2J/Bv318Zftjf8FNLP4b6De+F9DsHvIrzekEc9j8kP+xv31rClOf2RHtf7Uv7Ynwm+Hem/bLiz0i687/nhIiJX5x/Fr9tz40fEzUtSt/hZocVvpE135Uc8Hz1g/Cv4NfFj9tj4keZ4g0u/i025k3efaQfukSv0V+FH/BM/4X/DPwxBe/aLf7V8ifP/AB/8Ap1fYUqfvGlL2lWp7p8W/s9/sb/tIfEW/t/GGua5K9x56SxxpJ/BX6r+AP2c5NU+A8XgrxRb+b51p5Ukcib3d9lYPgbw3Z+A3tZNH0uwWK2/4/rvZ5M1tXtvwl+Ing/xhefZ9P1hLXZJs8h5N6TPXj4WqoYrmPYr/wC68h8Nf8ExP2P/AA38O/2gfHml3mlp9s03XHeCeOP50Sv0VtvA0d5NLbySfv3/ANXPXhXxj+F/iT9nP43t+0x4Dt2l0bVdlv4ntbT59if3/wD0CvoLwT400fxRolrrmh6hFOrweb5kH8f+x/v11Y6fNW9rA+cn7SEz4M/4KxftweLPgp+2N8I/gf4X0OW6t7yNLe7fZ/rk+SvYfip8K/A/iC5/s+88NxXFvc7N6eX86b6v/tRfsz/Cf4qftFeD/jx4k0ee817wkjvpsHl/und/7/8A3xXZ+APA+qa5r0V5qFv5Dw/P/uf7FcWJzWtiPggRhaEaL5pSPzG/bJ+Dd5+xP8S9G+Pnw73WsD6kiX0EHyI6O/yV+oH/AASy/awuP2jPhpFrN5Hslhfyv3lfnx/wXv8Ai5odv4Vs/hH4fuFe8ub5N/l/f+/Xa/8ABBz44Xnh83HgPxhI8U9tGj2u/wDuV6mVxmqfPVOuv++92J+wfjDR47jSpbny/wCDZXzF420PVLPxDfyaX8115ieR/sf7dfTEfiTT9U8P+ZFI0reXvTy68o8YW2j/ANuPp/l+Vbzf6RPP/Hv/ANiuirOE6nNEwwcKyhKEz5h+KniS38Npf6pqHhdk1GG++zwWsHz74Zv4/wDf+SqPw38J3GseErjT9Ds0lsPtX7vz/kmmf+5XZfFTwfqEfif7R4f1SzVJr5Liee+TfNsT+5WNoOl+ILO8TVNPkSzuLad3tJP7++vRjXp+w5Tnlh5wqcx2X7KPhfT9L8c3GhyW9xayw/P5ckm9K9D/AGwPjhZ/AP4by655cr3lzJ5WnQR/xvVDwfrGl6P4ns9f+yRf6tHneP8Av15f/wAFH7vTPE/jXwRp0d6zrNI7ukf/AAOvGqVeScuU7/Zc/vSPmL4tWfiT4k+CdZ+JHxc1W9v3s7V7iDSt+y3h+SuK/wCCfWqeDvj58K5fHEmhRLLbai9vP+4r6+tfhP4X1j4aaj4P1SzfyNY014pE/wCAffrx79jn9lvR/wBlf4dt8H/C95Lfo+szXE99/vvXk/X3GFSFQyqQqTnGUDy//grF8A/A+qfsYazrlvo6fatN2XFrJs/77rz34G/sp3En7Kll/wAInodvBLNYw3cF1B/rUevYv+CuPiSPT/ghof7OWh3CXWveMNVhiggj++kKP8//AKHX1F+zf+zfp3gj9njRLPXI0ilttKRNkiffTZXqUud4L3zow8OSvzH5Jp48/ac+A/i1pPGFm11pCT7/AO1fL+4lfZ/wQ/aI0P4qeHrfxJo+n2+pPCiJG8cGyWH+/XeftM/DPQ/iJol18O/C/huylW5gdPP2bPJevh74G/GD4gfsZfFe6+Ffjy3tU0a/u/Kg8v5P461wvv0+QrGRnGfOfoTeax/Y+j/2pp8kC2/3553kffvr2z9ir4iR65DPGbzYnmfxyffr568MeJdD+IFklveah9qimtN8cccfyJXS/s2Wd5p/xLTR7eOXyoZ/+PtH+TZXRls3RxZyY+EK2EPv22uPMhqwn3RWR4Y/d6bF/pG75K10+6K+7gfD9eQH+6aZUlI/T8auIxlFFFUAVHUlN/5aUAbPhf74+ldQn3RXL+F/vj6V1CfdFBmLRRRQZhRRRQaBRRRQB/Noh8rinpJ8n9ajpU6/hQZkyff/AHmNlTv5ccP7uq6dPxqK8kk2c0FRIraSSS/luLmRFRK5D4zapcyeFZZI7dtldha6fHJ/rJN+/wCesP4qW8eqeGLqz0+P54UrKp8BvQ+M8O8JapbyO3ljayP+7rU8Z3Gn3EMseoSL9yuQ8K6HqF5rXmSXDxJDJ89dR4t8P6h88l5Zy+Qkf364DvOA+2Wfhu8a4s5N0T/8s6fqUVv4o0eeSON/uVPrFvHqDpHp8XlbPv746rJcXGhpLHJIjp5f/POgCf4aHTv+ESTT9Q+T9/srkPHnhO80e/e8jj82Kb7nl1fe8kk8LvJHJslS6/grW03WLPxJpqW9xLsaH+CSOgDjfAdnFJr1v/aGzykk+eOeut8W+HPgHqkD21x8s7v8/kVznie3jt7n/Q/kdP8Alolc5Dp95cXKyS3CKnmffq41eQz5Dt7Cz+Gej6a1vZ6HFLsf/WPWHeR6PcX7yaXZrFUHl29uj28kjvvqxDF5ifu49tZc/OLl5CHUo/ko02OStBLe3uIfL8z50qlcv9juf3Y+SqCHv1DS0+STzlMlXLy4kt9SikjuGZHj2eXVezs7iSFLjy/krQsLOPUGl/vJ9ysJnpUi4msahp6eWbh/Kqvc3kesf8eclRfaPMuX0+4j+ZKf/Yf9n/vI5G2VhyU4Gsp3Nvw/p8kdsskkf3Pv16F4Dt4/nkufkif7j1534e1yPyVt7iTZvr0TwrrFxpaRR28aP+8rwMf759Blh9CfAS30+4vH8y2Wf93+73x16hc3ln9m8y4jitWR/wB3sr5/0r4iXmh7b3zEV9n34/kq7/wuTR/FG3T5Lhmfy/3n7yvmquFPoaWIPc9b+KnhvQ4fsdx5TRbP9fHXDXnxot7zUvs+nx70/wCWcn8FcBNH/bGm5+2fc/5YSPVqy0e2t7Nbj7qVxTwp3UsY4Hvvwo1SSTWEt7i82JMletaDqlvZv5cm1q+X/CXjy80e5ikkj2QQ/Jvr3Dwf40juLCKSSNW3/wCrkkeuD6udf1jngep2FtJve4t/mif/AJZ1f+x6P/x8XGyLZXFJ401DzPscciRRf886bJqFnJvj/tCWX/pnWFWkaUp/znQeIfiR4f0vfZx/va8/1j4j6hcXjy2+jtEn/LP5K7nwH8M7DxBcfbLi33pXol58I/D9xZ/Z7mzRf+2dYfVTaGMhSPDtE1jWNUPmfaF/6511fhuT7PMr3Gnyy/8ATTzK2NS+A+j27vJHcSxf3PLpuifDqTT38uPxB/38krnnheQ3hiOc3rP7HcQtHHAkX7urHh6zjt3b97XPP/wlGh3jS/Z/tVv/AM9I5KltvHGoSTfZ5NLZa4OX94bct4e6a2t3lvZzJ5nyf7aUJ4wsxC1nJJ5u+P8Ajogt9Q1y2f7PZ/f/AOmdLYeB/sc32y8vE3p83l1FUVLkgT6DeXkj/wCj7VirofsckkP2j7Ojf8AqlYaX5n7y3+RK6PRNLkuLb7PJcfcq6Ufbe4EqsIGNZ6f/AGp/o8lu1bKeG/7Ptv3ciVt22j/Y7b93Hvqn4q0+SzsvtlxcbErshhfYw984/b+0funnPjyTzbZ7eORfnrg4fC9vbzPcXEm9q2fHPjjS7d2s451eVKr+CY9Q8SI3l7Nted8dT3T2OZYeh75x3j+SSzs2kjjd3T/V15jceJDcQvJ9n2TpJ+8jr2n4qeE/FlnbNeWdusqp/BXhniSz1DfLeSW/lN/HHXvYOP2ZHjTh9uB5z8bNH8yzfWNPj+d4/wB5XmPw3+Jl58L/AInaN48t/llsL5PMk/2K9i+IUkdv4VeTzEbfXz74tt49QsLiS3Cb0/5Z19flsvY1InzWYxhWoTjI/oP/AGafjBpfxY+EWk+JNPvFbzrRH8yuk1i8jjmf95X50/8ABED9rC31zwS3wj1jUU+0WH+o8yv0J8SXlxcaVLJ9siXfH/rK/U8LP2tCMz8orw9jXkjzn4keLLf7e2lx3kT/ALv/AFH9+vL/ABP40+H9v4kt49Uk8+X7L/q/sv8AHRf6hqmn/F2W41DXIpYET93H5D1V8W6xYWeoT6xcaWjJ5ex5PkSvks5q81c+oyah+4Kej6pcafeXWqaxod/9ge1/0SP+Cmf8I/o95ZxeJPEG6wf79j9qn+5/wCuV0TxBJ40vIpPD8m9En2SJfSfwV19nqFx4b8WyyXFxLPYQx/JB5iTf98V41CHPM9GcOSB1HhiTQ/GF4lnHHPa3UMH7zUo38rf/AN91wf7Q/ijwn8J/D1/qcfii/uLhIPNee+/fJ/ufJVL9oH9pyz+G/gC61TVNHi0udP8AUeZ990/3K/Mn9o39tD9oT9oQPo/g77VLpFzdeV+4TZ53+5v+/Xo+y/dmEffLH7Yf7eniD4ieV4T+FdtqUtxNvT7La74dn/xdbP7GH/BPfxR8ULW18afGDT/tEFz/AMuOq17t+xh+wHrHhPXtL8ca5oaXt1Npv2if+1bT503/ANxK+7fA3gvw/Z2CXGl+G/Kv7aP/AFE8fyb6uHPCHIR9s8M8AfD/AMJ/s1+CbjR9G0O1tdkbp5fl7P8Aviqvgbx/H4oS40+OS8+2/fj/AI4kevePG3w7j+KlhLJ4sgt50h+TyI/k2f8AA6+OfGF5F8A/G2o/8I/b3Vna+f8AvN90j/JXl4qkepgone/HbXPFFn4bl1y3uE1JZo3i1H+yk+z3Cf8AodeBeCfjZ8WPh/rCx6Hp9xOqSfuP7Sfe8yf36+kfCul2/jjw9/amj6pFr0tyieZHBOieS/8Av/crz34l3msfC/4i2uofFDQ9Nl0uGD/URx7Nn9yuaNLnh7p0OdOEz6A/Z4/4KEfDfVLD/hD/AIuXFr9qm/df7Cf7DpXrXgz4b+HtLmuPEnwH8YWTWt5J9on0N598Lv8A7H9yvzYs4/hfJ4wuviBZ6hFayzSOn9m3djNsRP79dX4G/ao8UfBPxDpvhvwH8QLqwa8vt8l1PH51vs/uf7FaS/h8hySwvP7598654l+Imnyy/wBsfB+/doZPnu7V99vs/v79nz15z8Y/j78ZP+Ee/wCEP+B/wX1RNSv5PK/tLUrR4UT/AG0T+5XX/BP9t/W9QuU0f4gX9hf272u+DUtHj810T+4/8FeteEf2hPgZ4wK2+l65bxTum/yL61eJ/wDx+ihHC0fiOP2FQ/Kz4kf8EqviR4s8Yf8ACyPih48bXtX8z7RJYyJsRH/uJWt8MfD8fwn8c6t401TT006fRNN8n+zY/kfZ/fr7/wDj3rnhuPTZ/Gmhyo62aebs8yvym/bz/bE8L+KPGGqXmh28trqiQbLryPuTJXZHMaM6fsoRPZo4X2MPazP0M/Zy/bw0e4+GNvqGo6ost15nlQQeZ/A9e46D4gj8aJa6rqke13g+5s/74r8S/wBg/wCJGoeIPH9hcXkd09vDPvgg/gd6/ZP4UeJP+KWguLi3aKWaPZ/uV48Z1qNbllI3xOFp+z9rA1PEPhfR9ThfWflleH91HB5Fc/4is7fT7SX7boaeV5mzz0T5Erqr/WLOOzfUIrjyvJ+R/wB39+ont9L8SW08kZaWB0+RPL/jreWN9w46WHPNPD2qSf2O3+kfJN8jvJ99H3/JXyD/AMFCPiZ4wj8c+HrO81iWzls7tPngk/g+5X2z42+GcenoviDTw3+r2T/Ps2f8Ar4f/wCClnwj8QeOPhp/wmHgvzf7S019kkn9xP79cv1r94dlLC05n0Z8GfGHxQuNKsLPTvC0/iHTfIRPt0H+uT/fSuq8W6X8ZNLsPtngP4F3t1qVzvS0+3R7E3/33/uV8jf8Ee/2yPGGh6rL4L+JElwqQx+V58/8b195fFr9vrQvC3hiW88H2f2q42befkT/AH61h9VrT5pnnYjCzhPkgeL/AAT/AOCb+uSfF2X9rj9tTxpZXviO2/5Buh2sm+0s61v2tP20PCfw/wBBuPCfgfVN97D8kHkJ/wCOV5F8S/2rPG/jR31TXPEFu9hefJHBHP5NfMHxG+IHheT4l/8ACSaho919iRNkfkT73mmr0fa+1XJEwjg50vtHfeHv2jPFkmj3+ueMZN97cz/u4EfZs/36ofFHwv8ACv4+eGPL1jQ7D/hIUg32s7wfcf8A2KxPB/huP4kXVxrFvp8thp2/fdzzpsSu5+DmqeE7jxmtloVvFL9gk2I8/wBx3qcNLkrnTif4HLE5X9jD4mePPB/iSX4P+INUsvNtk/5aT7H2f3NlfZHwBvJLPxha6pp0e93k/fwSJXxB+3n8E/FHg/xzb/tKeE7eyiitv+Qlsn2bP9z+/Xqv7Cv7Ynhvxpr2jfY7yd7qZ0T50r18PD9/GZ4NefJQnE/W3wxceZo8UqWez93WumP+WdYfgm8uLjR7WS4kTfNAn7ut5/vGvt4fwz48SiiiqiBHRRRVAFHlf7P60UeV/s/rQBs+G4/nrpYvuVzWgferpYvuUAOooooFyMKKKKCAoopPMi/v/pQB/NpSp/q/wpidPxp1BmSUxz5vFCdfwp/lf7P60FRDzPs9n/t1lp5l5N9njj3PN8laOt3Ajtljip+g6ebfNxJ/zzoKPn3x/p8fgf4l/wBjxyb977/3da2q6hqmoWfl6pI0USJ/q6u/tV+C7jT5rXxzo8e+XzN8nl1xUXxE/tvTftF5Ht2R7JP3ledP3Jno0vfplW80uIXj/u/k/wCWdc14ktzvaPZvWr/i34gW4v7WPTz+9f5PL/vvX0Bon7D/AIk8SfC6L4kapqHkeda+bJBs+49ctXFUKL947aWAr1oe1ifNPh7w/ZyWDfZ43T9//wAtKd/YdvZzT3ke/alejXnwzuPD3mx2+6VU/wBiuX1XT7y5fy/L/dQvsn8ut+Xnp85zch59qTx3DtJ9n2LsrI42eZ/CldDrGn2+9ri3uNmz5JEesZNLvN7afb3CNsj/AHlHIZ8/IRQ28VxNWpDZ2caf6RJsqrBp9xb2cX2i3bd5n+sqxr0mnQbfs8m/5P3lHIZylzmVN/x9v5dx8qVde38y2T93v31jTXkcbtJHWpolx+5a3klqeUqkXPD3iC5859Lkj+5W/pGs2cepS29xb/Ps3x1z1hJZ/aftnl7Nn/j9dBD/AGfIn9oW8f72sJQO+lVKuvXkenyRap9jbc9X7bWNP8SWHlxySo1X4ZI7y2/0i3T5ErH079/rz2ccflJ/0zqDY1NLs7e4H7yTZsr0PR/tFnoP/Ev2t/Hvkrz7TdPkjv2jjufkrrdK1CO3/wCPiR9iR/wV5eKpc56OAxHsTo9KuNQvNPlj1W43b/8AlnTNJt9Us9SSTS9L3vD9+su58WWcaLbx71/26saD8VNP0/Vf9MvEi2V508JNnqrF0zt/D3ii8uJnuNUs/K/2I67ez8ceG49D8vy383fv+evGPFXxE0+SaK40+8Vd/wB/ZU2ifEjS44XuJNUV0SP94kiVxVcBM66WPgfR3h7xR/wkGiPZ28dk8T/6z9389dBN8ULePTbfRLezXdD8keyvnvwr8XNLkmtz4ek3/Jsnr1r4PXFn4o1Vj/Z673+/Xl1cLOB6VLEQme6/CX/ipHgTULh0levoj4dfCvR7NPtF5p/n7/464r4IfCvR7iC1/gfy6+itE0/R/BdgkdyN9ZRwRUsYRaV8O9Hs7P7Rp9vsqK/s/Leote8WSRvnT9Q8pX/5Z1h3PjC3jtmkuLjfXBivcOihH2hd1j+z5LN7eQ/NXl/iq2/suZ5Le7+WtvVfiBp9xM0clwsX/bSuF8W65p9wjfZ9QRlrxKuI5z28LhZx3Of8W/FDWNHR7ezuaybP4ia5qieX5jLLV7/hXdx4ouVks5P/AByu48Mfs93kdzFeSXH3K8/2U51D2/rGFo0OUl+G2ueMJLWKO5vJUR//AB+u5SzjuX/0zznZ/wDlpXX+GPhH/wASpZLeSJHSOpZtHt9Hf7PqGx69CWC/cniSxVPn5jl7DS7uNGjsxurrfDenyafbfaLz739yrug6fp8j+Zb29dAml6dHC8l5Gm361phcHye+cdfFc5jzXGoXFs32P5K4jxteahHYP/al5XUeP/iBoXg+zluI5ItqR/PXxz+0D+2BrHiS8bw/4Xs02JJs8xHrDH11P3D0ctwE5++a3ie0uNY8SN/Z9uj/AD17F8N7f/hH9BSS80v/ALZ14d8AbnXL90k1Q73/AOeklfQemxyRWH8bVwYOE4HVmdWCo+yOc+Jfi37RYSx2dn5VfOHj/wC0fv5JDL/37r6H+Jd55Vm0cWnur/8APSvFvGF5qFvYXFxqFmrJ/uV69L3KnMcGH5PZ8p8z/FTVLiTSbrT47h/Ntvn2f7FeO6rqElnv1DzP3V5B/wCP17P8Zo9HvHl1Sz/dM8fz185eJPEkcd/Fpfm/Ikn3K+2yqPtj5fNOSB0f7P3x08Yfs/8AxItfiB4XvHTyZ08+DzPv1+2P7HP7ZnhP9qD4YxSfbIl1GGDZPBv/AI6/Be//AND1VriOT5bmSvc/2PPix8RPgv48g1nwtqn2e1f/AFkfmfJX6Dg6vsaHIfm+Poc9fmifq58RNHvP7cv447jylT543jrl9K8LeJPFmpz+ZqF00CQfvI0RPnT/AIHWd4G+Lnji88N/8Jr4gt7C/ivJE8vzJPvvWpceNPtiPeaHrH9m3H39R2Pv2f7mz5K+SzKcJ4o+iy2NSGFM/wAQ3HhvwPpryappd1bt5my1n8v7n/fFeGfH7/goT4H+E9g3hDwH4ke8165u9kl9dWnyW3+5XZftIftIW8eiW+l+F9Ln1x3/AHUEHkfx/wB968h+Dn7FeqeKPFUvxU+IvgeV7V5PNggu3TyU/wBxP46ml7M6Pj+I8T+K/wAZP2nP2iNbTw/pcjXiTJ/ol88Gze7/ANzfX0Z+yL/wTb8ceE30vXPHlxayxOiSzwabH/y2/wBvzvk/74r2LwB8O/hfJ4ntbOLweiXCT/I/3IYUr6d8AeGtH8N6OsV5qktxb2294IPnreEpmUih4S0PwPoejzyXlxsukTZ5k93/AKnZ/uVzXjb4ieF/DelJp9npd5q0t/8A8t9On3vXX+IfhnpfxM01NP0vR/ssDyfvLWP5Hm/363PDHwjs/hnp66X4f8N77p9nlvPHv8mpqwnz+6HNT5Dg/gz8D/H4dPFFneXtrps372O01He81M/aT/Yb0P8AaA017fULxIrqaD/X2sGzf/3xXr9z4g8UR6nBo9vZ3WpXs0f7zyPkSFP9ur+peLPC+hw/Y7zxQkV/v2RpHP8Ax/3K6KVKjye+cvt69GfNA/KHxX8I/wBrH9h/xVqWs/D+31TVtB+1f8eMcCPDsrsNH/4Ksfsp/EDw8vg/9ojwfdRa5DOn7z7D8kLpX6T6tpfhvVEbT/EFxbz2tzHv/wBXvrw74zfsKfsteOLmXWNL+Eel3U80nm3U8ECJspSpU4fAaRxjxD+E+WPij8RfhBqHgyLxB8G9csNcTXpNjxwWKP8AZk/74rI+GPg/wteeBtR0fULjRtZvIZ987vH5MsP+x89dXrfwL8B/sv8AjZJPB/w7vIrCafekCJvi3/8Aslcp8fvh/rHiCb/hJLjQ/wCwbWb5/P03f8/+/srxqvs+c9qjGc6Zwb+JJ/AWvNeaHqF1f6TbXf8AxOEsX2fP/sbK9X8AW+qaxf8A/CSeG/FF7EjxpLBaX3+q+f8A23+esy18B+A/DfgnSLjwd4bl1S8v4/Ku44JHdHf/ANDr1Lwf8P8AxZpf2XT/ABBpdnpdr9k32KPIkyecn9//AOzrD2XOaylyHOeP/iB48j0G40rUbxop/wDVJBY/voX318oeP/2dLjxJ9q8Qahp8FvPNJtnupP46+wfGHjDR7ea/s9U1BrXZaI6Pp1ijpNNv/wC+P++K5S8+Hdv40mbQ9L1xp7/Uo0eNPsv+p/8AZK5Z0PYz5onfh5/WKfLM+ff2P/hX/wAKf/tnxB488q106F/N8/7j7P4NlfXfwf8A2uLzxRfxW+nxvFpbxp/Zu/8AjT+/XP8Aif8AZXvIvB39j+KI4r/TrONH1LZ8kz/7FeD+OfHHjzwH4qW30fwuthYaVs8jy9mx4a48TV9z2kj0qWF9tDliforp/wAQLPWNN+z/ANqRK+zzfL8uprP4gf2fbRR2eqRW/wC8+f8A26+XPhp+0Bp95pUuoXmyWX5P3f8Av1f1j4wWdzZxSf6r958n7yueMq84c0ImM8NQpz5Zn03Z+PPtj3kd5eRS26R7/Lf+OvB/2h9Ut5Ph1rmhyyRW9vqVo/lxpHvfej7641PixJ9v+z/25FFLcx7P3kn8Fcp8SPip/al7a+ZGktxD/qI/M/uVrCFf7USaVKnH4JHzz4e0vUPD/iG11zwncPZXCf8ALD/ntN/t19BeCY7PxoJ9U8QaHfwRQ2m+R/P3o83+4leSWfhf/hYnjnV7PS7OW1vH/wBLSOD+CvXfhF9mt7mL+3dQurf7NBsn8iP+Ou+hVhM48VTnSPPNK8F2/iDWNRt45PtVv9+RH3p5P/fdVNK+C3h/T7yLxLqGqRf2Xpu97r7VJXqfxX8J+H5NEv8AxBb+JHtfO/5dI0RJX/299eI6f+z/APEj40a2/hu88Uy2+kvs+1fv9nyV6FLc8+XJ9s3PEnxYuPix5Hgf4HxpLdTT+VBa2Kb0RP7719J/A39gfxR4X8If2pcfZ3vXTzZ/M++7/wAdbP7Fn7Jfwj/Z3s/tHhf7Gkv/AC0uruT53r6gs9Ui1g/aLOS1a3T/AJaQV1whCdQ8edWcZnyN+058C/D/AIk+CV74f8caPqU9ukHzwadH8++vnX/gm/8AB/8AZ78DfFr/AInnijXLCW2utljpWo2mx9//AHxX3J+05J4o0/wxdT+F9Y8i8ePZHvj+SvlD9kvUPGFx+0VYR/FCOwvYEu/3l1HaI7/9916+D92vynDio89Ccj9Yfh6mlx+HopNP3PF5CeXJJ9+uiT/V/wAf/bSsbwfeaP8A2PF/Y8jMmz+5W9/B+FfXqGh8kMopv/LSnVcQI6KkqOqAVPv/AIU+mJ9/8KfQBp+HPv8A4V1Fp/qq5fw59/8ACulguIo0/eUATbD6im1A+qWe3/brE1XxxZ6fujuLlKBQ9obzyRxf6yoLnXLONMeYi15z4h+MFmm+O3k31xWsfFDVLjfsoNY0uc9a1X4gWdm74vFrD/4WxpP/AD3/AFrxm58QaxeTPJJJUH9oy+r0GkcOfjInyU8SeZTKfD1/Gg88cn/PSrCfvDmoU+5+NSw9PwoKiVr+P7RdRW+f46v/AOrdOKiSMyTeYac58zdTgUReJNL0/XU/s7ULNJYnj2bK8X1v9mKS4hupPD8jN+//ANXXuSR+ZJ+8p/hi3kjvJY49+x5K5MRSOrD1Znmn7Lv/AAT/ANU8afEiw1jxpp7/AGK2nSVE+/vr9BPjNpfgvwP8GZ9Pjt4on8jykriP2ctcjt71IL2TZ/AiV5t/wUt+NH9jv/wh9vefZ7f7Jv8AP8z7j18PXjXxeaRj9k+7oV4YHKOb+Y83fT9Ps7Ce8k0+KVXg3p+7+/Xzd8QvK8DmezuLjdLeSebs/uV9H/By7uP+FFRa5rkfnv5H7t3/AI6+X/jNo+oax4hutYu97bH/AHcdfXVJci9lE+eoYXn55yMi1s/D+saPLcJs8+bYn+5WD4q0O4069+xx/cm2b3jjqKwj1DR9S+0WlxsX/lpG9dBomuaHeXk8msf880+//G/+xRGRxVcPyGPc297o8P2fULd2svk8ufy657xxo9vp95F9jkdopk316N4/1zS7e2iks5N1rNAn7v8AuV5l4z1D7ZOnl3FHOYchziRyCZ+PkqR7y8t7bzI5N70tz5lun96q8Nx5kPl3H8dAom3NeahHZ/aI9v8Aq6u2Gsaqlh5cfyO//LSsR9Ut/scVvJv/AOmlSW2qeXbeWlZTNaR1Ph7WNYjdPtEnmp/zzrb0qSP+0vt8ceyuS8N6pcCb95H8tdHFqEdujRxyLWB1RmdhqVvb2elLqFvborzSbPL31n38klmnlx3lZOsa55kEFn5jbPL/AHlYdz4k1D/j38z91XPyc5vKrA6O58QG3jT7TJ8yVz9/rn9oXj3lxJ9yqGq6peXG3y5F8qs1LjUJH8uOPfWsaRP1hl268eSWU3lxyfcqn/wtjVLeZ7eORNjyVU1Lw/eeW8lc5f6PcRzeZJT+rwYfWpwPZ/g944k1S/ez+0eVvk+/X3X+z3oen+F0tTqFw8st5GjpJX5p/D24ks9Vi+xybf3iV9//ALM2u+KPEPhvTbzVI23W38cf8CV87ndBYf34n0OQ1/r3un2b/wANIeB/g3o9r/amobX/AOmlM8Yft0aPHpUWueG9UivYn+/+8+5XxT+0n4f+InxA+0XGl+f5Sf8ALTy6yP2dfhX440+aK31ySe4tZpNj/wByvLoewnQ5pTPWrwr+35YQPvzQfjxqHjhItY+z/utn7vy/466m88Qf2xo7x52/u/v/ANyvLvg/nw/pi6PJp++L+B/L+5XeXNxZ7Hs7eRE318xj6tCB9NgsPU/kPP7nQvEF54oa3jvJXievQ/B/wbNuiahcSeb/ANdKf4e0+3jm/efwV6HomoaX9m8uvnozhzntylOFMf4e8Nx6XCnl28Xyf7FdLpskf+re321FpVnZ3kPm28m6tnRNHt/O/wBIrqoQ55+6ediKvuFywuJbJPLjkfa9aVnZ6fqD/wCkR73/AOmlaln4X0uOHzJLhf8ApnTvsGl2ZeTzFr240koc0pHjSk2R3mseH/D8P2OO3XdXAfEv4oWeh6bLdyXCrEn+s/eVk/Gb4yeD/A1tPeXEi+akfyeZJXx945+KnxA+PHif+z9PuGt9L8z/AFf9+vOxGK+xSPWwGXc/72qRftA/tGXnxA1WXwv4PvJXV32PIklWPgP+zs95s1DVI5bhn+eTfXoPwu/ZX8L6eia5qFn83/TT79eueG9L0/w+fs+h2e/f/wA8464aWF5/emetPNIUYclAoeDPh/ofhuHy/s/lNXUfbLPT4cxXCf8AXOqGvR3kaNeah+6/6Z1yWt+NLfToWkjsnl2f8tKXuUfgPJ5p4ypzzOh8Q6p/aieVcQRbK8k+Kmh28mmy/wBl3CMn/LSud8bftA+ILe8a0j0t1i/6Z1wupfEDWL1JbyS4dInrrwsZ1glD2J5V8b9P0/T9KuLjzNzeZ88dfJPja3jt9buLm33O7/cr6i+IvjCDxZpt/p0moKrwyf8ALT5K+f8AxV4D1CPfqFn5Vw3/ADzgffX33D9KfIfIcQVfsnKvJca5o6R24/ewpt2V2Xwx1DULzVbLw/JvXfOn7t5K5/R/h/4wtn+2R+G73Y//AEzr1L4FfDvXLj4hWF5rGl6TLEk6P5d9d7HSvtowhChzHwcqs/acp+jGlfC+3j+CdlqsVvPbv/Zuz7Cl3sR/9/8Av15z4V8UXF4lx4f8CXDxapbR7JNK2fI/z/f/ANuvpHwxH4au/CukWfmeUkNonn2vkb0/4A/8deLeJ/s/gP4o3WofD/wdFfs779+oyfcf+5XyOKpfvOc+twFWn7DkLnwf+HfjzWPFH7y3gl8n59Vd49n/AACvcb34H+IPFmmvHqHxAg02wf8A5affmhf+5Cleb/DT4+fEzUNclk+IFvBpNnN8nl2ieV/+3Xqnwh8aeE9PvLrWPC+oblmn8q6n1WPejv8A+yUsLOn9sWIjU+wb/wAD/wBkfwP4Tv8A/hLNU1C/v3/556k7zO//AH39yvX9Ss/D8arp/wDZ91Er/wCog/grI0H4gWf2aWTS7y4vdkezfH/qqb/wvDw3bwLHrGhtq1+8myCCCD/2evRvT5Dy/wB+dPpVnb6O+NLj3Tv/AMtKp+IfGmuaHM15qGoRLFD8iJP8m9/7lUPFXjy38P6D/aFzqEWkS3nySeY/yQ1478V/ip8PvD+lS6x4o+LkEFnbQebPdTv/AK7/AHKzlXVKHuF0sPUxE/fPRPiT8VI9D8MXEl54witbh/3r2sf7rYn+/X5+/tXf8FIPC/wH8Q3Enhu8stZ1eafZYwef5sSf7bvXA/tUf8FEPDfjG5l8D+F/D+qPa3+9LSSN/nuf/sK5z9mP9g7T/ixf2vjj4ofD9J/tMm/yPv7If/i68tVa9WoezHD0KMC58Qv+CyH7XHjS2tfCfwD8J39unyb76Cx/4+X/ALiVRtPib/wVw+MF/wCX4P0O/wBDR49nn3c7/PX6IfA39m/4efDvwlFpdv8AY7OySPfawT2n76F67rXvGmj+C7aKzs5FuGmj/eQQR7P/AB+vRhODhyHGkpTPhTwHp/8AwUN8DaDb+F/ipp91rKXM+976O+evd/gJ+zv8YNU1tNQ+Jl49hoM0f7yB9ZebfXungbwnpfjjW/7U1Szumt3/AOXF5P469Gv/APhCvh+n2e4vLe1t/wCCCf50Sub6mbyx/JDkieNeD/gX4L8F6lef8I//AGXpcU0myCSCT97N/wAD2fJXHfEjR49Dsp9H8P8A2B57mN/tVrPJ883/AAOuy/al/aM+Hfw+8AS67eaXLrzJJ/qNKg3ulfGnxR/4KAeF9Hv9L0/UfAWr28Wt3aW8E8Fo6OlcVeU4T907cHQVb35SOg1LxB8N/g/NFo/xY+JkqWs12iaPo0/3IXd/4Er6j+BvgvSriZdUt9HeX7TBvgu/v7Er4c+PHiD9lvwP8SPAvjD4ofDPxXr15eXSf2bHqXyQ2zu/33r7m8VftefBv9nvwFpOqeJPK02zv/J8i1j+d655L3OaZpz8k+SB3nj/AOEeoeIfD0o8tpYvI2fc2P8A98V+cP7UvhvQ/g3rb6P448UJa/bJHSBJ49lfq98P/Eln8V/DVh4ss7iW3tdSgR4H2bN6fwV4F/wUX/4JF+Dv24PA/wBos9Uaw1yzk32l0n3EenSyapjJ88CsLn0MBCVKZ+Veg/GOTw3r1x4T0+Nri6d9kEkb/J/v12t/4P1zxDDF9s+JmyVPnkgR9myvMv2lv+CZ/wDwUU/Y7ub3VNL8Nt4tsvL2QX0ED74U/v18nfBjxL+1LP8AHyDS/Et5eyyJJv1S1n3/ACJXs1MqrYLBcw8vzTBYvHeyqRlLmP0Ks/g3ZyXkA1Tx5dJcf62CTz/46wfiL4D8SaHePqml+NP3qfvdk8lcx/wll7b6wmn2+oeb5Me+SR5PuJXPfD34L/tmftifFdZPhXpdwvh+2u/KkupI38n/AL7rw8CsbjvhPr83oZFkdD2tWXxH0P8Asi6P4o8efEu31iz/AHTwwbL50kr0v466f4f+EetxaXZ6olve6xPsTz0+SavoT9j/AP4J/wCo/s3/AAxaLXJGv9ef97fT7P8AxxK8++Mf/Ck/jRp+vaH8SPD9w2peG7vfBJBH88P+5Wf1evQnLnifKzxuFrQ/dSOJ0r4L6XeeG55NctridUTfG8d1996+LPjB4k/bE+HfjO6s/hxI11apP/HB/B/cr7u/Z+8WeG9Phf4d/wBqPqTXP/Ho/wB/Yn+3UXiHS/hfP43nsriOe4uHfZJ5EfyJXoYX+8eTX98+Lfgn+3J8SdQ8Z2Xh/wCLlxeaWiToknlybK/T74LXkmqeGLW8j8QJe2s0aOnkPsdP9+vi/wDao/Yv+FfijQbjxBHqC2upf661uoJPk3/3K80/ZF/aQ+LHwX8bP8M/GviS6nsEf93PBHvTZXbKMIfCcXJz+6fpF8edY0+38MRR6xb/AGqL/lpHs3v/APYVnfsi/Cfw3J4nfU9D8L2EVu/zyPJ8715L4x8WaP8AFiw+z6dql75SRo/2qN9le+fsSWeuaPYJZ2dmk9u8nz3afO9duWz565wY/wDc4X3T6y8N2ccdskccaxJ5f8CVpf6yorCOSO2XMeypa+7Wx8iN2H1FNqSo6ACo38r/AJ6VJUby2+zzfMoFzMEk+f8ArTnkjjTNZ1zrlvbo371axNZ8YRxp+7kSnzmsYnaaVrNnbv8AvJKNb+Jmn6fD+7kT/v5XkF/4wvJHfypKydS1S4vf9ZcbqRrGkdz4h+MF5Jv+z/8AodchqXizVNUdhJI3/fys1I/Mj/2qb/x70GvKS+b8nmSSfPUL/vHxJUU1xjfUSSSb+lBRZ+zp6D8qTH/TL9KIZPk6U/ePQ1mVGZ+MFOg7fhUW8+gp0MlaHilpP9X+FTJ90VXST93UsHegCdPuinx96iTr+FSx96Cok8PRvrV2w8yN/wDR9lZqSVYsPLjmqanwGkT0b4VeKNR0vWFF5b/In+rkr5p/bP8A+E8/aA+K6eC/D/71Zr5EfZ/AlfSPgOTT5NNnkuLj5kgd/wB5Vz9jv9meS28Sa58bPFkfmvczumneZ/Am+vmoQh7eUon12HjPE4CFA5fxV8O4/Afwx07wPbx/NZ6aiT/79fNPxL8JxyO/lx19sfG/w/JczXH71v30n7uvnXxh4Hk89/Mt66uSZ77w9NU/dPma/wDBcmx5PLrk9Y0u4s5H8uP7le+eKvC8lvvj8vZXl/irw/Jql4+l6XHulf5K3iePXwpwMMcniSz8uORmZKy9V8F6hcJ5n8SSbK9asPhfqHhvTcR2aJL9+SsO8jkt38uSz2P5lSedLCnlE1veW9z9juLNvkSorm3t7hVkt/4Er1XVdH0uSF7y8jRmeP8AeV594t8NyaXNF/Z8mxHgfzI/79LnOKrS5DBm8vZUtl5ckPl1VfMiOJDRYXkkT/J8/wC8/eUc5hFM2dNuLiOr8OqSR/vPMqhYafrGsb49L0+WV/M/5ZpRq2l6royfZ9Qt3id/79ZfujeMKi3L82uSXDvJHJVWe4juEeT7QqfwVzWpeNND0ezeOK43NXFP8QLy8v3jtpHrWFIynOB61Brmjx2HlyXG50qg/jSOzd/s9vvrnPD2nyahYNcSSfva3tN0OO3tvtEciSv/ABx1fKR7UtJ4rkvE/eR1m6lqCXH7qrT2f/POP53/ANZXNeJLi4TVYrPT/vb/AJ6IjlL3D0T4Y+F7zUPEcFvZR7/nT5K/ST4CeG/s/g+10+ztNrvGnmV8Tfsr+ErzUPEdrrnlv5SbP3eyv0k+CHh/7Yn2izj8pEgT93XwHFONfP7I/Q+E8u5KPtTvPDfwb086C32zTlZJoKwfBmh6Z4Xe6t/s9urpP+78yvSLzxR/Z+jrHJ8jbK8rubOPXNbl/wBMeJ3evhMVjXCnyRPvsBgvbVOeZf1Xx5HEktvZ3Co//TOtvwNpeoXkf2yS4ll/66UeFfhfp8dx5kkfnu9eq+DPD+n29t9nkt0Va8b9/M9SrUp0V7pkaPZ6xcTJHHb11Fnoeq28ObiRK1bPQ7eN/M07bTv7L1j7Yskke5KrlOOWI5y/4YkuNLT7P5e+ujs9UuLj/lnsqhbahb6XD5lxZo71XvPGlvJvk0e3T5P9ZXZSxHsYHnVcPOtP3TevPFl5p8Pl/aK86+Jn7RkfhOzlzcbmSP8Adx1jeMPjZo+jef8A2hqET7P+WaSV4Z/wj/jj4yeM3vLiX7PpG/5P9tKxliq+J+E7sLgKFL36pXv/ABR4o+OnjPzJLdktfM/jr3P4e/D7wn4XtorcaHE8v/PTZWp8Pfg/4b0PR0s7K3+f/lpsrpbPw3JoczXEdwixf885K68NThR9+Zx4rGXn7KkX5rezs7BY/s6rXK+IfFsejo3/ABMILdap+PPixpenv9jifzW/55wV5j4o8YaXqDvJJI6f79c2Ix9vgDD4CpN8x03iT432ce6O41D7RXn3i39oSzNtLb2elrXH+Nvihoenu8cdn8//AEzSvJ9b+KFxqlzLJFp7W/8At1y0vaVnzHrQwsKK5TofHPx4kkv4rO30dPnf/WVfubOTXNETVNOlXa6fvESvKrzxpZ6pbS2culu9wn+rfZXVfAfxYbe5l0PVbxmSb+B/4K+swFLkocx87jas51+U8j+Kdv8A2PquuR3Hy74Pkrw6/wBQ1SzieSS4l3un7v8AeV9B/H64s7jxtqWlzyJt2V8+fEjUI7fw99o+b9z8m+Ovtchn9k+Pz74OYx9N1zxRLC9nHql039xN9ew/ss+G5Ljx5pusfaLi6le7RJ7FLrY9ePfDS0s9csLi81TULqy2fP56ff2V71+yjb/D/wD4WRYaxb+NL23a2u0/fyQff/8AHK+sn/A5T4al/H94/WbTdL8J+MPhvpseqaPf2tvYQJ/r5/uf79YPi3wdea5pSQeG7yy0mwhk83+0oI/v/wDA66D4deLND1DwxFZ6pp8txpvyee/lun2muo1v4R2fxg0Ty/8ASNJ0m2T9xawSff8A++K+bceapyn0ClyQ5ony/wDGPxx8P/CdtLpeq65a6vq6Jse+/gRK83h+PGn+C7O1uLfxRdat5P7pIII9if8A2H/A69f+N/wT0/wvpupSXml2cVhCmyOOP78P+389fK+q6PJocP8AwkGh2f8AaN//AMs5LqRPs8Kf8Arza8eSoe9hf31E+ivhj+3R4g0/w9Lo954bVZdn7jToJ/nm/wB+b7j1P8Rf+Cjvijwf4VsPsXh+WC98z95HBHshs/8A4uvEfBOu6f4fjtdY8QWFndXD/wDHjY2KP5Mz/wB+u6/4Re4+MDrqmsW9lFO6bINNj/1MNcsqtSR1Rw9CJxnif9v34ufEDQdR1DS5Li6X/VefJ/H/ALleM/E/WP2qPixNa6h4gvHe18tIrX7ddpsRP9hK+ufBn7Kej+G7D+2NVP2r5/vxx/cf+5srb179nfiLU5I7Dykj3+RP8mz/AOzq4+0+KJEvqvwnlv7IX/BO/VPEmr2HxA+IEaX8sP8Aq4/4HRP7/wDcr9Jfhv8ACe38L+H1kkt4rW3s4/3EECfJXzn8FviR4L8NwxeH4tQv/Phk2fZYPnR/9/8A2K968M/EyPxYn9l+W8Xzp9x/kr2MBKhP4/iPCx8a8fh+EyPiX4w8Yafc/wBn6Ppb3sU38aQfcrU+C2h6xb77jVNDSWWb5/Pkk+dP+AV3+iaPHbp9oFvb7H+/v+ffWjpQ0e3v/slvbosv8HkR/fq5YOt7fm+yRSxkIUOSRf02Oz85byz0u1idP49/zu9TeJtct/sf2jxZcWsVr/y0/cb627TR9PvNkdtHsdPv+Ym+svxh4X0/WNHls9ckiaL/AJ4QR/frsxFKfsPcOClVp+09480vfgn8J/jJfxeILvV9ul23zyWkbpsd63b3Rv2ZPACRXGqaT4ft4oU+S9uo0fZsqZ/2e9P8UaDFpfz6XpyfvY/Lu9j7P9uqHxH/AGR/hH408N/2f4ouLi4sEg2JBBv/AH3+29ePChXmen9box+GRyPxNuf2IfGGnL448aa94XvLez+eOfzE2JXE/GrWP2C/HHgaz8W/E3ULJ9Bs0/cTx/c+SrvjT/gnH8L/ABR8MZfhpHbvZ2FzH+48j+NP7lafwi/4Jx/Avw/8MV+F/wAQPsupWts++D7VPv2J/cqPqtat7p1xxmFhT5onpfwe/aD+Amn/AAx0vXPC1uzaIkCJp2yP+D+CvZ/D3jzS9Qhgns7yf/SY0lgjkT+CuN8JfBv4H+B/CsFnp9vZWul20CbPk+T5K6j/AISDwHZabb6pZ3FukDxpFB5dfVYLCzo0z5XGYijWqaGp4p0LQvFeky6VqdlFLvTe/mJX4j/8Fqv2d7P9kP402Hxs8GeC9uieMJPK1G+jg+Szm/8AiK/YvxV40vJLBtR8LyRJLD8m+eSvjL/gp38TPCfxE+A/ib4Z+JPDdvfp9l2eZJ993/2K9SrBYmh7KZGXYzE5divbwl7x+LPgDx5qniTxb/YfheN9X1vW9S+z6Vptp8/nb/kr+iD/AIJ4/s/x/s5/s2aD4f1zR7eLV3tUl1mN4/uTP89fnj/wRb/Yj+H3wze3+MniTwHFqms73ex8/wCf7HD/AH0r9UtE8SXFxD5eseUu/wD1H+2lceBy6hl3wnfnGc4rOv4pY+JHjjR9Hs2kuZERv7kdfPtz8RP2ZPFut3n9uW9hbtN+6vrrZs3/AOxXuWq+HvC/iBPM1jam/wCT/crx74nfsV/Dfxol7b6PefZXm+fzLV/4683MaM6vvFZTifZ0+SRh+J/2R/gvrFgniTwHbra3EMGyCSxn2Psr57sP2e/D/h/xVcXGqeKPFdrKk7vJOl8mzf8A98V9KWHwf1z4R6V5ml+L726t4YEijjvtn/slcFf3guNYuo9Us5bjzv8AWI/3HrxoUpwPQliKh4f8e7PUI9Kl8L6f4kg814N+zVU/4+f+B18jeCfix4T+HnxOfT7f4TtLqnmf6Ul9fI6P/uV92/FTWPhvb+GJ9D1zS0id43SCSf8Ag/2Eevzb8YeF9P8AD/xdutU/4SD9w918kd399Pnrql7P2YUpn2G/xUt/EmiRSaf4futLR0/1FqnyV9X/ALFWtxx2dufMli3x/wCrkr4A8E+JNK8b+JNJ0vw/cPZ+S6JfQefvR0/vpX6afsx29xZ6bZ6fb3Fq8DwbP3iJvmSnlcP35y5t/APpDSryO4s3j8+ruzy/3X61jWGhW/8Ay5yeU1XHi1mzTzfkuK+7Wx8cWn8z/llUXmRx/wCses6bxZb2/wAlxG8T1h6x4wt4932eTdU8xpyHQ3niCzjR/wB5XM6r4wjRHijkrn9S8SSSJ+7+esaa4jkdvMkqec3jS5DXn8QXEjvmSs28vJLjf+9qq8kZTy46iaTy5KzNeWA5/umo08r599Dyd6qzSVoBcSSP1qCa4qvDcSbG/eVFNJJQVysl8z2o8z2qukklPjkjP36CS1DJTfN9xUX2pPQ0zz4v71VED8bqfD1/GmU9PuiqPHJ06fjU0Heq9TQyUATp1/CpfM8srUCSd6d9ojj/AHkn9ygqJLNJ5b7Pv0+GT98n91/+WlbvwN+Hd58XPip4f+HdnJtGq30MUkn9ze9fWn7Vf/BKe4+FGq6DH8KNYuL+3v8AZ9rjk/5Yv/HWVWf7s6sLh6mJqHzt8Cvhf4k+Knib+w9Ht28rf/pU/wDAiV9lHwXpfg/wxa+E9PjTyraDY7x/x1v/AAf+Bfhv4F+EotH0f57p0/06d/vu9Hiopsb93XnckIn6LlOD+qU/ePAvidpdvqDvHJbr8leK+M/A/wAj3EEaOlfSXirS47h2/d15P4/t0s/N8v5Nn8Fa8h6Uonyx8TtHjt4JY47f5v8Almn9+ovhj+z/APZrD/hJNct1Seb54I3++le//Df4H/8ACca63ijxJb/6FC/7tNn33rt/EPw/trx/9Ht1TyfkjStYQOOdKmfJPjH4fm3heT7P89eXeLfAfzvJ9nr7L8VfDvy0bzI68v8AFnwz8zd+7rCrAx+r05nyreeEvM32/wBn+Ws3/hU9v4guX8yN/wDpnX0LefCuTznxHVrR/hHLZv8AaPLrzasuQIZbQfxHzTrH7Mdvb2D6hH87P9yCP79Uvhv+ynqmueNovD+oW7q7/PJHJ/cr7f8AhX8H7fxB4kS81SNfs8P8FcH+2xrn/CgviBYfFDwvHEkSR7LuOOuP29SfunLVw+Eo/CejfBn9l/4R/BvQZdZ8WWdqsU1jv8+dK+Df+Ch3jjwHqHj/AOz/AA3uIniSTY/kVs/tOf8ABRDxh8YPD0XhPw/I1vBs2SSJJXyrqslxcTfvJWaVPvySVvgcLXhU5pHiY/F0KvuxMHxDeSXlz5fyVo+HNHt43+2XEirsqez0O41Cb/Q7P5663wx8I/EmqOtxqFvstUk/eSV6x4M4T9oWNE0e91BIjZxsvnV2mleD7PwvbfaLy482Wb/lmlbyXHh/S9Hi0vR7NPNhj/19YWsXkdvYS3mq3nz/APLOg19lye8Y2pahb6XbXFzJJ87v9ysPwT4bk8SeJFuZI3Z/MqvP/aHiS88uKP5Hr3v9m/4D+IJLy31SSz379myuDG4+ng6EpHoYDLp5lio8p9CfskeC7PT9EWzks13f9NEr7c+Fej2/hvRFkuJF3PHXinwQ+Hf9h2ySXtntb/rnXqGpeMLfSrZLfzPmT5Er8XzTMp4nFSqn7plGXU8NhYUjZ8X6xcXl79jjjdIqxvDGj3FxrHmf9NKl8K6frnjWb7R8+2vU/BPw7s9Ph/4mH368PknP3j1+eGGhynQeEtL0/T9NS4kjR38utnTLO3vP9X8lS+GNP0uRPs/9ytK8+z6X/wAedvXVy8lM8adXnmJpWj/Z3aTz9iVfudUjs7NpJbise81iSWweS4+XZWH5clxv1C91D91/yzjkeuKWI5DopYXnJde8WW+xvMvNqVwfiTxzrmsWD6B4X3Is3356w/Ftx4k8SX8uneH42eLz9j1678N/hNJp+ircaxGn+rSpoYapW943q14YahynEeAP2U5NcRdU1y8aVn+d455Pv161oPwr8P8Ahf8A0e409UiT+5WpptnZ6HYNc6f5srf7/wBysbXviJqmxo5LNdlez7SnhKB4MquKxPuwHal4o0TwdHLJZ22//nn+8ryr4hftCeXZy/2hH5UX/TOn+PPGEkdhcS3Eaf7FfNPxa8f3FvZv9sj3o9eXOdStPmietg8LQhDX4zoPE/7QGlyzPJo8bo3mfvJJP7lUbLxxZ+ME8z+3FSvFv7fs9cv1s9Ps3d3k+f8A2K23k0fQ3+x+bvfy/wDVx10SwHLDnO2GIpwPSNYvPClnCwvNQtX/APQ68Z8b/Ei3k1JtP8P6enlJ/wAtKzfENvqF5ct5cjqj/wDTSuL+LFnrg0eKz8P3G1v+WjpXZl2D558pxYzFexo8x6N4V8QWckNxeXFnE0qR/wDLOsjwT40j8P69dXl78iJP9+uD8PaxqPgvw1Lb3l55880f/LSSuY+JfxU/svwreaX9n/0iaDf5lfYYLAc/unyWKzGHxDv2q/iP5nj+41jS52+zzJ9+OuP1DVNLk8DJJeXCy3r/ADRwVieK9YvNU8DWWoahZb9+z95UXirS9Q/4V7a+KLO32bP9fHX22AwFOjQPgcyx9StPlM7w34svNL1WXS9UuZYpZpP3aInyV7N8KPiZqHhPWLDT/wDhA21RPPR4/LjdHryrwTqGl+IJrO8juIoLjzE8yR4N+yvoLTfiZ448N6bb6P4H0e1lf5P+JrqVjs/742JXfKVkcGHgfqF+zH4s8UfEv4P28l54ai0m3SBEggnnfe9dDoniC8/tO6t/FnjC4gt4ZNkEFq7p8/8AwCvIP2D5PiJqHw6t/EHxP8QK3yb4LSBH/fV7xoGl+H/+EkTxBren3Es80fyQRp8if79fOzj/ALUe9Slz0Dzn4vapZ+T5niiNotNhk/0WBJN81z/v768l8T/C/wAH65eNqlveP8n+kT6bBsiiRP7j/wCxX0j8YPg3Z/GCZLLT9QtbCLy9730cn3K+dviR+y/qGl3NxceF/HE8um3M/lSQXU7v53+29RiMHOfvHRg8Zye4cP4h/wCEf8QR3+lz+JLLTrW2kRIEsbT7if7D7Kyf7YuPh3YT2fwjuP3UMHm3eq30jvL/AMAR/kr3VPgPodvYWXge2s0uLy5T55PIREf/AHKgvPhPpckP/CL6hpdlbum+GONI9+x/4HevE5PYnuwq05wPPvhR8cNU0fwvP408YahdX6Wcf7u0k+RN/wDt7K9E8FftUfA/xxYPJrng/Wbq/wD+fSDfsSvNv+EH0PQ7mW31zxJFBpFm/wA/l/J9vm/uV6H4M8N3tx4Vt7izktdIs7l/3ckcCb/9+unD1fsHHVoQPTvDFv8AB64tv+EguNUi0Z5k/cJImyV/9h67zwf4X0PUJoo9D8SPLLs/dwQfc/77rxmz8J/CvQ4YvEHijxL/AGvfo+zfP/H/AMAr6C+DOjx3GlRXGn28Vqk3+rg2fO6V7+CoYa3N9o8PEYqvR/wneeD9P1yO8SOT70KfPsk3oldVqXh/VJIPtF7qjxRfwQQR/O9QaV4buNPSK9uLx3ZP9RY2n+qh/wBt61tB0+81DUvtFuJbi9m++8n3Er2KVLnmeJVq/aMmwvPGkkP9n6fZyxW+/ZGkEnzvXVQx+H/B8KXHijUGlv8A78dokn3P9+ujS3s/C1tnCPdeX+8k/uV4Z8YJPFmsaxFZ+G43lv7mTfJPJ/AlbV6XuE4erzh+0J8aNU0PTf7U8N6wlxqM0+zTdGjT/lt/t/7FeO/DrwP+3J408YXHijxZ8WIFi+d44IE2Q22/+BK5B/iB4g8L/Eu60vQ9Hutb8R6rdfZ7SSSPeltD/wA9q6jxJ+1hqngeyvfB/hfR7ppdEnhTVdVf7nnP9/8A742V8/HC4qVQ9/60sPT5eWJ6D4V+E/7RmoeO7q08YfEx4LKG02WkEH35pv4K63QfgXH4bSe31zx5e3V/NJsfzJ/464vwH8dLzxB8N/8AhYF5qksU+paj/ZmgP/Hc/c3zf8A31m6340vNUuf7ZuNUvXW2n+zxzo/+u2ffevco0af2jwq9ecz3VPB+h/2Inge41yWVE/1/mSVd1KTwfoemL4f0+NJ4ofuSf3K8P8W/tIeG/BelLJJbyz3nl/8AfabK8J179qz42fEC2+xeC9D/ALOtXun8+eT77pXby8hzwhzn0F8cv2mPAfw3sJ47zXLdF8t3j8yf79flb+3P/wAFCNP+L9/Lofw70+4S9hu/nnkf5HRPv/cr6/uf2Hrz40W1vrnxM1y6a4mtfKggR/kqhZ/8Eo/hPp6JJH4b+23SfJv/AN+p+M29h7hsf8E1vjR8P/8AhDLOPQ7h5Zf7GRLqBJ/nhfe9fZ1nqGj+JLCKO41B4vk2RyV+c+m/s1+MP2S/EN14g+G9mruk/wC8tP76V9E/Df8Aag/4TDwra3n2OVbry9k9pJ/frWXwHOfQWseE7jXLZRZ+JLhHf5JNj1kw+F/iZocN7Jb+IN7w/wCr8yP79cB4D8Y6pqkKXFvrEthL5/8Ax6PW98SfiZ8YNH8Hy6x4Xjtb17B0eOCf+OH/AGP9uuKr75vh/wCIcVN8bPGOj63f+A/iRceVePHvsf7lyn99P8768Z8eeINc8N6rda3oXjiL99/qIJ5N8L16R8XdU0f4yQ/8I34k0OXTdU8jzbGf7nkzf30f+/8A36+Lvi7p3xA8P+MLrw3cahL56J5qJ/Bcv/fSvn8ZD2XvHuYOftp8p1Hjn4k6x4g+36fcXCO9zB/yB9S/jf8Avwv/AAV8Y/Ev4f6xqPjG4vLf+1LC6ST9+l9veH/gFfUfgl/+Es01dC8Uae8r/feeT7n+5Xrnw68H+C9YT+z/AIgeH/NsIURI9SeDfs/2K86lV9t7h3zpex94+dv2TvB+qeJNVt7PULmWCVI08i+gg+Sb/fr9T/2QtL+2aU0kl5seHZFIn/xFeBXPwHk+H9gniDwvp9lcaXJ86XWmp/6HXr/7JesaXb/aI4/EEX2jzN7wP9+vbyulyVzxMxq88D6xs7y30+zX95urO1XX440by7h1aucfxBJ5OPMrOvLiSTdJv+/X1UzwKVIvalrFxeF45H31zuoR/O/lSVae48tMVm3Vx8/MlQdEYkD/ANoWaf6xGqq+uRxP5dxGyPVqY4/1dxUUdtJ/rJNr0ARJqlls8zzKH1C3kfNTpZ2cn7uSNKq3kf2f/j3t1q4APe8jkT93vqGb7n+sqNJO9Of95F1phAihuO1DySVXSPy3/wBZU3me1BoJ5vlpUf2g+9Of7pqu/wB00C5GP3v/AM9Kb9of1P503efQUbD6iqiHIz8fYZO/607ePQ1ThuO9TpcVR43KWkk+TNWIZKpJJ+7qWGSgqBb8z2o8z2qH7Qfel8yOSHy5P+elAHs3/BP3WLfS/wBrrwhcXEnyJqWyv1e+LXiyz1TUpTHIj7Er8lf2HvBWseLP2h9I1DT9/laVP9okdK/SbW9UuPsz+Z9964cV71Q+34Vyv3PayMzWLz7Q7ySVymvR+YjituaSS461T1LT5JEepPqqp5b4zkjt0evOLPwncfEjxgnh+zi/0dJP9Lkr0L4nSfZ7by4/9a8myui+CHgOTQ9B/tS8t9l1c/foDk/dlN/AdnoelJo+nx/IlY1/4X8uF/3deqzaP5nH8FZeq6Pbxr/q60M/Zc8DxHxJ4Pt7iFzJHXn2t+D4I5mjjjr6K1vR7ORGj8uvOPG1vo+hzJ5kib3k/wCWlYVavJA39hCEDxu58F2cjt+4+evOf2k/iB4b+Cfw6uPFF5s3QxukEH9969v8V65Z6XbSyR7V3/8Ajlfl9/wUI+OGufFj4l/8IHpUrf2bpr7JNn8b15HP7afKcuPr/UcLzG5rn/BVDxBp2gy6P4W0xILx/uT14T8Tv2iPih8dE+x+KNcdt8/7yuVm+GV5b6h5dxbvEj/6t50+/XUaV8O7iz8o2+jyvs+eSSu2lhacD4GvjKlY4+88NyafqUWn28juzvWhZ/Du8s/EUWn65H/o83/LSvVPD3gaPxRM32zR3iZI/wB3InyV0L/C/S7fSmk1zUHllh/1Hz12SjyUzl5ec5K88F2fg/7KNQ09Iopv9ZdpWleapZ6XZfZ9LuN0T/PWReeJLyfTW8P3sn2hE+55n36xLzVI9Hs/9IuN9cvtTenh+b3pl691yy0vdcSSVxeveILzWLlf7lVdV1i41i5f+7XYfCj4b6z4o1iK3lt/k/3KxqYiGGp+1Lw+Fr4yfLE6D4G/DO98Uaks/wBjfbX35+zf8Jo7PTYri4t9nk7PL8yuO/Zj/Zvj0/ytQuNioiJ5kcn8dezeN/GGj+A9HTT9H+a4/uR1+YZ9m88XW0P1zhzI/qlE6vxP4w0/Q4V0/S5N0/3E2VrfDrwHceKNmoa5H9+vPvhLo+oeLNSTWNQs2+/vk8yvpbwh4Tufsy3Eg8qL/lnXxv8Ay8Pr6s/q9P3SxoOl2+hw/Y9Dt/nSt7R/A/ijVX+2ahIyxVseG49H0O2+2XkaVuP4w0v7BnTpflet6s4QgeTOdSY7QdP/ALLs/sUcav8A79U9V1SO3m/0iRYkSrWjaxbmzluLyRUSuX8Q+G9P8cb5LfxhFFF/132VhOrzhSh7/vnL+M/i/Z273GnaP5VxcJ9yN68+8B6h8UPHmvXUfjCP7LZf8s9ldfbfs3xaHqrapca59qieTf8A6yvTPBPgfT5IfL0+4t/9x46yjQgztq16NGHumD4As9E8Lw+Z9n81q6/W/jJo+j6V5txsgiSsvxV8P/EFv+7s/KX/AHKwfsd5pdn9j8QeE1vFeT/WPXfSnTgeXKP1kr+Kv2pPCdvYtHp8nmyun8H8FfP3xC/aouLa8eO4s7qXf/q/Lr0/4l6f4Os0eS38PxW//XOvCvEP9n3lzcJ5ezY/7velc8vfmenhcLCjDnMbV/jR4k13fJbyXUEX/TeuV8W/ETw/JZ+RrHm3sv8A0zT5Kn8cyarqln/ZXhvVIEdPv/JWJonhfTtLhe41TVPNnT/WRyV6NCFOEDlq+0lMn8JeILi3RtQt/Da2tn5f+vkrn/H/AO0b4S0tJdL8P6XE11/Hdx1uzXkfijSrrR7i4eK32V5Vc+DPCejQy/u/tE7yf89K9DD+xqHHWnOiWPCvxQ/ti5njvLiXf/BWj4n8YaPpelJZ28aSzv8APves61+Gd5p+pJqFvIsSonzpJVXUvC8esXLx3En3/wDVyV7eEwuFhM+fxWMxU9DitEj8UeNPGEFvJInkJP8AJUHxU8D6jZ+Lb2zuDv3x12HiHT9L+H/hu1k0+4Zr/wA//WJVrwf4f1DxRrd1qniSTzYksfN/4HX1OF9hA+ZxXt5nk/irR7j7Ho3gO3k+a5k+eut8MaPp8iX/AMO/FEmyKaD9w9cv4ej1fxB8QtU1S4tnX7B/qH8v5K7LxhaWeseG7O4s5P8AiZO/7yT+5XfLFfynnU8Hz/GeQeGPhn4w0Px43/CN6wtusL7I5JJPkr6++Cdx4k1TSkPiD4oWsF1D8kc6R/8As9fNN/o+qaxqt5o/h7VE+320e+P5/v1f+HvwH+IF5qEUniz4oWuiI8+/Y91VVb1oHPQh7Gufr9+yjpfjT/hDG/4SjxhFexP88b+f86JXdXvijT4/EiaXpeoXqM/7ryHj++9eX/sB+H49P+GNvZ+IPiwniZIYNnl/wJ/wOur+IvxA8J/DvW31zT9Dv7+V5PKgextPkR68mqevSPVPCvw/t9QS3uLO4lltbN3eO18vY9y/+/XEppf9n+Ibi8+z2eo+T8mlWkfzp9pf79Q6V8cPEnjSzfwv4b8QS28UMH2i7R/k8n/YT/brofhXpdnofjBPEGuagl/f/ZP3enRybLe2/wBvZ/G9b0q/P7pz1YzgcR8S9L+IFx4hstL8H/6BdP8Avb7UZE2fY/76JXOfFTXPh/8ADLw82l6XrFxqmpXOzz/795/sf7lepf8ACNx/Fz4nXXhvQ/EE6aXpsiPfXaf8ttn30rxT4i/DPxJ/wk+reOJNO+xz3909ppSTx70s7ZE+/wD77/PXFjaX7vmO/AT984P4o+C449K0jxZ48s/sV5eTp/Zum/wbP7lZth4w1TWNWfR/EHihkitpP388cm+KzT+BNlU/i7eaxcaX/wAJJ4g1uW91Swg+yaVayf6pP9tE/v1Q+DNvp+j6PPZ/EWTzbqaPe8Ekf+u3/wDxFeJSlCEz3px56Z7x8OvFHgPwnZ2cdxZy6vql4/m6bJ5H750/vpX1V8E7K90OzguPFEaLrl5+9tLHzN72EP8Aff8A26+UvCXiT4T/AAKhg8aaxqEsvia/gS30q0RN7wwv/wCgU/T/ANqDxhqnipPD/gt0ispp9ms30nz3F4/9yGvewmMhBxPAxWDnVUz7/wBN8S6HI8Wl28jSyo/79P467CHxBp/h+28u3t/n/wCej/fr5h+HXxc8J/CPwfL4w+IHiRft7/6P592+x5pn+5DD/ufx/wC/Uvw9+NGqfF3xPcaxb65E1gl15VpBBJ9//b319PDG0Jny1XBV/iPo7+0I9cm+z28iPv8A9Z5lZPj+40vS4ZdPs/Ke/uY/9Lu/7kP9yoDrml/D/wAPN9suEllmj3vJ/cTfXFaP400PXNZvdVvPk0vTf3t3dySf67+4ldEcVTOeGHrQJ7bwPofhO2TxBp+no2ualBsgfy/9TC9c18SP2b9D/wCESi8F3FvF5V5/xMNZRP4/7iV2/gzxx/wlHiH+0Y5E23Mn7vzPuJs/grobPUNL8SfEiL7ZJ5qeejv5n9z+5V81OZL9rDc8Ov8A4F+INH8Z+FfD+j74tN8Paa8r2v8AAkzp8/8A45srB1v4Z+LNQmfS7e8eJLOTZHIn8e9//s6+m7aOyvL/AFTVJJN6+e6SPJ/cf5KwXs9HjlceYixJ87vVQhDkDnqTPE/DXwL1DUL+6k8UaerP5aRfP9zYldNo/wAP/h/qN/8A8I/Z+H1iis/9X5afJvr0iG40eRPN0uOJWuY/876NK0yP5pPLT5Pm+StYez5CoVeQx7Dw3Z6W7SXGn/urap00v+1YUuI5Git/9itnxDqMd5p8tmI9jvG6VT8N29xZ2ET3Ejqqf7f36oJVahwvjn4V2/iTSpfsW99/9/79eI/8KnuPC+s+ZHH9yT/Wf3K+m9S8QSI8skexFf8Av15b458WaRpdzLJcbGidP3/7yuarVpwJpQqTMPwx4P1XVLyW81GP7LFv/wBZ/c/260n8b2UaXvhP7bElxDH5sG//AJbQv99P/QK8+1L9pTQ/D9/a6Peawr/aZ/3cn8E3+xXzx+0T+1RJ4T1618Qx6Wn+ja5NbyfvPvuj/wDj6V588VTj70T1KOCnP4j3DUviR/wlD3/wv12zt/8AhJtBke48OSJ/y/w/88f9/wDuV5f4xvPA/wC0J4ee3jt3i8QaUn+snk2PM/8AG/8Av1xfx71C81jRPD3x0+HeoT2t7DIjwXaT70toU/1Lzf7b/PWt4t/tj4ieGNG/aY+E+jol1C6W/jHQ4P8Al2ud+zzv9x/468KdebnKR7GHoexG2fwb1yWzt/Emj6husoZES7gRPOltv/sK9c+G+l/2M6S3mnv9gm/jgffF/wADSuc8Gapqlxr1r8RfBdm8Ev8AqtY066j3oj/3HT/b/g/369f8SaPJofglviB4f05vsX/MS0qT79m//wARUQw32yatetz8hieJPi5e/BdLj+x7i1+x3kfyJJB8j/7Gyuv+BviP4b/EBItY0P7Lo2uOnz2Kf6l3/uJXyn8S9X1D4izeXo1w1v8AvP8AUT/fT/b311XwokvPh/Zpp9xIlxcP8/nwPv2P/feu3AYqcKnvHHisLz0z7psLy8jCx3lm0Wz+Of50erj3Hz//ABuuK+CHxMk13w3FpesSfarfy/v/AMaV3Vzo8lvC+oWdx9qtf+en9yvqqU+enznh8nJPlIazryP95xV15I4/3cv/ADz3VTe4jkk61sBD/wAs6b5v+1+lPeTvVd5JPWgBzyfJVGb71Wv3mz8KpPcfPigB/lp/dFBkjjTpVSST7/FN81/WgB8/+sH1qXy49nWoU+emvcS48ugCKT77/Smv9005/vGkoL52R03zPapdg9TRsHqa0GfjTDcR4qwlwd/l1h215V22ufMeg8c1obirEMnf9azbOSrcMlAFzefQUeZ/9hUH2n3pk0knkvJH95KBrVn3d/wSy+Hdnb+Er/4iXFv+9uX8qB6+ndf/AHk/l15b+wlo8fhv9n7Ro5I9rXKebXpeqySSXPmV50Zc9Q/XctofV8uhyjIdLi31Q8VXH2O1aStSz1C3/wCWprl/Gl5JI8vPyVqacpwaeH5PFHixLOSPcqSb5K9IxHZp9njOxErJ+Gej+XZ3GuXMfzzPsStK5k8x6zN4w9wdDJc/NGap3kccm/zJKspL5b5qC/Mcf7z7lVzGuHh+8OL8YahHpcK2cf3nrj/28/FHw/8AA/wo8JafZ2dvFq82x555H2PU/wASPEFvqHiq1t5LxUiSfe/+4lfl7/wVc/aj8UfFj433tv4X8STrpuiR/ZI0gf8AuV41WrUrVOQ8nM6/1avzSOq/a6/bY0vw1olx4P8ACeoRXuqXKbJHj/5YpXyS95HeXMWuXkaSy/feST+OuNs473UPN1DULh5XfZ88kn367Kz0/wD4kiSUUqXIfM47Hzx07SOhh8SWfiCZI9Ut4tkP3P3ddLN408P2lh5clum//crypLyOzf8A1lRarrd5ep9ns66va8h5EqSnP3T0nU/iZpdvZ+ZZRqrVwviHxxea47x28jJ/1zrnPs8kk3mahqG2nPrFvGnl6PH839+onVnI2o0ucj1jUY9HhluXk+Z65R/7R1yb95ueuj0rwX4g8UXnlxxu6vXr/wAJf2VtY1C8STUNP/5aV5uKzDC4Gh70j1MJlGKx0/dPO/hj8E9Q8UXkR+xvsevtr9mf9luz0uzi1DVLNVdE/jrrfgn+zXpeh2ET3Fmu5K9ntvD/APZdh9jt9sS+XX51m3EFfF6Q+E/RcoyGhgfjOA+JfjjR/h34efS9Hj2XrpsSSOvPvAf9qeINYiuNc3u80n+srt/EnwnuPEGsNqFxJ5qeZW34Y+HcVvcpJ5aokNfKfWLwPtaMIJcx638JNP0vQLBLi5j3bE/d/JXpemfECO4T7P8AY0SJK8Qh8Q3keyzt5PlhrqNK8SSSW3lyW+z93XP9YMpYPnmejX/ii31DfbxT/JWTf+PI9PmS0t7jcqVwL+K7iKF9H0+3Z5Zn/wBZWtD4DluNHTS9QuGiurn/AFb1MKVSsT7KhRh75a8VfEzxJ4gL+H/De93/ANis7w98N/EF4/2PxR9st23/ALuRJ/krt/hX8F/+Ebv0uNUuJWdP79ei6lo+nm28v7R/202V6NLB8nxHn1cZT+CA3wf4YvLPQYreO4+0bI/9Y9aVhZ2dnN5l5qCRN/3xVLQreS3sJcao6L/BXIeJ7fxReJL9ouF8iuWr7nvGVKl7b3T0PX/Fmh6fbfu9Qil/7b15b4z+OFxHePp9vZtt/v1yX2OW3vHePUdz/wDPPzKyPEN5qEaPqGoXluifcrmhV9sd9LBwowOe8c/Z/FupfaLzWJ4vn/1cclYU3w3t44ZZI7yV0f8AjkkrI8YW8dvcy6pZ65vd/n8uOvNPG37TmueG7CfR445XfZs3+XXZh8PXrfCXOrQhTNnVZPBfgK8nu5NQidn/AIJHrx3xj8XLzUNSuLjRNHdovM/1kdcD4h+Mml65rE8niySW6lST5IIJNld94PvfD+l+Bk1iz0v55vn8h/4K+go4L6vR5qp40sZDFz5aA+w8UahqGiPcXEn2dt/3K5Ly9YuNbij0vc77/nq1DcXGsXlxeR/utn8FdN8MY7dNbS41R1V666EoQ+E5a9Lm/iyO7h8B6heaDb3Ekm+eZP3ieZTX+C9xJZ/Y443aV/vv/cSvQdK1jw/obwaheSr/ALcldBD8UPhnrk3maHcKs8P+vjk/jrWhVrwqfCebXpUJfaPCPHPwP+x+VIbd5YodnlvTrDS7PwnbPcXh3tcx7PLr0bxt8WNH1R7iSys1S1h/1if368C8c/ETwf4nvLj+x9clsrhPkSCT7le3SlisTDlPGq/VcNP3iL4i/Y/Cfhqe48L2cXmzfPJJXhmseJPiBb6TdeKNQuF2J/qE31S+Ivxc8eeF9Yl0vULe4lsn/jry3xP4w1jxBN9jt9cd4H/gr6PAYOpCh7587j8dQnP3DufAf/CYa4l1qmnySvdTf6x6+j/2SP2Z/ip4o8Z2HiTx5rGjPZO/7tNSvk/+LrwL4RaP4ws9B/tDRrO6uNn9z+Ovp39kX9m/9pD46a3Z3muWi6JpNtJvRJ5/nm/74rerLkOWhThP3z9V/gJ8O/Bfgv4dJp/h/UNNll8v9/8AYU+R/wDcrnvij48t/Bdhdafpdu+5/wDl0nj+/wD7laX7PGh3nwr8Pf2PHZxStDHs8/zKg+M3h/UPGmlPqlvJBFKj7/Pn++leXXPWoHk+g/bNP1i38YeMNYisIpn3zx7/ALn+w9ejTfFDw3qHlaxodvLdJ5m208iP7/8AwOvJdS1jR/Fmlf8ACGax4blvL+a62Xbv+6TYlev+CfFnhvwfoK6fJp+l2cX2TZapBJ50qJ/uVhQhyFVZHp3gPxJ4X+E/gNpI7i3fVNSjdJPI+d0d6d458J6j4s+Glr4fk0/ytUuY9iQfxwo/8deKeDI5JJr3xJcXDfZ0u99jPJ993/2K9c8AeMJbe5nvPtl1qV15G1PM/g316keScOSZwyjUhPngeQah+zPHqmvLp/8Ax9RaVsR55I/4/wCOuotvgPodnqtx4zvPCa3qWcCPaJ5eze/9/wD3K9Ye40Pwu/mXm9lSPzXg/jd63U0+88QeD7jVdYj+wNqSb4I44/8AUwp/fo/suhL4So5jXh8Z+cfxdt/EnjDx/r2seGrP/SradIt7/cR/40SvUvgD8Irjwfpq2eoax9v8Ya3sS0RPuaVC/wDH/v19QP8AAf4dx+HtNks9Kg+26lvlsY/L+d3/AOez1L8E/wBnbTtD8XXXjS8uImSzg2X13/A7/wB9P9yuP+ya6rc0TvjnFCNDlkfN3xs8B6p4o1htLuLC6TRvD1r9k0eCP777/wDXTf77/wDsldr+zZo978JvCjfF34kWdxb6XpvyaPpv8d/N/A/+5X0DpvgfQ/FnjBriSP7Pawp9ovpHT76JXlv7aHiT/hJfDFv4f8D6esUDxp9h/wBhEf7myq+o16M5VCKWY0K1H2R5f8S/2wPiJ408bxWfmfLfzp9hsYP++NlaPxm/bZ8B/DPWNL/Zy8Pyf2lq02yXWEg/57P9+Hf/ALHz1s/C79l8aRr0XxI8U2/m3VhoyS6NafwJM/yP/wAD+d3rib39gO40fxVdfFS4j+36jc3Tvp0/8aTTfff/AMfrow9LFTgc9erhaUz1fR/2tPB/h/4Ual4o0u4Ta99/ZWlP5n+uf/ltN/wDYn/fddB8Af2sNK8UNf6hpm6fZa3L+f5f8aJXlXxj/Zv0vwu/hr4d2cn/ABT+laU9vOmzZ/pk2zzpn/4Glb/wx+Ecfwj8Ga54X0v53s9KT9/H/H52/wCf/wAcrvjKvR3OGfsK0D2HwZ+0ZH/wrfxD4k1B9sSeSif77vXm/wDw25o+seIX8Jx3G2K2j3Tu8eysDw34fvNV/Z48R6fHJslS+tv3kf8AB++ryPxP8O7PwnDqXiHy2fzoPkg/jmf+/W8q8zClh4TgfYeg/tAeCrfSotQk1iJJb+P5E/uJV3/ho3wn5K/Z9Yi2bPv+ZX5VeOfiJ8SNL1vy/wC0J9k0H+iuknyJs/grqz481zUPhva6xp+sS+akf7+Pf/33WX1+ZUMBCcz9ItH+NHhfUNVazuNUR/3Cfu/Mqr4n/ak8L6XolxHbypLEn3Pn+5sr86fB/iD4ox+brml6xPcRTWnnQR+Z/crSsNT+IniC/uriPf5Vzs+1pJJ/qUesvr9c6P7Nofzn1B8df22PD+h6JZRxxvKl5/qHjevkHxb+3B8TNQ8Vatp+j3DfZ9myCOdH2J89eg6n+z3ca5Yad4gvBLcJptj5V3aeZ/rvnd/k/wC+6Lz9nTwvealZyW9wkUV5B/HB/wCgVy169esaUvqtE+f/ABVrnxQ1TxJYSaxqEtravOkuxPn2Pvrc+LXgPxRrGt+Ko7uB71LmC2vdKg/54v8AP52yvpS2+Advb2a3Go+H0laz/wBe8fz+cn8Gytb/AIUnZ6prdv4kt5Xnim037PJHs+fZ/frjjhq/JqdUsVhZfCeZfsSeC9Y+JHwK8X/Ae4uPtstnave6PafxzbPvo7/7Fe0/sox+H/Aeqy2+qaHL9gv7X7JrNp/z2T++n+5UX7P3hP4f/B/4haX4s0fXEil+1oj7JNn2lH/geovHnjTR/h/481Lw/cXH2BYdSeK1eeP5H3/P8j/8DrqjQ9w5auK9r8B3Pi3w3pfwj+ISaXJG9xBNsdHT7l5C/wBx/wDfT/2SsvXvipJ8O/ENxp8niCK6S5+SfRr7/ltD/f30+z+JEfxg+FeqeD9Lktb3XvCto93o89rPv+02f8af76fO9fOFz4sk8WJBrnxV8P3X2e2nS3nuoP8Anj/A7p9+tIUjD2rfuSPTfG3gu40fVU+IPgPS55fDOsSbLt/MTZZzf3HSpdH0Ozs5vMl0dYJU+eCeT5PO/wBz+/WdZ/FDxJ+zve2+uaPcReI/B95/x9WkkibPs3+wj/PvrX8c3kfxY/svxx4H1D/iUTR/8Sp3R08lP+eL/wC3WbhrzFUpzfuyPXP2XfHGn65c3Ef2N7eWGTb/AL9e+6VrFxpf+kW9wjo//LP+CvkH9nWz1HT/ABbdXkkk7u/yJGn3K+qtKjk+zf6v/lnX1WCn/sp5NT4zc1CzjvLb+0NLH3/nkgrA/e+Y9aFteXFn+8t/v/wUzUreK8h/tDS4/k/5e466DIoPcdqEkk2UfaIvaoprigB81x8j1n+Z5kvlx5p73FMT92/mUALN+7T95UXmR+lM1C4+lVYZDI9AF9JI4+1Mf7ppryDFRQ3H77yqAJef9bTd49DTph5dVfMO+tAJXuPLHzyUfbPf9Kq3knyZ/Ws7fcehoA/F+zvMVpW1xWDZ3FaNlJ8nFB5ZuW1x/wBNKtW0n/TWsi2uKv20lAF/zfc0+zj+2XkVn/fk2VV8/wBq1vA1v/aPiqwt/wC/fIlTI6MJHnrwP1N+DlvH4f8Agz4e0+3++mmpV+51S438S1Q8PSfY/Cmm2ccf3LVEqvqVxJH+8ry6W8j9qw8f9khA0P7Yl3+VisvX7yS4/d+ZUS3mf9ZWXeah5l+scclaxkOFI6zStUjt7CKzjl27KHkkkm8yuaTUJLO58qU1pQ6pLRzl8pvQyeY/+r/5Z1znj7VJLO2by93+rrWtNUSOF/MkrkPH+qeZDL5clZTl+7NKEeSZ8fftt/tGR/Bvw9eXHn/6fcwPFBHv+dK/MTUry48YzXmqXkjrLcv5s77/AL719Lf8FL9Y1Txx+0Ivh+3ud9rYQfvP3n33r56ufhPcSW0tvb3jbpq82hDlnzHxGfYz6xXlA51NPs7PZZx3C/PVzxVFrFv4Y/4lfz/9c66O2+Ffhvwvo/8AaGqao0tx/wA85K5zxJ4ot47b+z7OTaldVL3z5qc+Q85m1jxDbuyXFMsNU8UXM3l2cm//AGP460r+zk1S/wDLt5Fdn/gr6l/YV/Zr8D3l5/wknxMs0dfvx+ZXLj8xoZdQ5pF5dl2KzTFctM8l8E/s7+IPGFhb6obe4Rn++j16l4T/AGO5PJeS8+R/9yvuzRPh38I7iGK38P8A2Vdkf/LOpbn4T6XZ3L/Z7dWR6/OcfxHXnP3D9QwHD+Cw1P3/AIj5h+HX7M1no+3y7NG/4BXv/wAOvg/Hp2z7Zaf9tNldr4e8D2dvcrH5a16Jo+hWccPlyRpXhTxFTE+9OZ7ShTw38KJzmlfD/wD0by9P20zW9LvLeH7Pe2af98V2CeVp+6S3qk9neapN+8+7XPVhz+7EcKrh70zjU8N2ckKSW5qe/wBHEejukduldhN4bs9PsHuI5NzpWNNeW8ls3mRotedXpckOWR6+Dq+2+A4iz0sf6uT71dRZ29vFbPbxybpfLrDubi3+2PHHIn+sqxbXEdvqsVx9o+/XFClznqTnyUzo9H8F6zHcpqNvbpu+/wCX5del+GtIvPFFnFqGxftFnJVf4V6hp+sa3Lby7PubI/8AvitLR9P1TwP4mn8zf9nm+evoMLGEKZ8ziqtf2nIdvZ+INH1B/wCz9U2wTolH9l+XNLHJHu3/AOrrmfE95peqXn9qaVJ8/wDHWXqvizWNP/eR6oibKyr4owp4Wc/hNXxVp+uW8Ly/2ysS15p428cSaPZyxXGoPLs/5aRyVQ+Ivxk1i4R7P7YmyvO/En9qa5pT3Fnqn7p4/wB46V5M6vPUPdwuF9jD3jj/ABn+0pbaW9xHp959nl/vzpXFv40+JPjCwl1jVNUW4tf4PIrq7zwv4Ps9HaTxBJZTy/f/AH8dcLrHxw0/wXbPZ6P4Pi8p/wDlnH9yvZwEKNb3YQOPGRnD3pTLVn4k0uPTWk+z3Sy/89N+/ZXAeLfHHw3ks5bT+1Imv3/5aTx1g+Nv2oI7x59O0vTvsF1/B8nyV4H451TVPECXWsSR7b3/AJaeX9yvoctyapKfNI8HMc4p4WhyRPWdH+E+l+INbfxRFHB9i+/JP/fqDSvihp9v4kl0uOz3WSfJsryez+ImuSeDLPw/b3k8X2aT95sf79eu/Bj4V6f4o8NS+IJJJWuIY9/7yOvTxmF+r0/fPJwGM53+7O60S30PWPDEviDw3ZL9qh+eSCT+OsO2uL/xGn2izs/sV+n/ACz8uvSNB8B+H9P0e1vLe4+y3E0ez/frsofhXJLpv2yPR4pdkf8Ar0rgwsoQOnGc8/tHh+kfGy88F6xFofxA0+W4sLn/AFk/l/cq7qHxA8Fx6w//AAi9vKnnf6uT7m9K9Q174Z3lvYLLrHgtL23/ANtKueHvgH4P8WWD6h/ZaRSw/cT7lezCVBniTjUUDwfXrzxhqF28nhDT5bhtn+okk+/XL698P/HGuW0uo+KPCa2DQx/6yOvTfiX4X8SeF/ELx+F5Hilh+5/crn7742eKNPT7H480dZU/1Xl16VKNaHwRPOq+xn8cj5N+J2oeMI3l0v7ZuiT/AJ6fPXnngyzkuPGEVvcSfunf95X2l8S/gP4b1T4Y3nxMj05/n/1drsr5c+Gnw7uPFnjZrfS96pbSb5JJPuJXvYPFc9A+ZxmD5a94HsVh+0Joej21r4D8N2++K2TZsg+/M/8At1+k/wDwS++C/jjVdKb46/ETxZe3COmyx0qD/Uwp/uV8AfAr4D+Hz4k8vwP4X/4SbxNczp+4+5Cif36/b39mP4f3Hw2/Z1sLPxR4Xt9DlS03yQQfxvXHXlz/AAnfgvc92Rg+Ktc8PafqU+oXkl0sTx/6j7ju/wDsbKd9oj8SeFYLPT7iztV/gS63vcf8DrlfFuueJBf3Fn4T8LwX9xcz/uNRvo/ktq1/hRb6p4XeWL4oaxFcPc/JJPHGiP8A8ArljHnO88O+IfhuPw38Rbi8j8SfaPOf95J5/wAif8ArpvBngvW/FMzaxbxaNptuj7PtXn738n/fevRv2gf2Y/hn4k05Nc8Lb96Sea8+/fv/AN968lsPB/hvw/48s9R8eeKNReztvkg0axk327/771lGlOHxGvPCcDu7rwnp95rcGsWGuXlxoejpsn8z9zC7/wB+vW/hjeaf4YddX8SSJ9suYPnSP7iJ/BXPeNvHnwnuPBmm+F7e2g+yvdJ5elQfx/79Y32a31B72N7hopbn91PPGn3Ia7IUjj9rMuf8LIuPFnxUiuPti/YtNkd7r+NH/gr2LSvHlv48sH/tTbp2nW0iRab8/wA9/wD368M8K2/gvwnokslntitZv3skl1J877H2f+yVmp48/wCFieKrjULe4ls9Ls/3Wm2sf9/Zv31vDFcnuHP7Dn94+lJtPjvNe/4SzT7xXtdKtPsWmu6bEhf+P/0Cuh0HT7fwn8Jb/T7i8Tdcz75JP9j+OvldPjP4o1BNN8Hx6g+zz0lu4PM+R69B+Hvxc/4SyHxNJcag7aXo+s7LuOf7jvD9xP8AgddUK5lKgeoaz4o0+y8DXGjxx79ZvNO/4mPlvs+zQ/PsSvGfHlvJHDa6feHddaPqMNxfOifwPs/cpXiz/Fj4yXni3XvFkaPPFeTv5km/Zvf+5XoP7HnxM8WfEDW7iT4maX/oumxvqD3Ukf39n3Ef/gaVh7fnmV9XnCB9E/G/x54f8N6bodn5cXkfZYZf3f8ABM/3N/8AwB619B1jR/GngnTZNYkW3/s27d76NPvon8D/AO5Xhl/qGj+NH03R/EHmy2+qzzPHd/8ATZ5ndP8AcrqPCtnceC9N8UXF5JLcWE1immSTyP8A65/k/wDiK6qVXknzfZMJ0Pc9/wCI6P4nf2f40sJbyS3il85/n/v7P9uqEPhfWI/hXqn/AAid4iz+XDFafa0R9+zf8lb2leF/DeoeFU1mO9l/49f3k/8AG6f7aVjWmh3ng/w9q/iTw/qkt5pF55P+iyPv8n7/APH/AAVXP7Yj4Dyy88QXnhf4deJvElnHFa3ST2yXWm3f3HffXF+PLjw/8WNBsI47O6s7x498F9YvvSF69t8V6H8M/jJ4M1TwnrFx9iurmBHS7+59yvli5+Hfij4H+KpZLfxpL/Zrz+U9jdfOn+w9cdWZ6GFgeS+NvC8fjiG68N2dxbz3+lXb/bp4P3L/AH/7lRXnhvVPDdtbxx6fLB+783y5I/8AXV3XxX8D3nhfW7X4wafJFFBeP5V9Gn/LaoYfiJJcTLb+MPD/ANv0u52PpupWifvU/wB9K82XxnoQguQv/CW40e41Ky1TTrf/AEK5+TUoPL/49q6TRLjwv4b1jVLi8s5b37HPs1m0g/5bWz/cdP8Ax+uevL3V/B+vWtx4Ht4LrS7+NHnk8vY7v/cq14G1TQ/GmvXXijwPHezy2f7q7sX+R9iff2f33ropQ5zkqzow+yetaPqHw/1jTVvPD/iBPKuf9RvfZs/36isNY8L/APCTt4X8Yaf9lsptiQXUn/Ls/wDfT/YeuL8U+C/Cdn5WseG45YLy5tf9LsZ/k/j/ALn9+nTa54P1jQX0PVNRlvbqz2P9lk/1yJ/sPVyhOBy88JntKahoehpLoceobJ7b/j08v7kyf30rmtE+LHh/S/CrXFzb/wClWc7/AMex/J/g/wB+vHb/APaQ8N3lm9no94uoxWHyR/P5UybP4K821740fCv4kTXWuaH4on0PVLZH8zSn/dOj/wDxFacs5ihyQPVviF8ZND0+11LWPD/huwutXsN8sdpaP+6vP9xH+49eT/tX/tOaf8QLPQfFFvoctrp3iHQ0SCC7jd3huYXff/wP7leLfE2T4iXmpWXijwveReUkiXc89i+//L19Ip4TuPiZ+yR4c8aXmlxf8U3qLpdx+Xvf59m93o9gEKvvni37G3xwt/hX8RYPFGn3F1b/AGa782Se+nd4Zof40/c7/wCDfX1z8SPEHhfwPr0HjXT9UsNU0PxDa/2hptpGm95kf78P/AHevnjw54L+Fej217H4Pt38PaveJ5v9nQP/AKPf/wDAK9u+GnwT0P44/Byz083E+l694Ju/tsEDps85P40/3Pnq6fwGNWPv85g+A9Q0/wAWalq1v4w+HctnYPJ/oP8ApafJN/Hs+f7lbnwl+Lnw/wDB+vf8KbuJLiXQbx9moyTx7Hs7n+//AHNn+5Wf8YPjx4P8F6U3hfT/AIV2t1qV5GieQlqjo77P9dXlXwN8QeIPiB4wvP8AhNNLdooX8l7HyPnRP7/+xXPXOnDy5z7Q+D/iC80Px/deCr3S7dLeH54J/wC5/t19D6bIY4fLj+X/ALaV8TfD34wafea9a6BpVnFLrOibN8Ek/wA9zZ/x/wDfFfYHgbXLfXNEt7yzkTf5e908z7iV9DgJ89A8qt/GN7/Wb/MkqvbXEmnO9zafOj/fjpftBkhS48v5HqvNJ5afu69EzH6xZ28aLqmnnfA//odY1zJ8/wC8+/8Ax1raZeW9s7aXcf6qb+D+49YOq/aLO8a38vf/ABySf7FZgHmDfR5kvr+tReZHjzKdbSCT5MUAQTRySPUsNv5cdWnt+9Rv1/CgBtU4beSO5eStBI6d5fyNg0AVX71HUlM8v5HzJWgEFziT93TfsZ9qdbR+ZNV3YPU1MQPwos7jj/WVq2Vx8v8ArKwLOStSzkqjyzatpKv20lZFncYTNX7a4oA0UuOK6T4VXEcfjzS/MH/L8lcjDJWp4a1A6XrEGoRyfPbTo6VE/wCGdOEnyYiEj9WtKkH9g2sv/TBKZeRySJv8quV+D/jjT/GHw20vXLO881ng2T/79dLeXkfk+X5lePSn78j9zw3JOlzxM68k8uP9389Yt/5ks6/Z/vb617yS3jTzJJK5yHWI7jWG+zyfIlblRpe4dHpqRXCf6THuarUP7v8A1lQabJ5aeZUVzcf9NKnmHGkSXN5JGj7Pv1xfjPWDb2dxcSfwR1vX2qRxwv8AvK8b/aH8d/8ACP8AgnUbyO42slq/l1xVapu6XJS5z8rf2rPipeax8fvEN5ZXHyQ3bxJXDWfxM1yL93/F5damveB9c1jxZf6xrH/L5fPL5n/A6y/GHge58NzfaJJN6f8ATOtaFlDmmfkGNqVK2IqnPeLfHmuXiPHcSNWDbR6rql4lvHG7u/3K6nQfhn4g8aX8Vv4f0ee4Z/8AYr6z/Zs/YDuPC72XjTxzbpK7/OkD1xY3OcLgaBpluSY3NK3LL4Dgf2Y/2S/7Qs08SeKNP3v9+OORK9z1XwvZ6HZ/2fo9ukSp/cr1p/D9nodulnp+nrFEifwVz+v6PbyW3+rr8pzLNMVj6/N9k/XMqy7C5bR9nynmOn6x4o8PzeZZ3jJs/wCmle4fCv4sXusaCseoSO8qV5R4k0v7GjyRx11vwf8ADd5e7Nnyb68r2U5npc9A998Mapp8kKXMj/8AA66+wuI/J8yMfI//AC0rzzwxo9xIj2cf8Fd/4P0+4uLD7FcH7kldGHwtQ4KuIph/ZdxcTeZ5+xa24dPjjs/MjuFeols/sc32e4+5VW/1D+z7Z/Lkrq5PYw5pnLKftp8sSLUrzy7aW3uJPmrzvXtU+zu0chetLxJ4o+0P+7krhte/tC7vFkjk+WvnMVV9tM+lwGH9jQKn9ofaNS+zx7m3vXdeD7LR5E/efO6JXK6fof2efzJI/v8A/LSodN8USeG9eWzkjZ0d6zpfGdlb+Gd14Yk8Uaf4tfXNOklWJH+SOvZrP4kSahZ/aNcs9myP5/MriPA3+lwrJbxpt/6aVB8UfGGl2f8AxKo4/wB6/wDyzjrplVqHl8kJ1/eJfE/xQ0+8v3t9H+X/AK51Q1jxBqGsWz/u1rza2vJLe/fNxEm//lpJJWr4n+IFvoegv5muW6RJ/Gj/AD1hSjXOqUaBm39xeW948eoaf5sX36808eeMPFlxez6fb/6Hap/yzgrE+JP7TGqRJ9ntrj9w/wAnmbK89h+IGqapYXHiSPUdyeZs2PJXrUsBOcDOrjaFE6b4qWf2jwG/iTT9Qlllhj/1e/79fJ2u/tMeJNDv/wCy5LNv9Zs/eV6h8Tvi54g1jSvsGh38SRJ9+NJK8O/su4+IHif/AImEcX7mT955dfZcP4D6tDnnA+Hz/Np1p8lIi1v4sXmqTtJ9j/0iarnwr0vxJ4gmvLPxBcbPOT/RY/461NS+F+n+D9HfWNQ2rL5m+OOuX8N+ONcuPE/2fw/pcs7+Zsj2V9RSUJQlKJ8nLnp1/wB7I9L+G3wnkt5Lo+JJInaGT5E/jr3b4GyR+INQl8P6XGsUtnHsuk/v15l4h+H/AIot/DFv4s1i4+y6jc7PLgR60f2ePEl54X8T3WqSSfM/yPXkTpfW4SkeisV9WnGCPbvjB4f8P65YWul+H9YS1v8ATY/nj8z565T4e/GT4q/CPUWttQ1BNSs5v9X/AB1H8SNL1SK5bxZJI6S38HyR14T4M1zxx/wmF/4f1y3upYt++N/L+5V4DB0+T3zLGYypGfun2V4Q/a80fxYkuj6hZ7f+mclaXhjxpHqGpXUenyebF5e/5K+IPE8njjwn4ql1yzuNiI+x461PCv7YGueC9Wlt7iP+Cu+OV88/dOKeZckD6W8f+JPB+seIW0+4uHt2RN8nmffrzL4i3nw7vPDzap/aCvcQv8iSSfO9eaWvx88QfFjxDdXH9jbHSP5JI64/XriTxJC1nbxzpL5/z16mFws6c/ePOq4qFaj7p6Jf/HTVLjww+h/ul2fJHBJ/crlPh74as/Cb3s+oac0UV588ieX9+rFh8N7y48HvqEfh+6untpE8yeNK5f4ha5qFxfvJZ6hdKqQJF9kjSrjye05YGUoVIw55H1L+wfeaxH8ZrXSPDen2tmt46Jazwff2V+x2pfDeTw18MUvfFHiyWW4+w70gSTf89fiZ/wAE9/iJ8RPC/wAY9Gt/h/8AC+6iSF0+1axqSfIn+3X633njDx/8XPDfl29nLa2UOz7VO/8AG/8AsVxVfcqHRQh9s5n4e3HijxZDPpen272bJP8A8fd1B/7JWF8afD89xbP4X1zUNOsNkm/fPPsd/wDbq1YS+PPDfidvBf8AbPyXkm/yII/nRKi8f/DPxRHYXXijUNLglitv9W7/ADy1HPA35ahf+EUd5rGiJ4f0PxBf6tawx7PP+5bp/wAD/jrz3466XrngvW1txZ2t/Fc3ez7CnyTf8ASuTtvjR8RNL0W90bw/rEUUUMn+o/uVzfwu8WR/EDXr+91DUbjSbXTZ9l3r8l3vuLmb+5Cla/xoGf8ABOr023+x+Nl1jUNUutLih+TyP4E/uf8AA60fEn7TGl+H/sHwv8F6fcXmo69d+Vd6lv3un+xVj4l+EvhX4f8ACSap4k1i6ae5TzYEnn33Ezv/AAbP9uvJ/h7Z3AmuPHEmsRRf2Vv+R4/ks0/ub/79clONfD/EbS9nW+E6v4t/Gi4t/iXb/De2t/Pt7ZEij2fwPs/j/wCB12vwf0+38P8AhjXPih4suNl1DOlpaWMkn7rzn/8AsK574P8Ag7R7zVb3xp4gkiuLy8T7XaWkn33Tfs/+zr0b4Y+H/D+qarf/AA3vLj7erv8A2rJB/wA8X/gT/wAfral78yZy5IckTq/hp8LNPk163l8QagktxvS4n/2NifIiV1l/8E47f4YxaH9s+xS6lff23qvl/wAafwJUfwfk/wCEovNSs7y423GlT757WP76Wf8Af/8AQK56z/aNuLzxnf8AhfXNLS6a22WmnQeZs86wT77/AO/XqRjCEDzo8/PymWkmljXte+xaev8AZcMbzWKbPv7Eq18UfEH/AApdNG0vwnpTPB4wkS7u/k+SH5Nmz/c+SneEvEHh/XPiK+uS28sGl6PBs1VPM/49kT+P/gddD8S/Enh/xJu1Ty/tml3NpvTzI/khT7ibKytDkkawnP2hS+Dmn67eW39seG45b+yhu/8ATtOg++ib/vp/wOvavijofh+3+F1vJrFxBbpqU/mpO8fyb/7n+/XzX4A0v4gaH8RbfxR8NtUlSDy/KupLX7kP9z5K9i+Lvxc82zi+D/xYt4oEvLHZ/bP3ES5/26MD7kPeIxc/fHeAPGGlv4hbQ/7U/svVIfk/0v7lyn9x0rqLm8vPhv4V8Q+KNL0/fZ/uXvtORN6P9/50r5pTxZpejeOf+EP+JGoOk9mif2VqXmfc/wB+vZPE+saXH4e1SXQNR+3xXmjw3F3BBJv+5v3vVxnyEqNzO03XPDfjC51HT/CccUsWq6c/2S1uvkdH+ff/AN8V478XdYs/Eng+z/tzT4pYprv7Dd3f/PGZPuVuaVeW+jppPiTwnZytFDI8tq//AD2d/wCCvObyTxJrHg/UrPXLiKw+2eJ98EEn8E38Fc9T4Dqpe5Ms+LdMuPGHwT/sOTRv9P0e+RINn/LZNlcN4JFn8L/EmkyeJJHvNG1id7ffBHvSG5/uV6d4Ak/sfxhf/BfxZI9ldXMCSyT/AMH3N7zUzwrZ+Ax4w8R+IJLyw1LwbZ2r3F8kH+tSZP8AlslL2BH1rk5zzn4zax4g8P6rLeeH9LWBLCd01W0/g+zf30/26q6b8XNLj+HUtvqEfyJvfRtSsf3N3M/9x/8Abpvx18P2fiz4naH8cND1SV9N1vTfsl9Yxv8AJ5Kfc/4HXxf8cvFHxo8L/EK6/suOytbPQX+12lr5/wDx82f8D/7/AN+uulSUDlliOc+qviR+2hHZaOlvrHiSyupYdN/5e4N9xC/9z/Yevl/45ftEa5rFnb65Z6xe6XZTTol3qMkm/Z/wP+CvDviF4w8WfEybUvGMdnLZaykiP5//ACxvErL8K6X8SPGk39qSXHkLM6JJaXX/AB7zVPLzh7XkPUPEPx41DR/Fv/CQaN40t7qVLVPLvo4NkN5Wv4h8SeJNc8YaXJ8aPD+yXyPNsdf0aP8Ac3ML/wDPavOU0PUP7Zgt9H8Fvpy/avKktJ499vNMn/slfQWg+INUvPAyR/8ACP8A9mto6I7+R8/2Z3/uf7D1lz8ky6UOcq+A7iT4D+NrXT/HH73w9r3z2N1PP+6SH+Cvq/w34s8YR/shXl58O7y1umtvE0P9pSRyb7e/tndPkrmfhj4L8D/Hj4MxWfii4sLqLTbt4kRI/wDSLCb+PfWppnwjk+F/wD8S+F5PEDwWV5fQpa6rayfI/wA/8f8Acow/76ciqsfZHIax4g8WaxDa2en+G11a1+1bIJ0TZcaV/fhf/Yr279mb44WXhO8t/AeoeOLe4l+1/Z59Gup980yP/wCyJXnPw98F/wDCi9ObxpqniCfVIkg/efZZ0dHR/wC//t1xv7RuufDbxJ4eg+IHwv1S40vUk+eN9ZsX85E/j2TfIla8vIZfGdv8Wtb+F+h/Gy/8P+E/iD/Y3iOG+dI7XZviRHf+Cur+A/w38S3HjNtRs91xq14nlTyTpsSZK8k0fVI/ihqXhD4ueJLiwnbWLV7Ke7n+ebfbfud7v/t/fr6++HUf/CF+G4rzVI7eDTkTek8H+tR/79edX9+Z24XkhA+Rv2h9D8U/Bf8AaHsPGlnJdaXf2c+9PM+SK5/vpv8A9uvp74M/tWWfhfWLDT7mTytL16D7RpvmSfcf+OGvIP8AgoRrGlfETw9b/wDCP3kU+o2b/I/+xXi3w9s9U8QfC7UfB8nij7P4j0d01PQ4JPv7E/1yJ/wBK78FiPYnJXoc8z9cPDHjSz8UWcV5Z3CbXj3x+W9aNzceWnmV+bv7JH/BQy40+5/4Rvxh5ry+Zs/3P4K+5vht8ZPDXxAs0j0+42u8f8de3QxVOscMqVSB2XmC4m80/eq1Nb/2xpr3EY2y23+v/wByq9tHbSJ+7kqazvI9PfzZD8j/ACT/AO3XQQZHke9S21nIX5qe/s/sd41uP9V99H/v1ND5ccNADGk8uq7/AHTS3N5TDJ5lAD0k+/T3/wBT+FIiDZ5tDyeZD5ZoAzXuCXaOP5qb9okk/dmnXNv9n/eUthb+Y/mVoBasLePpJVr5P74qo+Y0o+0+9AH4MWclallJ8nFYdnJWvZyfJn9aDyzUtpO/61dtpKzbaSrUNxQBqQyVL5knl+Z/cqlDcVatrzy/3kfztQC0Por9kL9piP4f7PB/iC4b7BM/ySSfwV9Yw+MNK1SzW8s7zfE8e9Hjr8yba8kt5mkj/wC/ddv4P/aN+IPg+FLez1R5Yk/5YSfcrzsRh7v3D7zh/ir2H7rFfAfbXirx5eRO8cdx8tU/h7fyXlzLI9xvfzK+S7/9sXxbJDzp8Vdp8Df2uLO4uf7O8SWbRSv/AMt4686ca9H4z7ehxLktb3KUj7GhuPkSMyVm6xqH2ffJLcf8AjrldE+IEfiC2S40fdL/ANc6ng0P4ieKJvs+n+H5Yv8AppJXDPNMLD4Zns0p0PZ85V8T+KI9PsHuPN3/APodfLv7TOufED4oWcvhLwHo91Pv+R9kdfeHgn9k/To7b+1PGl41xcTfcRP4K6qw+BfgvwHpUt5b6Pa7/wC/srwsVnfJ8B5uMxsKy9lA/IrR/wBgP48eOLCJ7zQ2smT7m+u68K/8En7i402WT4ia5K8v39lfpjN4ft7z/SLePbs/1cfl1g69o/2iby7i3/79189jM+zadP3DycHk+FjU98+P/hR+yH4E+Fdmv2PSkeWH/VyPHWtrdvd6fM+nfZ/n/gkr6A8Q+H7ezhaOON2ry/xP4XuNQ1Jbn7v7yvmquLxVb+PM+qwtGhR92kecLodxIj3F59ysbWNHs7yby45K9J1vS4reH7Hb/M9YKeA5LOGXULwVlGryHUeVeMND+z23MddB8Cv9Iv1t/L+5R4q0e4vLn7PHHvTfXefBbwPHZ3KyeXtetcPLnJq+5TO/8JeG5Le8e4/v10dh9n09G+4r76ivLiPS0QR/x/3K57xPqkmnzfbPtH8H3K+g56eHoHy/JUxFcu+IfFlxb3n7yP8A7aVxuveOJJIZY4pfmrnPHPxEuNQm+x20m2uUs7ySS5e4+0u9fK4zHznPkPsMvy6EIc8jeEkl47SSS/PVuHT7iNEklk31hwx6peb5LO3ap5/FF5paJb3EbVwUsLUrHoyr06J1dtZyXFt/rKifwnHqmqxRiT5krLttUkk0z7RJcLb/ALv/AJaVx+m/Hy40e8v9LknSWWH/AFb11UKE4HFXxHtoHv2la5ofhtP7PuNQTzdlcB8WvFmh29tLqlvI3mp/y0rgY/ipZ3ls+oXkm66+/wDJXjvxX/aFvbe5fSreTen8ddUMPXrT+AyjOhRhzzkS+P8Ax7qHijUvs+j3l/8AJ/rPLqlD4wj0PTV/tm4ln/vxzyV5zZ/Hy8s7mWTT7N9//PTZXCfE74wa54suVt7yRLe3/wCmf36+mwWS1KsD5zFZ5QpTPZPHnxw+Eeqaamnm3S3uE/uV4n4q+LNnpdtPp+h6jK0X3/LrkPGF5YSeVb2Hm73j3+e9cz9j1CO/+z/aEuN//POvqsuyahR+OR8rmOc163uwK8PjjXLd7p/tkvlXL/8ALSvRP2cvC+seMNYeSz3tK/30/wBiuP1jVPA8c0H9t6fPFLCmzYkf8dd/8IvHFv8ADdJZPDcm6fUk2JJ/cr25UqcKfIfP0sRP2/vSK/7QN5Jp/i6XQ7zUPkto9nySVV/Z78WW/g+/l8Uf2Xv8n5I/k/jqLWPhXrfixL/xRrF5Ls3/AMf33etLw9pej+CvAcFzeah5sqT/AMCffrOMYQockTWr7+K5pHX+MPGHijxB4ViuLiO6utSmut8ckf8AAlb/AMNNDuPB2j/2prm+W8mk3vBJ/BXS6Vb6X4s8DWGqfDvULWK9m+SeO7/9krl/ij4D8afD/wASwXniDWP9dsfzP4K56Ch70TerUn8Z6X+0VrFx4j8MeHpNDuIoL22tfuRyfPXUfBPxZ8O4/hjrmoaxocX9r20H7yeeP79fMnjnx54guNRfxBoYe48mNIU8v7iVs/D3xp4ok8NvJ4w2RW9/PskkrqhhqcIcpxfXpufMelpcfs9/GTTfL0e3vU1ab/j6/wBt64D4i/sv+D9HvJ9Qu7x4lm+55lfRX7Knhfwf4Lub+48SeD4JbXZvtb6CP79YPxJs7fxx9ts9Lt4pfJnf/gCUQq2rjnD2lDnPnPwNFo/wbs7/AE/UbP7b9s/1c8f36peGNQ0/XNSlt9H0eX7Qkm902ffr1C90v4Z6Xo7x6zcbrh/9XvrsPh5+z/caXrdr4w+Gclrf2d5a/v40+d4a7+aEzgjSPNH/AGoPFnhvwrdeC/Dej2trv+R98f364rQfCfxM8YaxF4k1WSC3R/8AWOiJXufjb4BxmG6uNQ09PPeR3j3x/wAdcN4n0vxJ4L8JLeSHzWR9kccafcrD9zD4TflxX2vhPX/2RbzVP+FtWGlyao/lWzo+yT5POr9R/wDhNPDfhuwtbfxB4k2zvaI88Dps8lP9ivyS/Yh8aaHc/Euy1i4uJbi/89EjtH+T56/Rb4e6hpfjjVb248aeUiWabLG6uvuO/wDcSvNq/wAY76Uf3B0KfFzwfceKrqPwvZvFL5eyOd4980z13mvS3H/CDRReMLyWJ5oP3GlQbH87/frlPB/w38D+C7OLxRBHFLdXN18+pT/wf7iV7J4bvPAccLyWejvqV7DH+8u3+etfZc5Ptz4j/aE+D8msWVxeXEiaDa+R88f8b/8AfFfNPiH4f/Fz4d+BWk8F6xFptg77IL67/wCPi5/20Sv1D+M3w3k1TRb3VJPDcH2qb508/wCf5K+Ofj98M/Gnjya10uz0+KKCH915+x0RErKlCdGZpOXtqfungXh74iHw34etdLt7e61zxBfv5UniO7n3/Zof49iVh+P/AI23nw7hX4ZaFZyy6Q92kt9qvkP8/wA/3P8AbrqPE+oaH8F9Vlj07w//AMJHrz/uoEgjfZbIn9z+CvDfFXiz42eNNV/tDxhJa2tqjzPpWjQWifO6f367avs6sDjpQrwPr39l34maP4w+J91qmqXL3UWg6MiWtpB9xJvvpv8A+AV1H7MHxMt5Pid4v8YDXIme8vvslp+8/wBv56+dv+CftnrHgfwH4v1zxRbypf63YzJPPJ/B/H/6B8lT/s8axH8M/ivpdvrnyacmlXmoT/vPuI7/ACO//faVEKECfaVveP0WT4d3nwv8K+N/ihp+oMmqarBDaabsk+4mz5P/AECuV0fT/D9/4e8M/EDXbOWJ9e1VLLUp4PvwzP8A3K4P9q79rR9H+FfgD4f6Pcf8Te/0qw1W+RP47Z0/co//AH3Wj4b+IGn3Hwf8QR+IdU32vhjxwlx5Fr/z2T7kKf79eiow+E8/2s/jPo+5+CcHg/w9eeINH0tGvbzZFqVjP/z7Vx8Vx4f+Dc8Wh3GjvdaJqSf8ej/PNYb/AL/++ldH4G/aQs/ip8Op9PjuP+Jvc2LywRv8mzYn8deN6P44vPjBZ6z4O1TdZ694egf+yr5/vv8A3/8Af+T+/ROgOFX3zv8A4LW2j2fxXl8P6P4kt4vn83yJJP8AXQ/fTf8A7dekfFfw/wDDL9ozRNSs47i3i1mGD7Jv8z5HdPuf+gV82fs6/D/xxrHxItfiBrgRZ9HsblP9i8R99efaJ441zwf4k8V/Du81y9d5rt7vRr7f+9hud+/Z/uVr7L92RKrzmf8AF3wn4ouNYl8D+L7eeDxDpWy0tLt/+Wzv9z/0Cu6+AmufEjwh8UdE0/xJteLUrWa0nk/uVxvxm8eeMPiZbeEvjJqEaxT+Yllqsccif6Y7/wAf+/8AJVX4LfGy48SfEXx5caoWin8HzwvY2k/3Nib/ADtn/jlc0sLPnOyGMh7M9nvNX/4V/wDCW/8AEOsaXPp0/wDbKPAj/wCpR3m2bE/2P/i68++NPhfxBrviHwvoesWbRXWqul3P5H+q2b/v1g/FT9piTT/Feg/ADULNtUtbzxjstb6f7j22yGZHf/gbulYF5+2Zcaf8fp9U1Sz8/QfDck2n3drs+eF0R3TZVfV6Zh9aqHvzx+H9d+OUH7xJbyHRv7Mn8yT53Tyfv/8AjleK/tIeIPB/wD1Kw8WeB7yC90awtf8AiqtOT7l5bTP8+/8A29+yvMvit+0Z/wAJhPf/AB4+H+sPZXVzrFnFpsFo+/yUSHY6P/4/Xzh8Y/2hPEniT40p48uLzzdB1XztC1nTf+WSIn3H/wDHKr93AylzzPXf2iP2wPCcfw08W+E/hfcXCXvh6+SLSpNnyPZ/P++T/fr5Y0e88Sapqul+E/ix4oaW3uX/AOJddfxwpN/BN/sV6RoPiT4T/ED9k7xR4P1zR5YNW0SdLex1hI9jvCm/yf8AfRP465rxn8CvHln8LYviJp9zBrOnaboe/wC3Rx7Hm2b/ALif7FTKfPAqhLkmV0+D/iD4Z6TrPiTxBHOtnDOlvHaxp+5RH+4/z1ov4s+G+sfDRvhv4k0+403VNNn3weRH8k38aOn9+r/hv4mfEDxJ4V0vxhJeS3/9q2n9malpskaPE/8AwD+/Xp3hj4X6X4os4LjUfBdu1vbTpFHrEaf6Rbf7DpXFKr7h6FKhzkHw9vLe50/TtLt/B9hcRPY/8TGDzP8Aj5/20/jR69t+FHwT0+P4aazd+E431zTbyd3n0e6j/fWyf3Ef7/yVV+EXwD8Nx6Vq1xbxy/b4br/iWzpv2On+5/fqbwH44+KGn+Of7L8F+HNRg+x/6PrlrBB86f7f+3vrhpSqTqHdKNOhA1vhR8E7j4R6VceOLOS6uNJuZEuI3T5Jrb++kyfx177f+H/Dfij4Y/2x4GvLeWz1uPfOl1HvTf8A7n8FcRrGh+OBef2H8SfCflaJ4hsXl02+sZ3Tzn/2/wC49ZHhXxB4f8F+J5/h34P+IEGpaNbWP+leGdVf7PfW039+F/4/++69ilDk988erV9tM5D4zeLPBehumn+KNHs1tfL+zzz2N1s2J/f2b64H4V/B/wAUapqupaPeSfavB+pI8trqU86S+T/c+59ysH4teEPA/jDx/L5fiW4iuJpNkEc8m9Pv/wAdfQnwT/ZruLfwM8nizxbqVnavGiyWmjRp/wAAesqsuc0pQ5PiPS/2Tvhl8J/C/wAHLz4Zf8I/ZXl1Z/6bBP5ez/0P/frtX134R+D4Uj1S482Kb/X2knzojp/B8lZfwc+A/iC38daXZ+H/AI+aXLFbR7JNKvrHZd7HT5P4NlY3xg+HeseB9HutK+Jtxaz+Tdv5l3Y/J8/9+uWr8BrSj+/Pnr9u2P4R6pZ/2v4PjuNInuZP9Yk/7lK8K+FHiS3uPENhq+oXif2lpUif8TL/AJ7Wz/JMn/fFbf7WNvJ4os7fR/D8cuxJP3kkc+9Jv9yvKPhjceLLOG4trPQ/7SaGTynj/jRP79OP8M1+2a3xp8Uf8KD+Pl7p1npa7JnS9tI0+5sf569/+D/7eF5F4STWNPvIor2HZvtK8y/aQ8B2/wAQPg54a+MlvGv9o6bG+marv/5bTb3dP++E2JXmnwK+G+oR+J3/ALUt0SW8+55j/I9Eqs4fAXShTmfpZ8Cv+Cjmh+JE+x+LNLureV/+W/8ABX0To/xE0vxRZxapo+oQSr5f3I6+CtM+Fdv4X8B/2NeSRWV68f7iSuNf9oz4wfAuF5PD8k97b20n7yvRwebc3us4MVgZ0j9TbO8uNU8PJcSR7pbOTZJ/wOmfaMo0ccn3P46+Vv2P/wBvCL4kXKWXiy3itbi5j2Sb5K+k7DVdPvJpY/tGzZ/yz317NKdOZw85f8uST/WR0+GPy3qWKS3kTzPMoSSPfViHTSeWlV4ZJJJKfc/vP3cdPht/k/26AEmjjnj5qKHy4E/d1MkXl/u81E8ZG/H60ACYuP8AWUeXF/c/Wok8yOSnfv8A/OKAPwSs+v4VpWvX8aivPs9umPMrNfXLeN/L8ysY4qnM45YepA6O2kq7bRySVy8PiCP/AJ6VvaDrn210jElctfMqFGB00MurYmfLA1IY5Knhjk/5Ziuk8PaXb3icVs/8InbeteFV4vy+j8Z9DS4LzGtDnicVD9oxxTXjkrtP+EWi/uVFN4bj/wCedZf68ZP/ADFS4HzOcOWRxD/xx5pmg3F5p+pJcW//AD0rqL/w9GkbyVzvlx2+qpWy4ny/GYWRjR4WxWArw90+xf2UfiJqFn9njvNjK/8A0zr7L8B+JLfULZZJLxU3/wDLNK+Av2eLi8uPs8dvJX2v8HPD8lxbJJcahur8gq4+c81lGB+rQwvJlXvHs2j3kd4n+58lU/Elveag/wBjk/1H/LStnR9Lt7ezSO3ovLP79e1KPOfOQnThUONv9L8tNllXP63Z/Y0eSSus1WT7O71z+pRm4euOrSO2lPnOA1mOT5pPL+/XDeJ4pI91eu6hpdvJvMkdczr3g+yuP3hjryKtI9ShV5DyW00f7Rc+ZcVl+PI5JETT7eTYtejax4b+zwv9jirz7XtP8u5eO4jw9cs/cPRoT5zB8PeF7Pzv9I+d67TQbez0ub93HsrJs/L0+2e4k/uVQ/4SS41C3a3t7dvkrWlOECasJzN74keII9P2XFnJXn2t+JLzWE/0iSnX9xeaxN5Udw6U3XtLttHsFkuJNzvWsq9eaNcPh6FI4HxJBJJfrH5jrXUeEtD0+ytvMkj3vWfZ2fn6l9ovJN0VdXHJbfZvMs7PylRPnkrL2UIw55nfLFc/7qBveFf7MnhePULdYv8AnnXJfELS9Ljd/L+4nz1y/ir4qR+F790+ff5f7uvIvFv7RlxeanLZx3DLs/1m+rw9KtW/hHPPkw65qsjf1jXNc1TWZ449QdLWGP8A1decXnjDQ/Deq3lxqklZ3i39pTS9DR/sciSy/wAdeUfEj4t/8JhbeZb6fFueSvp8BlNZz9+J87jc2wyh7kj0PXv2oNP3tpfh+NE3ps8yvLPEPjiOKZ47jUPPupvn8v8AuUeG/D9vrDy6xqEio8MHyVyD6jp1vcy6h/rZ0kdI6+rwWW0IVD5LG5tXnAfrHjy80NPLt7f79UvEMfiTUEt7zzItj1xHjbxBqElzFYW/yv5++SvVfCUmh6h4Vt7bXY332yV9BLD+xh7h8vSxVStOfOZd/wCLNP0LR/L1COKWV/kT5KoWfijwno9n/amsXH71PnSBKn8Q+F/DeqItxZXDRP5nyViJoen23ie10+4kiZn/AOWklFKlCfvBVrzgWvCuo/8ACc+Km8Qaho8qaaknyeZHXfw3nwzs/GcGoW9wsUVt/wAsJP79cprHxMt/B6P4a0uOJ4k+T5Kp+D/C8fxI8W2+lx/Ijyfv5K1nS5znpT5Kh7R8SPGOl+LPAMtv4b8QRRT/AMcEdc78H9V8J6h4YutL8QbJdnyIkn8b1X+IXw68F+E/K0bRtY33CVF8HPAenyX8+q6hcW+yz+5v/v1MaHJA1lipzmaJk/4RPxnF/Z9xPBao6Psjkr2n9pDUPEniTwBYahocdvt+w/u3u/vvXP6Vofww8J/8Vx40klv0eT/RYP4Ll/7lbfxO+KPw7+KHhK1kks3sGsI9/wBlT/ljXl1edV/hPWpcnsPfkeb/AAi1Dxhb/BDWddvPD9rcXCT+Vv2Vy/wu8QXGqXN1/wAJHvTyZ98dp/BXvf7OusfD/wCJnwN8Q/DvS41glmn3wTyf364z4e/AeS31u/08W++9tvkjkf7k1ejCUPilE86dJX5YyPc/h1rmoeJNBn0PwnqCL51jvjgf+Cum0TS/BfgKGy1z4gXipdOmx0ST/Xb6858K/BrxpcWH2PT9UWz1RJN9p/B5yVqeN/gP448QafFca5qD77D96/kPXnclOFfn5j0fa/uOTlKfxL/Zr+H/AI0s5fFng/XN9wk7v9hrzv4Y/G3xD8G/EPmSafdJa20/lTp/BsrW1jUPGlneab4k8J3DQfZp9l1/t16/4Y8D/D/xpol7ceLNHiSfUk3vPH9zfXfGrT+A4PZc/vnlHxX/AGqNU1TxOlv4b8Lu63Me+OSrHw01y8+IH2jR/FGhu+//AFaf3K3fHnw30PS7m3vPCd5FL9jT/V1pfBC48HyeJJY/Flx5F6n/AC3jo9hAft6/wHvH7E/wf+E9nfr/AMJR4PsmukR5f7VSP7lep/EXxR8O9L8W6dYRxtYQTfPI8H3E2VL+yd8J9P8AiBr32nT7eVFhj/dpH8m+sv8Aau8N6f8ACq/v9TvPs9vs+SDzE3vvrgqw/eHZhZ88OQ96+Hsnhv4gaBFdyWbxWqR/6Ijyfceu38MeG/FmnzRR+D9LWwtX/wCQldyfx1+e3gD9oj4meH/N0vT9UvZbK22JapBa/I++vX/Hn7amqWmlReF9P1CWB4bSH+0r6ST+N/4ESuqkctWPIfbmsax4b+wW+nyapays/wAk891JXEaxofh/x5b3Xh/wfpVrfxJ8kc8ifunrwL4ReNPD/wASL9P7YkupYk2eXY7Nif7719GQ65b+C7Cz8N+D9D+zwTf8fc8knz1cqXOZRlOHwnzh4w/Yf1TVNSv9L8N21ra3E0H+lXyJ9z/YSvnPxN+wH8SPh/4ntY/FF5BeLDI7wf8ATGH+Ov05+x+ZbS/Z9+xE3+R/z2rjdS8F2esXN0fEmoRPFMn+l+X/AAf3ESueFKpI6qdecD88fGHhu885Ph/pYS1W/j3ybI/9Ts+5/wB91l+APgfeax42l/4k7X/kwW2n3d1/A6O6O9fUHxL+C+j6fqWqfFjVLxbXSU2WmgaNB/rr+b+//uVy/wAHPDeqfD/xtAbzUGlazgm1PWIIE++7/ch/8fSuj2XIZe3hM57xp8A7z4gftmWun6fpay2Gj6V/Ykkn8CIn+p/74RK7X4u/AuTwV4b0TwPo9m0sV/4g+16jIn37mb+B66/9lTw3rln4k1fxh402re3Lvcf6z/ls7/IlejQxx+IPHktnrEW9bORPI/2Jn/grphU+0cfsrvlKH7PHwbk/4Se81yOOLzXtEl3yJ8kz/wB9P9irdn+zf/ZfxmuvHn9n7f7Sj82eOD7if369G+EXijT9LttZvPL+ezvvsiR/79elWdnZ65pst5HHsdI9lelS9+B5s4exqHlHifw/o3wv8GS3mj26JFbTp5c8n9x/nevgz9p/xgfhX+0tdazpdvFe2fiex3wJs+/c/wAGz+58m+v0b+Ovg+y1zwxb2VxqCRRTQPcf77/cr4Z+Ov7P/iTXNa8L/wBoaY86Weq/aJ7r/Y2PsqK8+SBrQjOsfNPw0+Mmn+H/AIopb/EC483w1Dv1DyJJPnSZ/ubK8xs/jxrvhv4/fEG01jT5X07WLW8skd/9d9sdPk/4A9eq/tFfB68tJtI1Cz0Pyp7zWXfe/wDyxRPvwv8A7Hz/ACVBZ/s/6XqGm6pLqsey8s4H1CeST7/nJ9xK86ripno4fBHJeCfGGuap4c8B/EjxAXnbQb6HT9S8z/nj53yTf7/z7P8AgFd54k/sOz/aX1a4s7eBf7VtZn/s2RPkf/Q/kf8A362fDH7LeufDP7H8N9QuLfUtL8QyQ7H/AOeL/fh/74d6ydb8Jyah8ePs0lv/AMTfSr59Puv+/OxHrl9rXOv2VCHxHz18HPB/izw3pXiXwX5iJFeaq93H/G9tN8/3P+Ab6q3/AMG5PHnwfuD4bs3a6ttSmln3/wDLb5/3L19ffDH9kvWPD/xauI9YgaJtbsXSOe++dPuf5StfQf2X/CX/AApDVNU8FyS2WqeG9c+z6raz/fmT596J/wB8Vvh41J+/I5a6hCHuHxVrfw+8eSfCXVPFEnhtrC60HRraXUtK8v5Lz7+//fr07wTcT/tAfA2Dw/8AB+PZPpt297fWvmf8sXRPOhRP+AV778V/Cen+LH+GOuafZ26Wt/B/ZmuQfcREfZ5MP/oe+pPBn7N/wT+D+p+HPGml3H/COfbNV32l3B9x0mfZsq5c8/gIw/s4fGfOPwH+HejyaCvg+yt/st/Dr/7h/L+S2/y9fZ5+Cd58M9BsPFMfh+K4vLl/+JjY/wDLF/8AptR8K9H+A2qfE6fxJ4H0t7iXTbv7J4gsYIP+PZ0ff53+w/z1Y+Nnx48SeB9Y1a20fRkv7B/n/s133wzWD/I+z/b31lh8LP2hrPFfyECeF/C+saxF4g8P+KJfDniGwk86exT57eZP/s68M/ac8cfHX9m/4hQfFTwfHez+F9bj/wCJrPYxo72D/wACf7affq54q+NGh6fo+jfHj4b+JLX+0dHney1Xw5O/yTaa/wAj2zp/z2R9mx/7iV5V+0V+1Jo9x8N72z8H+JJb/wAKPP8AZ57SP/SLjw9c/wDTzD/GldUcPTgcv1iczo7z9rDx5qn2DWdP+On9veEtS3u+m31ikU2mv/Hsri/D2sWnjD4kwePPEn2q9i8x/M1ye1++n8CQ7K8J+DfxYt7zVb/R7zwm2s2V58kl1fWn+kP/ALaP/wCyV+iPwZ+D+oeMNH0iz+C9lYWGmzQI93a30e+FH/64/wAFYV6vv8kTfDx5Pfmcj8Gf2R/DnxQ8TxeOP7cv2s0n3wQWum/PN/v19g/B/wAUeH/CdtL4P1BGilh/1EF1Yom+r/wv8L/Hj4d3NnoFv4X03+zX+SSeD5E31s/Gb4Hx+PdHfUPHmoWFrf23z/2lYyfvkqOUvn5zmrzxp8G/EGqvqmn6nYWur6b9/wAj5Hf5/wCOuK/ap1S813ULrwvo9nFq0T2MN1JH5n+uR/v/AD15V8afiJ8K49Nv/DeoaXPLLZps/tWSPY9z/wADrkvjD4ojs/h18ObjwPrF0nnaa8Un+l70T7n7msvjLpHNaxoen+KNNuI9D8BvYWtnH/qPP+dHr56fS/Enh/XtRvPA8dx5sM+y7kk/jr1fxJJeeF9KupNc8QSxazNH+/gj+RHhrjrb4ieG/EG+S81i4sL28Tyn8/8A5bQ/7dYROn4zrP2Zv+Es+MPgDxf8J/FujxK7ol3of7z/AJbI/wA7/wDfG+uIh8SR/CPXks9Y0tLiC2n/AHc/8aJXdfB/wX4k+HfxL0vWNPuGv9Gv/wB1BdpJ88PnJsf/ANDrlfjx4f1C38Q6jHHbrPa2F89pvnj+fZv+Sqn75MPcPY/h74o8QfGCZNQvLlXsLb/j1sXf53p/7QPhceG/Db3GqaO9rBMm+vDPhXH4gvIYvEGh6gkV/psGyP8A2K79Pjp8aPGlsngv4ueAov7O+5Jdyfxp/frKFLkNeb+c5b4b6xpe+LVNL1h4LqF/3Ecf8b19KeG/2oPiJ4PfTfEmsaXLdW95Hsnj8z/lsn/2FfOGq+H/AAv4E8bwax4at0S3m+fy667xh4o8aePPAF1eaHG++zffp3l/wJ/H/wCz130sRUgcU8PTPub4J/taeG/ionlx7YnT5JI99ew6brNvqCeZH9yvyB+FHizxh4H1X+3LzXLi1lST546+2fgJ+1jZ+IEt9L1DUX+SNPnevZw+KhP3DzKtKcD60MnmVLH3rlPBfiSPXIVkguN2+uuSP9zzXaQHlewpnl+9Twx/eqO5zHzQBXeMYp/2pPQ1E9xgvVL7b/nNaAf/2Q==;clipPath=inset(15.56% 9% 0% 48.33%);" parent="1" vertex="1">
          <mxGeometry x="-1070" y="463.03" width="214.79" height="213.95" as="geometry" />
        </mxCell>
        <mxCell id="CFb-FSN92-86_s7JcS4c-301" value="" style="whiteSpace=wrap;html=1;aspect=fixed;fillColor=light-dark(#FFFFFF,#44AF69);strokeColor=light-dark(#82B366,#FFFFFF);fillStyle=auto;glass=0;gradientColor=none;dashed=1;" parent="1" vertex="1">
          <mxGeometry x="-940" y="590" width="60" height="60" as="geometry" />
        </mxCell>
        <mxCell id="CFb-FSN92-86_s7JcS4c-302" value="" style="whiteSpace=wrap;html=1;aspect=fixed;fillColor=light-dark(#FFFFFF,#44AF69);strokeColor=light-dark(#82B366,#FFFFFF);fillStyle=auto;glass=0;gradientColor=none;dashed=1;" parent="1" vertex="1">
          <mxGeometry x="-740" y="610" width="45" height="45" as="geometry" />
        </mxCell>
        <mxCell id="CFb-FSN92-86_s7JcS4c-308" value="" style="endArrow=none;dashed=1;html=1;rounded=0;exitX=1;exitY=0;exitDx=0;exitDy=0;entryX=0;entryY=0;entryDx=0;entryDy=0;" parent="1" source="CFb-FSN92-86_s7JcS4c-301" target="CFb-FSN92-86_s7JcS4c-302" edge="1">
          <mxGeometry width="50" height="50" relative="1" as="geometry">
            <mxPoint x="-860" y="590" as="sourcePoint" />
            <mxPoint x="-810" y="540" as="targetPoint" />
          </mxGeometry>
        </mxCell>
        <mxCell id="CFb-FSN92-86_s7JcS4c-309" value="" style="endArrow=none;dashed=1;html=1;rounded=0;exitX=1;exitY=1;exitDx=0;exitDy=0;entryX=0;entryY=1;entryDx=0;entryDy=0;" parent="1" source="CFb-FSN92-86_s7JcS4c-301" target="CFb-FSN92-86_s7JcS4c-302" edge="1">
          <mxGeometry width="50" height="50" relative="1" as="geometry">
            <mxPoint x="-870" y="600" as="sourcePoint" />
            <mxPoint x="-730" y="620" as="targetPoint" />
          </mxGeometry>
        </mxCell>
        <mxCell id="CFb-FSN92-86_s7JcS4c-314" value="Text" style="text;html=1;align=center;verticalAlign=middle;whiteSpace=wrap;rounded=0;" parent="1" vertex="1">
          <mxGeometry x="-390" y="580" width="60" height="30" as="geometry" />
        </mxCell>
        <mxCell id="CFb-FSN92-86_s7JcS4c-317" value="..." style="text;html=1;align=center;verticalAlign=middle;whiteSpace=wrap;rounded=0;fontSize=91;" parent="1" vertex="1">
          <mxGeometry x="-110" y="495" width="60" height="130" as="geometry" />
        </mxCell>
        <mxCell id="CFb-FSN92-86_s7JcS4c-322" value="" style="endArrow=none;dashed=1;html=1;rounded=0;entryX=0;entryY=0;entryDx=0;entryDy=0;exitX=1;exitY=0;exitDx=0;exitDy=0;" parent="1" source="CFb-FSN92-86_s7JcS4c-39" target="CFb-FSN92-86_s7JcS4c-50" edge="1">
          <mxGeometry width="50" height="50" relative="1" as="geometry">
            <mxPoint x="-20" y="540" as="sourcePoint" />
            <mxPoint x="160" y="445" as="targetPoint" />
          </mxGeometry>
        </mxCell>
        <mxCell id="CFb-FSN92-86_s7JcS4c-323" value="" style="endArrow=none;dashed=1;html=1;rounded=0;exitX=1;exitY=1;exitDx=0;exitDy=0;entryX=0;entryY=1;entryDx=0;entryDy=0;" parent="1" source="CFb-FSN92-86_s7JcS4c-48" target="CFb-FSN92-86_s7JcS4c-66" edge="1">
          <mxGeometry width="50" height="50" relative="1" as="geometry">
            <mxPoint x="20" y="380" as="sourcePoint" />
            <mxPoint x="160" y="400" as="targetPoint" />
          </mxGeometry>
        </mxCell>
        <mxCell id="CFb-FSN92-86_s7JcS4c-324" value="" style="endArrow=classic;html=1;rounded=0;exitX=1;exitY=0.5;exitDx=0;exitDy=0;entryX=0;entryY=0.5;entryDx=0;entryDy=0;" parent="1" source="CFb-FSN92-86_s7JcS4c-50" target="CFb-FSN92-86_s7JcS4c-76" edge="1">
          <mxGeometry width="50" height="50" relative="1" as="geometry">
            <mxPoint x="100" y="370" as="sourcePoint" />
            <mxPoint x="180" y="480" as="targetPoint" />
          </mxGeometry>
        </mxCell>
        <mxCell id="CFb-FSN92-86_s7JcS4c-325" value="" style="endArrow=classic;html=1;rounded=0;exitX=1;exitY=0.5;exitDx=0;exitDy=0;entryX=0;entryY=0.5;entryDx=0;entryDy=0;" parent="1" source="CFb-FSN92-86_s7JcS4c-58" target="CFb-FSN92-86_s7JcS4c-69" edge="1">
          <mxGeometry width="50" height="50" relative="1" as="geometry">
            <mxPoint x="140" y="500" as="sourcePoint" />
            <mxPoint x="220" y="355" as="targetPoint" />
          </mxGeometry>
        </mxCell>
        <mxCell id="CFb-FSN92-86_s7JcS4c-326" value="" style="endArrow=classic;html=1;rounded=0;exitX=1;exitY=0.5;exitDx=0;exitDy=0;entryX=0;entryY=0.5;entryDx=0;entryDy=0;" parent="1" source="CFb-FSN92-86_s7JcS4c-59" target="CFb-FSN92-86_s7JcS4c-70" edge="1">
          <mxGeometry width="50" height="50" relative="1" as="geometry">
            <mxPoint x="140" y="520" as="sourcePoint" />
            <mxPoint x="220" y="405" as="targetPoint" />
          </mxGeometry>
        </mxCell>
        <mxCell id="CFb-FSN92-86_s7JcS4c-327" value="" style="endArrow=classic;html=1;rounded=0;exitX=1;exitY=0.5;exitDx=0;exitDy=0;entryX=0;entryY=0.5;entryDx=0;entryDy=0;" parent="1" source="CFb-FSN92-86_s7JcS4c-60" target="CFb-FSN92-86_s7JcS4c-71" edge="1">
          <mxGeometry width="50" height="50" relative="1" as="geometry">
            <mxPoint x="140" y="540" as="sourcePoint" />
            <mxPoint x="220" y="505" as="targetPoint" />
          </mxGeometry>
        </mxCell>
        <mxCell id="CFb-FSN92-86_s7JcS4c-328" value="" style="endArrow=classic;html=1;rounded=0;exitX=1;exitY=0.5;exitDx=0;exitDy=0;entryX=0;entryY=0.5;entryDx=0;entryDy=0;" parent="1" source="CFb-FSN92-86_s7JcS4c-61" target="CFb-FSN92-86_s7JcS4c-72" edge="1">
          <mxGeometry width="50" height="50" relative="1" as="geometry">
            <mxPoint x="140" y="560" as="sourcePoint" />
            <mxPoint x="220" y="555" as="targetPoint" />
          </mxGeometry>
        </mxCell>
        <mxCell id="CFb-FSN92-86_s7JcS4c-329" value="" style="endArrow=classic;html=1;rounded=0;exitX=1;exitY=0.5;exitDx=0;exitDy=0;entryX=0;entryY=0.5;entryDx=0;entryDy=0;" parent="1" source="CFb-FSN92-86_s7JcS4c-62" target="CFb-FSN92-86_s7JcS4c-73" edge="1">
          <mxGeometry width="50" height="50" relative="1" as="geometry">
            <mxPoint x="140" y="580" as="sourcePoint" />
            <mxPoint x="220" y="605" as="targetPoint" />
          </mxGeometry>
        </mxCell>
        <mxCell id="CFb-FSN92-86_s7JcS4c-330" value="" style="endArrow=classic;html=1;rounded=0;exitX=1;exitY=0.5;exitDx=0;exitDy=0;entryX=0;entryY=0.5;entryDx=0;entryDy=0;" parent="1" source="CFb-FSN92-86_s7JcS4c-63" target="CFb-FSN92-86_s7JcS4c-74" edge="1">
          <mxGeometry width="50" height="50" relative="1" as="geometry">
            <mxPoint x="140" y="600" as="sourcePoint" />
            <mxPoint x="220" y="655" as="targetPoint" />
          </mxGeometry>
        </mxCell>
        <mxCell id="CFb-FSN92-86_s7JcS4c-331" value="" style="endArrow=classic;html=1;rounded=0;exitX=1;exitY=0.5;exitDx=0;exitDy=0;entryX=0;entryY=0.5;entryDx=0;entryDy=0;" parent="1" target="CFb-FSN92-86_s7JcS4c-77" edge="1">
          <mxGeometry width="50" height="50" relative="1" as="geometry">
            <mxPoint x="130" y="650" as="sourcePoint" />
            <mxPoint x="210" y="735" as="targetPoint" />
          </mxGeometry>
        </mxCell>
        <mxCell id="CFb-FSN92-86_s7JcS4c-332" value="" style="endArrow=classic;html=1;rounded=0;exitX=1;exitY=0.5;exitDx=0;exitDy=0;entryX=0;entryY=0.5;entryDx=0;entryDy=0;" parent="1" source="CFb-FSN92-86_s7JcS4c-64" target="CFb-FSN92-86_s7JcS4c-75" edge="1">
          <mxGeometry width="50" height="50" relative="1" as="geometry">
            <mxPoint x="150" y="630" as="sourcePoint" />
            <mxPoint x="230" y="715" as="targetPoint" />
          </mxGeometry>
        </mxCell>
        <mxCell id="CFb-FSN92-86_s7JcS4c-333" value="" style="endArrow=classic;html=1;rounded=0;exitX=1;exitY=0.5;exitDx=0;exitDy=0;entryX=0;entryY=0.5;entryDx=0;entryDy=0;" parent="1" target="CFb-FSN92-86_s7JcS4c-78" edge="1">
          <mxGeometry width="50" height="50" relative="1" as="geometry">
            <mxPoint x="130" y="670" as="sourcePoint" />
            <mxPoint x="210" y="765" as="targetPoint" />
          </mxGeometry>
        </mxCell>
        <mxCell id="CFb-FSN92-86_s7JcS4c-334" value="Input" style="text;html=1;align=center;verticalAlign=middle;whiteSpace=wrap;rounded=0;fontSize=30;" parent="1" vertex="1">
          <mxGeometry x="-1010" y="410" width="90" height="30" as="geometry" />
        </mxCell>
        <mxCell id="CFb-FSN92-86_s7JcS4c-335" value="Conv2D layer (32 filters, 3x3 kernel)" style="text;html=1;align=center;verticalAlign=middle;whiteSpace=wrap;rounded=0;fontSize=30;" parent="1" vertex="1">
          <mxGeometry x="-770" y="720" width="215" height="80" as="geometry" />
        </mxCell>
        <mxCell id="CFb-FSN92-86_s7JcS4c-338" value="Flatten Layer" style="text;html=1;align=center;verticalAlign=middle;whiteSpace=wrap;rounded=0;fontSize=30;" parent="1" vertex="1">
          <mxGeometry x="-20" y="745" width="160" height="30" as="geometry" />
        </mxCell>
        <mxCell id="CFb-FSN92-86_s7JcS4c-341" value="Output" style="text;html=1;align=center;verticalAlign=middle;whiteSpace=wrap;rounded=0;fontSize=30;" parent="1" vertex="1">
          <mxGeometry x="510" y="400" width="90" height="30" as="geometry" />
        </mxCell>
        <mxCell id="CFb-FSN92-86_s7JcS4c-350" value="MaxPooling2D (2x2 pool)" style="text;html=1;align=center;verticalAlign=middle;whiteSpace=wrap;rounded=0;fontSize=30;" parent="1" vertex="1">
          <mxGeometry x="-600" y="410" width="150" height="30" as="geometry" />
        </mxCell>
        <mxCell id="CFb-FSN92-86_s7JcS4c-351" value="MaxPooling2D" style="text;html=1;align=center;verticalAlign=middle;whiteSpace=wrap;rounded=0;fontSize=30;" parent="1" vertex="1">
          <mxGeometry x="-340" y="410" width="100" height="30" as="geometry" />
        </mxCell>
        <mxCell id="CFb-FSN92-86_s7JcS4c-352" value="Conv2D" style="text;html=1;align=center;verticalAlign=middle;whiteSpace=wrap;rounded=0;fontSize=30;" parent="1" vertex="1">
          <mxGeometry x="-532.5" y="720" width="215" height="80" as="geometry" />
        </mxCell>
        <mxCell id="CFb-FSN92-86_s7JcS4c-353" value="Conv2D" style="text;html=1;align=center;verticalAlign=middle;whiteSpace=wrap;rounded=0;fontSize=30;" parent="1" vertex="1">
          <mxGeometry x="-290" y="720" width="215" height="80" as="geometry" />
        </mxCell>
        <mxCell id="CFb-FSN92-86_s7JcS4c-355" value="" style="strokeWidth=4;html=1;shape=mxgraph.flowchart.annotation_2;align=left;labelPosition=right;pointerEvents=1;flipV=1;flipH=0;direction=south;" parent="1" vertex="1">
          <mxGeometry x="-1086" y="890" width="1230" height="50" as="geometry" />
        </mxCell>
        <mxCell id="CFb-FSN92-86_s7JcS4c-356" value="Feature Extraction" style="text;html=1;align=center;verticalAlign=middle;whiteSpace=wrap;rounded=0;fontSize=30;" parent="1" vertex="1">
          <mxGeometry x="-636" y="950" width="335" height="80" as="geometry" />
        </mxCell>
        <mxCell id="CFb-FSN92-86_s7JcS4c-357" value="" style="strokeWidth=4;html=1;shape=mxgraph.flowchart.annotation_2;align=left;labelPosition=right;pointerEvents=1;flipV=1;flipH=0;direction=south;" parent="1" vertex="1">
          <mxGeometry x="154" y="890" width="316" height="50" as="geometry" />
        </mxCell>
        <mxCell id="CFb-FSN92-86_s7JcS4c-358" value="Fully Connected (Dense) Layers" style="text;html=1;align=center;verticalAlign=middle;whiteSpace=wrap;rounded=0;fontSize=30;" parent="1" vertex="1">
          <mxGeometry x="154" y="950" width="335" height="80" as="geometry" />
        </mxCell>
        <mxCell id="CFb-FSN92-86_s7JcS4c-361" value="Feature Maps" style="text;html=1;align=center;verticalAlign=middle;whiteSpace=wrap;rounded=0;fontSize=30;" parent="1" vertex="1">
          <mxGeometry x="-480" y="830" width="230" height="80" as="geometry" />
        </mxCell>
        <mxCell id="CFb-FSN92-86_s7JcS4c-363" value="" style="endArrow=classic;html=1;rounded=0;exitX=0;exitY=0.5;exitDx=0;exitDy=0;strokeWidth=4;" parent="1" source="CFb-FSN92-86_s7JcS4c-361" edge="1">
          <mxGeometry width="50" height="50" relative="1" as="geometry">
            <mxPoint x="-590" y="890" as="sourcePoint" />
            <mxPoint x="-790" y="870" as="targetPoint" />
          </mxGeometry>
        </mxCell>
        <mxCell id="CFb-FSN92-86_s7JcS4c-364" value="" style="endArrow=classic;html=1;rounded=0;exitX=1;exitY=0.5;exitDx=0;exitDy=0;strokeWidth=4;" parent="1" source="CFb-FSN92-86_s7JcS4c-361" edge="1">
          <mxGeometry width="50" height="50" relative="1" as="geometry">
            <mxPoint x="-540" y="880" as="sourcePoint" />
            <mxPoint x="120" y="870" as="targetPoint" />
          </mxGeometry>
        </mxCell>
        <mxCell id="CFb-FSN92-86_s7JcS4c-365" value="$$center_y$$" style="text;html=1;align=center;verticalAlign=middle;whiteSpace=wrap;rounded=0;fontSize=30;" parent="1" vertex="1">
          <mxGeometry x="515" y="545" width="135" height="30" as="geometry" />
        </mxCell>
        <mxCell id="CFb-FSN92-86_s7JcS4c-366" value="$$center_x$$" style="text;html=1;align=center;verticalAlign=middle;whiteSpace=wrap;rounded=0;fontSize=30;" parent="1" vertex="1">
          <mxGeometry x="510" y="495" width="150" height="30" as="geometry" />
        </mxCell>
        <mxCell id="CFb-FSN92-86_s7JcS4c-367" value="&lt;b&gt;Convolutional Neural Network Architecture&lt;/b&gt;" style="text;html=1;align=center;verticalAlign=middle;whiteSpace=wrap;rounded=0;fontSize=30;" parent="1" vertex="1">
          <mxGeometry x="-502.5" y="260" width="625" height="80" as="geometry" />
        </mxCell>
        <mxCell id="y4Hc1ZKNLRc7zfj0BYFc-1" value="MaxPooling2D" style="text;html=1;align=center;verticalAlign=middle;whiteSpace=wrap;rounded=0;fontSize=30;" vertex="1" parent="1">
          <mxGeometry x="-110" y="410" width="100" height="30" as="geometry" />
        </mxCell>
        <mxCell id="y4Hc1ZKNLRc7zfj0BYFc-2" value="Dense (256)" style="text;html=1;align=center;verticalAlign=middle;whiteSpace=wrap;rounded=0;fontSize=30;" vertex="1" parent="1">
          <mxGeometry x="310" y="745" width="190" height="30" as="geometry" />
        </mxCell>
        <mxCell id="y4Hc1ZKNLRc7zfj0BYFc-6" value="$$width$$" style="text;html=1;align=center;verticalAlign=middle;whiteSpace=wrap;rounded=0;fontSize=30;" vertex="1" parent="1">
          <mxGeometry x="515" y="595" width="115" height="30" as="geometry" />
        </mxCell>
        <mxCell id="y4Hc1ZKNLRc7zfj0BYFc-7" value="$$height$$" style="text;html=1;align=center;verticalAlign=middle;whiteSpace=wrap;rounded=0;fontSize=30;" vertex="1" parent="1">
          <mxGeometry x="515" y="645" width="135" height="30" as="geometry" />
        </mxCell>
      </root>
    </mxGraphModel>
  </diagram>
</mxfile>
